%TF.GenerationSoftware,KiCad,Pcbnew,9.0.2+dfsg-1*%
%TF.CreationDate,2026-03-29T21:49:31-07:00*%
%TF.ProjectId,battery switch delay,62617474-6572-4792-9073-776974636820,rev?*%
%TF.SameCoordinates,Original*%
%TF.FileFunction,Copper,L1,Top*%
%TF.FilePolarity,Positive*%
%FSLAX46Y46*%
G04 Gerber Fmt 4.6, Leading zero omitted, Abs format (unit mm)*
G04 Created by KiCad (PCBNEW 9.0.2+dfsg-1) date 2026-03-29 21:49:31*
%MOMM*%
%LPD*%
G01*
G04 APERTURE LIST*
G04 Aperture macros list*
%AMRoundRect*
0 Rectangle with rounded corners*
0 $1 Rounding radius*
0 $2 $3 $4 $5 $6 $7 $8 $9 X,Y pos of 4 corners*
0 Add a 4 corners polygon primitive as box body*
4,1,4,$2,$3,$4,$5,$6,$7,$8,$9,$2,$3,0*
0 Add four circle primitives for the rounded corners*
1,1,$1+$1,$2,$3*
1,1,$1+$1,$4,$5*
1,1,$1+$1,$6,$7*
1,1,$1+$1,$8,$9*
0 Add four rect primitives between the rounded corners*
20,1,$1+$1,$2,$3,$4,$5,0*
20,1,$1+$1,$4,$5,$6,$7,0*
20,1,$1+$1,$6,$7,$8,$9,0*
20,1,$1+$1,$8,$9,$2,$3,0*%
G04 Aperture macros list end*
%TA.AperFunction,SMDPad,CuDef*%
%ADD10RoundRect,0.250000X0.450000X-0.350000X0.450000X0.350000X-0.450000X0.350000X-0.450000X-0.350000X0*%
%TD*%
%TA.AperFunction,ComponentPad*%
%ADD11RoundRect,0.250001X-1.149999X-1.149999X1.149999X-1.149999X1.149999X1.149999X-1.149999X1.149999X0*%
%TD*%
%TA.AperFunction,ComponentPad*%
%ADD12C,2.800000*%
%TD*%
%TA.AperFunction,SMDPad,CuDef*%
%ADD13RoundRect,0.375000X-0.625000X-0.375000X0.625000X-0.375000X0.625000X0.375000X-0.625000X0.375000X0*%
%TD*%
%TA.AperFunction,SMDPad,CuDef*%
%ADD14RoundRect,0.500000X-0.500000X-1.400000X0.500000X-1.400000X0.500000X1.400000X-0.500000X1.400000X0*%
%TD*%
%TA.AperFunction,SMDPad,CuDef*%
%ADD15RoundRect,0.250000X-1.050000X-0.550000X1.050000X-0.550000X1.050000X0.550000X-1.050000X0.550000X0*%
%TD*%
%TA.AperFunction,ComponentPad*%
%ADD16C,2.600000*%
%TD*%
%TA.AperFunction,ConnectorPad*%
%ADD17C,3.500000*%
%TD*%
%TA.AperFunction,SMDPad,CuDef*%
%ADD18RoundRect,0.250000X-0.350000X-0.450000X0.350000X-0.450000X0.350000X0.450000X-0.350000X0.450000X0*%
%TD*%
%TA.AperFunction,ComponentPad*%
%ADD19R,1.600000X1.600000*%
%TD*%
%TA.AperFunction,ComponentPad*%
%ADD20O,1.600000X1.600000*%
%TD*%
%TA.AperFunction,SMDPad,CuDef*%
%ADD21RoundRect,0.225000X-0.225000X-0.375000X0.225000X-0.375000X0.225000X0.375000X-0.225000X0.375000X0*%
%TD*%
%TA.AperFunction,ComponentPad*%
%ADD22C,2.400000*%
%TD*%
%TA.AperFunction,ComponentPad*%
%ADD23RoundRect,0.250000X1.000000X1.000000X-1.000000X1.000000X-1.000000X-1.000000X1.000000X-1.000000X0*%
%TD*%
%TA.AperFunction,SMDPad,CuDef*%
%ADD24RoundRect,0.150000X-0.150000X0.587500X-0.150000X-0.587500X0.150000X-0.587500X0.150000X0.587500X0*%
%TD*%
%TA.AperFunction,SMDPad,CuDef*%
%ADD25RoundRect,0.250000X-0.450000X0.350000X-0.450000X-0.350000X0.450000X-0.350000X0.450000X0.350000X0*%
%TD*%
%TA.AperFunction,SMDPad,CuDef*%
%ADD26RoundRect,0.250000X0.337500X0.475000X-0.337500X0.475000X-0.337500X-0.475000X0.337500X-0.475000X0*%
%TD*%
%TA.AperFunction,Conductor*%
%ADD27C,0.200000*%
%TD*%
G04 APERTURE END LIST*
D10*
%TO.P,R3,1*%
%TO.N,Net-(Q1-B)*%
X119179349Y-104173855D03*
%TO.P,R3,2*%
%TO.N,Net-(A1-D7)*%
X119179349Y-102173855D03*
%TD*%
D11*
%TO.P,J1,1,Pin_1*%
%TO.N,ctrl*%
X126700000Y-60800000D03*
D12*
%TO.P,J1,2,Pin_2*%
%TO.N,to switch*%
X131700000Y-60800000D03*
%TO.P,J1,3,Pin_3*%
%TO.N,GND*%
X136700000Y-60800000D03*
%TO.P,J1,4,Pin_4*%
%TO.N,+12V*%
X141700000Y-60800000D03*
%TD*%
D13*
%TO.P,U2,1,VI*%
%TO.N,+12V*%
X112354349Y-87898855D03*
%TO.P,U2,2,GND*%
%TO.N,GND*%
X112354349Y-90198855D03*
D14*
X118654349Y-90198855D03*
D13*
%TO.P,U2,3,VO*%
%TO.N,Net-(A1-VIN)*%
X112354349Y-92498855D03*
%TD*%
D15*
%TO.P,C1,1*%
%TO.N,Net-(A1-VIN)*%
X112679349Y-97673855D03*
%TO.P,C1,2*%
%TO.N,GND*%
X116279349Y-97673855D03*
%TD*%
D16*
%TO.P,REF\u002A\u002A,1*%
%TO.N,N/C*%
X142750000Y-70750000D03*
D17*
X142750000Y-70750000D03*
%TD*%
D18*
%TO.P,R2,1*%
%TO.N,ctrl*%
X111979349Y-109073855D03*
%TO.P,R2,2*%
%TO.N,Net-(A1-D2)*%
X113979349Y-109073855D03*
%TD*%
D19*
%TO.P,A1,1,TX1*%
%TO.N,unconnected-(A1-TX1-Pad1)*%
X123700000Y-73030000D03*
D20*
%TO.P,A1,2,RX1*%
%TO.N,unconnected-(A1-RX1-Pad2)*%
X123700000Y-75570000D03*
%TO.P,A1,3,~{RESET}*%
%TO.N,unconnected-(A1-~{RESET}-Pad3)*%
X123700000Y-78110000D03*
%TO.P,A1,4,GND*%
%TO.N,GND*%
X123700000Y-80650000D03*
%TO.P,A1,5,D2*%
%TO.N,Net-(A1-D2)*%
X123700000Y-83190000D03*
%TO.P,A1,6,D3*%
%TO.N,unconnected-(A1-D3-Pad6)*%
X123700000Y-85730000D03*
%TO.P,A1,7,D4*%
%TO.N,unconnected-(A1-D4-Pad7)*%
X123700000Y-88270000D03*
%TO.P,A1,8,D5*%
%TO.N,unconnected-(A1-D5-Pad8)*%
X123700000Y-90810000D03*
%TO.P,A1,9,D6*%
%TO.N,unconnected-(A1-D6-Pad9)*%
X123700000Y-93350000D03*
%TO.P,A1,10,D7*%
%TO.N,Net-(A1-D7)*%
X123700000Y-95890000D03*
%TO.P,A1,11,D8*%
%TO.N,unconnected-(A1-D8-Pad11)*%
X123700000Y-98430000D03*
%TO.P,A1,12,D9*%
%TO.N,unconnected-(A1-D9-Pad12)*%
X123700000Y-100970000D03*
%TO.P,A1,13,D10*%
%TO.N,unconnected-(A1-D10-Pad13)*%
X123700000Y-103510000D03*
%TO.P,A1,14,MOSI*%
%TO.N,unconnected-(A1-MOSI-Pad14)*%
X123700000Y-106050000D03*
%TO.P,A1,15,MISO*%
%TO.N,unconnected-(A1-MISO-Pad15)*%
X123700000Y-108590000D03*
%TO.P,A1,16,SCK*%
%TO.N,unconnected-(A1-SCK-Pad16)*%
X138940000Y-108590000D03*
%TO.P,A1,17,3V3*%
%TO.N,unconnected-(A1-3V3-Pad17)*%
X138940000Y-106050000D03*
%TO.P,A1,18,AREF*%
%TO.N,unconnected-(A1-AREF-Pad18)*%
X138940000Y-103510000D03*
%TO.P,A1,19,A0*%
%TO.N,unconnected-(A1-A0-Pad19)*%
X138940000Y-100970000D03*
%TO.P,A1,20,A1*%
%TO.N,unconnected-(A1-A1-Pad20)*%
X138940000Y-98430000D03*
%TO.P,A1,21,A2*%
%TO.N,unconnected-(A1-A2-Pad21)*%
X138940000Y-95890000D03*
%TO.P,A1,22,A3*%
%TO.N,unconnected-(A1-A3-Pad22)*%
X138940000Y-93350000D03*
%TO.P,A1,23,SDA/A4*%
%TO.N,unconnected-(A1-SDA{slash}A4-Pad23)*%
X138940000Y-90810000D03*
%TO.P,A1,24,SCL/A5*%
%TO.N,unconnected-(A1-SCL{slash}A5-Pad24)*%
X138940000Y-88270000D03*
%TO.P,A1,25,A6*%
%TO.N,unconnected-(A1-A6-Pad25)*%
X138940000Y-85730000D03*
%TO.P,A1,26,A7*%
%TO.N,unconnected-(A1-A7-Pad26)*%
X138940000Y-83190000D03*
%TO.P,A1,27,+5V*%
%TO.N,unconnected-(A1-+5V-Pad27)*%
X138940000Y-80650000D03*
%TO.P,A1,28,~{RESET}*%
%TO.N,unconnected-(A1-~{RESET}-Pad28)*%
X138940000Y-78110000D03*
%TO.P,A1,29,GND*%
%TO.N,GND*%
X138940000Y-75570000D03*
%TO.P,A1,30,VIN*%
%TO.N,Net-(A1-VIN)*%
X138940000Y-73030000D03*
%TD*%
D21*
%TO.P,D1,1,K*%
%TO.N,Net-(A1-D2)*%
X116129349Y-109173855D03*
%TO.P,D1,2,A*%
%TO.N,GND*%
X119429349Y-109173855D03*
%TD*%
D16*
%TO.P,REF\u002A\u002A,1*%
%TO.N,N/C*%
X106250000Y-58250000D03*
D17*
X106250000Y-58250000D03*
%TD*%
D22*
%TO.P,K1,11*%
%TO.N,to switch*%
X113100000Y-80300000D03*
%TO.P,K1,12*%
%TO.N,ctrl*%
X107100000Y-66100000D03*
%TO.P,K1,14*%
%TO.N,Net-(Q1-C)*%
X119100000Y-66100000D03*
D23*
%TO.P,K1,A1*%
%TO.N,+12V*%
X119100000Y-78300000D03*
D22*
%TO.P,K1,A2*%
%TO.N,GND*%
X107100000Y-78300000D03*
%TD*%
D16*
%TO.P,REF\u002A\u002A,1*%
%TO.N,N/C*%
X106250000Y-110750000D03*
D17*
X106250000Y-110750000D03*
%TD*%
D24*
%TO.P,Q1,1,B*%
%TO.N,Net-(Q1-B)*%
X116729349Y-102161355D03*
%TO.P,Q1,2,E*%
%TO.N,GND*%
X114829349Y-102161355D03*
%TO.P,Q1,3,C*%
%TO.N,Net-(Q1-C)*%
X115779349Y-104036355D03*
%TD*%
D25*
%TO.P,R1,1*%
%TO.N,+12V*%
X112079349Y-102173855D03*
%TO.P,R1,2*%
%TO.N,Net-(Q1-C)*%
X112079349Y-104173855D03*
%TD*%
D16*
%TO.P,REF\u002A\u002A,1*%
%TO.N,N/C*%
X142750000Y-110750000D03*
D17*
X142750000Y-110750000D03*
%TD*%
D26*
%TO.P,C2,1*%
%TO.N,GND*%
X114016849Y-84673855D03*
%TO.P,C2,2*%
%TO.N,+12V*%
X111941849Y-84673855D03*
%TD*%
D27*
%TO.N,Net-(Q1-C)*%
X119100000Y-66100000D02*
X115400000Y-69800000D01*
X115400000Y-69800000D02*
X115400000Y-80500000D01*
X115400000Y-80500000D02*
X113900000Y-82000000D01*
X110800000Y-82000000D02*
X107400000Y-85400000D01*
X111853204Y-104400000D02*
X112079349Y-104173855D01*
X113900000Y-82000000D02*
X110800000Y-82000000D01*
X107400000Y-85400000D02*
X107400000Y-103400000D01*
X107400000Y-103400000D02*
X108400000Y-104400000D01*
X108400000Y-104400000D02*
X111853204Y-104400000D01*
%TO.N,+12V*%
X119100000Y-78300000D02*
X118800000Y-78300000D01*
X118800000Y-78300000D02*
X119100000Y-78600000D01*
X119100000Y-78600000D02*
X119100000Y-81200000D01*
X119100000Y-81200000D02*
X117400000Y-82900000D01*
X117400000Y-82900000D02*
X112800000Y-82900000D01*
X112800000Y-82900000D02*
X111941849Y-83758151D01*
X111941849Y-83758151D02*
X111941849Y-84673855D01*
X119100000Y-78300000D02*
X119100000Y-69400000D01*
X119100000Y-69400000D02*
X121725000Y-66775000D01*
X121725000Y-66775000D02*
X135725000Y-66775000D01*
X135725000Y-66775000D02*
X141700000Y-60800000D01*
%TO.N,to switch*%
X131700000Y-60800000D02*
X129325000Y-63175000D01*
X113100000Y-67500000D02*
X113100000Y-80000000D01*
X129325000Y-63175000D02*
X117425000Y-63175000D01*
X117425000Y-63175000D02*
X113100000Y-67500000D01*
X113100000Y-80000000D02*
X112800000Y-80300000D01*
X112800000Y-80300000D02*
X113100000Y-80300000D01*
%TO.N,ctrl*%
X107100000Y-66100000D02*
X107100000Y-63700000D01*
X108600000Y-71200000D02*
X107100000Y-69700000D01*
X107100000Y-66100000D02*
X107100000Y-69700000D01*
X111979349Y-109073855D02*
X111673855Y-109073855D01*
X111673855Y-109073855D02*
X106500000Y-103900000D01*
X106500000Y-103900000D02*
X106500000Y-81200000D01*
X106500000Y-81200000D02*
X108600000Y-79100000D01*
X108600000Y-79100000D02*
X108600000Y-71200000D01*
%TO.N,+12V*%
X112079349Y-102173855D02*
X109173855Y-102173855D01*
X109173855Y-102173855D02*
X108500000Y-101500000D01*
X108500000Y-101500000D02*
X108500000Y-88753204D01*
X108500000Y-88753204D02*
X109354349Y-87898855D01*
X109354349Y-87898855D02*
X112354349Y-87898855D01*
%TO.N,Net-(A1-D2)*%
X113979349Y-109073855D02*
X113979349Y-108220651D01*
X124790000Y-83190000D02*
X123700000Y-83190000D01*
X113979349Y-108220651D02*
X114900000Y-107300000D01*
X114900000Y-107300000D02*
X124100000Y-107300000D01*
X124100000Y-107300000D02*
X125625000Y-105775000D01*
X125625000Y-105775000D02*
X125625000Y-84025000D01*
X125625000Y-84025000D02*
X124790000Y-83190000D01*
%TO.N,Net-(A1-VIN)*%
X112354349Y-92498855D02*
X112580494Y-92725000D01*
X112580494Y-92725000D02*
X115075000Y-92725000D01*
X116000000Y-89000000D02*
X117200000Y-87800000D01*
X115075000Y-92725000D02*
X116000000Y-91800000D01*
X135743857Y-73130000D02*
X139015826Y-73130000D01*
X116000000Y-91800000D02*
X116000000Y-89000000D01*
X117200000Y-87800000D02*
X119935483Y-87800000D01*
X119935483Y-87800000D02*
X121100000Y-86635483D01*
X129523857Y-79350000D02*
X135743857Y-73130000D01*
X121100000Y-86635483D02*
X121100000Y-80600000D01*
X121100000Y-80600000D02*
X122350000Y-79350000D01*
X139015826Y-73130000D02*
X139177795Y-72968031D01*
X122350000Y-79350000D02*
X129523857Y-79350000D01*
%TO.N,ctrl*%
X107100000Y-63700000D02*
X108425000Y-62375000D01*
X108425000Y-62375000D02*
X125125000Y-62375000D01*
X106800000Y-66100000D02*
X106700000Y-66000000D01*
X107100000Y-66100000D02*
X106800000Y-66100000D01*
X125125000Y-62375000D02*
X126700000Y-60800000D01*
%TO.N,Net-(A1-D7)*%
X119179349Y-102173855D02*
X119200000Y-102153204D01*
X119200000Y-102153204D02*
X119200000Y-99000000D01*
X119200000Y-99000000D02*
X122310000Y-95890000D01*
X122310000Y-95890000D02*
X123700000Y-95890000D01*
%TO.N,Net-(A1-D2)*%
X113979349Y-109173855D02*
X116129349Y-109173855D01*
X113979349Y-109073855D02*
X113979349Y-109173855D01*
%TO.N,Net-(A1-D7)*%
X123873857Y-95860000D02*
X123905826Y-95860000D01*
X123905826Y-95860000D02*
X123937795Y-95828031D01*
%TO.N,Net-(A1-VIN)*%
X112354349Y-97248855D02*
X112354349Y-92498855D01*
X112679349Y-97673855D02*
X112679349Y-97573855D01*
X112679349Y-97573855D02*
X112354349Y-97248855D01*
%TO.N,+12V*%
X112354349Y-87898855D02*
X112354349Y-87811355D01*
X112354349Y-87811355D02*
X111941849Y-87398855D01*
X111941849Y-87398855D02*
X111941849Y-84673855D01*
%TO.N,Net-(Q1-C)*%
X112529349Y-104273855D02*
X112766849Y-104036355D01*
X112766849Y-104036355D02*
X115779349Y-104036355D01*
X112079349Y-104173855D02*
X112179349Y-104173855D01*
X112179349Y-104173855D02*
X112279349Y-104273855D01*
X112279349Y-104273855D02*
X112529349Y-104273855D01*
%TO.N,Net-(Q1-B)*%
X118329349Y-103748855D02*
X116741849Y-102161355D01*
X119179349Y-104173855D02*
X119179349Y-103873855D01*
X119054349Y-103748855D02*
X118329349Y-103748855D01*
X116741849Y-102161355D02*
X116729349Y-102161355D01*
X119179349Y-103873855D02*
X119054349Y-103748855D01*
%TD*%
%TA.AperFunction,Conductor*%
%TO.N,GND*%
G36*
X143942539Y-57020185D02*
G01*
X143988294Y-57072989D01*
X143999500Y-57124500D01*
X143999500Y-68657970D01*
X143979815Y-68725009D01*
X143927011Y-68770764D01*
X143857853Y-68780708D01*
X143813501Y-68765358D01*
X143768460Y-68739354D01*
X143747507Y-68727257D01*
X143742080Y-68725009D01*
X143474961Y-68614364D01*
X143474954Y-68614362D01*
X143474952Y-68614361D01*
X143189993Y-68538007D01*
X143141113Y-68531571D01*
X142897513Y-68499500D01*
X142897506Y-68499500D01*
X142602494Y-68499500D01*
X142602486Y-68499500D01*
X142324085Y-68536153D01*
X142310007Y-68538007D01*
X142025048Y-68614361D01*
X142025038Y-68614364D01*
X141752499Y-68727254D01*
X141752489Y-68727258D01*
X141497006Y-68874761D01*
X141262959Y-69054352D01*
X141262952Y-69054358D01*
X141054358Y-69262952D01*
X141054352Y-69262959D01*
X140874761Y-69497006D01*
X140727258Y-69752489D01*
X140727254Y-69752499D01*
X140614364Y-70025038D01*
X140614361Y-70025048D01*
X140572703Y-70180521D01*
X140538008Y-70310004D01*
X140538006Y-70310015D01*
X140499500Y-70602486D01*
X140499500Y-70897513D01*
X140531571Y-71141113D01*
X140538007Y-71189993D01*
X140614036Y-71473739D01*
X140614361Y-71474951D01*
X140614364Y-71474961D01*
X140727254Y-71747500D01*
X140727258Y-71747510D01*
X140874761Y-72002993D01*
X141054352Y-72237040D01*
X141054358Y-72237047D01*
X141262952Y-72445641D01*
X141262959Y-72445647D01*
X141497006Y-72625238D01*
X141752489Y-72772741D01*
X141752490Y-72772741D01*
X141752493Y-72772743D01*
X142025048Y-72885639D01*
X142310007Y-72961993D01*
X142602494Y-73000500D01*
X142602501Y-73000500D01*
X142897499Y-73000500D01*
X142897506Y-73000500D01*
X143189993Y-72961993D01*
X143474952Y-72885639D01*
X143747507Y-72772743D01*
X143813500Y-72734642D01*
X143881400Y-72718169D01*
X143947427Y-72741022D01*
X143990618Y-72795943D01*
X143999500Y-72842029D01*
X143999500Y-108657970D01*
X143979815Y-108725009D01*
X143927011Y-108770764D01*
X143857853Y-108780708D01*
X143813501Y-108765358D01*
X143768460Y-108739354D01*
X143747507Y-108727257D01*
X143742080Y-108725009D01*
X143474961Y-108614364D01*
X143474954Y-108614362D01*
X143474952Y-108614361D01*
X143189993Y-108538007D01*
X143141113Y-108531571D01*
X142897513Y-108499500D01*
X142897506Y-108499500D01*
X142602494Y-108499500D01*
X142602486Y-108499500D01*
X142324085Y-108536153D01*
X142310007Y-108538007D01*
X142178086Y-108573355D01*
X142025048Y-108614361D01*
X142025038Y-108614364D01*
X141752499Y-108727254D01*
X141752489Y-108727258D01*
X141497006Y-108874761D01*
X141262959Y-109054352D01*
X141262952Y-109054358D01*
X141054358Y-109262952D01*
X141054352Y-109262959D01*
X140874761Y-109497006D01*
X140727258Y-109752489D01*
X140727254Y-109752499D01*
X140614364Y-110025038D01*
X140614361Y-110025048D01*
X140547561Y-110274353D01*
X140538008Y-110310004D01*
X140538006Y-110310015D01*
X140499500Y-110602486D01*
X140499500Y-110897513D01*
X140531571Y-111141113D01*
X140538007Y-111189993D01*
X140538008Y-111189995D01*
X140614361Y-111474951D01*
X140614364Y-111474961D01*
X140727254Y-111747500D01*
X140727258Y-111747509D01*
X140765358Y-111813500D01*
X140781831Y-111881400D01*
X140758978Y-111947427D01*
X140704057Y-111990618D01*
X140657971Y-111999500D01*
X108342029Y-111999500D01*
X108274990Y-111979815D01*
X108229235Y-111927011D01*
X108219291Y-111857853D01*
X108234642Y-111813500D01*
X108235394Y-111812196D01*
X108272743Y-111747507D01*
X108385639Y-111474952D01*
X108461993Y-111189993D01*
X108500500Y-110897506D01*
X108500500Y-110602494D01*
X108461993Y-110310007D01*
X108385639Y-110025048D01*
X108375919Y-110001583D01*
X108360060Y-109963296D01*
X108272743Y-109752493D01*
X108240452Y-109696564D01*
X108125238Y-109497006D01*
X107945647Y-109262959D01*
X107945641Y-109262952D01*
X107737047Y-109054358D01*
X107737040Y-109054352D01*
X107502993Y-108874761D01*
X107247510Y-108727258D01*
X107247500Y-108727254D01*
X106974961Y-108614364D01*
X106974954Y-108614362D01*
X106974952Y-108614361D01*
X106689993Y-108538007D01*
X106641113Y-108531571D01*
X106397513Y-108499500D01*
X106397506Y-108499500D01*
X106102494Y-108499500D01*
X106102486Y-108499500D01*
X105824085Y-108536153D01*
X105810007Y-108538007D01*
X105678086Y-108573355D01*
X105525048Y-108614361D01*
X105525038Y-108614364D01*
X105252499Y-108727254D01*
X105252494Y-108727256D01*
X105186499Y-108765358D01*
X105118598Y-108781829D01*
X105052572Y-108758977D01*
X105009382Y-108704055D01*
X105000500Y-108657970D01*
X105000500Y-65988549D01*
X105399500Y-65988549D01*
X105399500Y-66211450D01*
X105399501Y-66211466D01*
X105428594Y-66432452D01*
X105428595Y-66432457D01*
X105428596Y-66432463D01*
X105486290Y-66647780D01*
X105486293Y-66647790D01*
X105571593Y-66853722D01*
X105571595Y-66853726D01*
X105683052Y-67046774D01*
X105683057Y-67046780D01*
X105683058Y-67046782D01*
X105818751Y-67223622D01*
X105818757Y-67223629D01*
X105976370Y-67381242D01*
X105976376Y-67381247D01*
X106153226Y-67516948D01*
X106346274Y-67628405D01*
X106346277Y-67628406D01*
X106346282Y-67628409D01*
X106422952Y-67660166D01*
X106477356Y-67704006D01*
X106499421Y-67770300D01*
X106499500Y-67774727D01*
X106499500Y-69613330D01*
X106499499Y-69613348D01*
X106499499Y-69779054D01*
X106499498Y-69779054D01*
X106540423Y-69931785D01*
X106552066Y-69951951D01*
X106619477Y-70068712D01*
X106619481Y-70068717D01*
X106738349Y-70187585D01*
X106738355Y-70187590D01*
X107963181Y-71412416D01*
X107996666Y-71473739D01*
X107999500Y-71500097D01*
X107999500Y-76646939D01*
X107979815Y-76713978D01*
X107927011Y-76759733D01*
X107857853Y-76769677D01*
X107828047Y-76761500D01*
X107647618Y-76686763D01*
X107432367Y-76629088D01*
X107432354Y-76629085D01*
X107211425Y-76600000D01*
X106988575Y-76600000D01*
X106767645Y-76629085D01*
X106767632Y-76629088D01*
X106552381Y-76686763D01*
X106346497Y-76772045D01*
X106346479Y-76772054D01*
X106153511Y-76883462D01*
X106087595Y-76934042D01*
X106852511Y-77698958D01*
X106792110Y-77723978D01*
X106685649Y-77795112D01*
X106595112Y-77885649D01*
X106523978Y-77992110D01*
X106498958Y-78052511D01*
X105734042Y-77287595D01*
X105683462Y-77353511D01*
X105572054Y-77546479D01*
X105572045Y-77546497D01*
X105486763Y-77752381D01*
X105429088Y-77967632D01*
X105429085Y-77967645D01*
X105400000Y-78188575D01*
X105400000Y-78411424D01*
X105429085Y-78632354D01*
X105429088Y-78632367D01*
X105486763Y-78847618D01*
X105572045Y-79053502D01*
X105572054Y-79053520D01*
X105683464Y-79246491D01*
X105683473Y-79246504D01*
X105734040Y-79312403D01*
X105734043Y-79312403D01*
X106498958Y-78547488D01*
X106523978Y-78607890D01*
X106595112Y-78714351D01*
X106685649Y-78804888D01*
X106792110Y-78876022D01*
X106852510Y-78901041D01*
X106087595Y-79665955D01*
X106087595Y-79665956D01*
X106153507Y-79716533D01*
X106346485Y-79827949D01*
X106346497Y-79827954D01*
X106552381Y-79913236D01*
X106648679Y-79939039D01*
X106708340Y-79975404D01*
X106738869Y-80038251D01*
X106730574Y-80107626D01*
X106704267Y-80146495D01*
X106131286Y-80719478D01*
X106019481Y-80831282D01*
X106019479Y-80831285D01*
X106015830Y-80837606D01*
X105979518Y-80900501D01*
X105940423Y-80968215D01*
X105899499Y-81120943D01*
X105899499Y-81120945D01*
X105899499Y-81289046D01*
X105899500Y-81289059D01*
X105899500Y-103813330D01*
X105899499Y-103813348D01*
X105899499Y-103979054D01*
X105899498Y-103979054D01*
X105940423Y-104131785D01*
X105949659Y-104147782D01*
X106019477Y-104268712D01*
X106019481Y-104268717D01*
X106138349Y-104387585D01*
X106138355Y-104387590D01*
X110842530Y-109091765D01*
X110876015Y-109153088D01*
X110878849Y-109179446D01*
X110878849Y-109573856D01*
X110878850Y-109573874D01*
X110889349Y-109676651D01*
X110889350Y-109676654D01*
X110944534Y-109843186D01*
X110944536Y-109843191D01*
X110973716Y-109890500D01*
X111036637Y-109992511D01*
X111160693Y-110116567D01*
X111310015Y-110208669D01*
X111476552Y-110263854D01*
X111579340Y-110274355D01*
X112379357Y-110274354D01*
X112379365Y-110274353D01*
X112379368Y-110274353D01*
X112435651Y-110268603D01*
X112482146Y-110263854D01*
X112648683Y-110208669D01*
X112798005Y-110116567D01*
X112891668Y-110022904D01*
X112952991Y-109989419D01*
X113022683Y-109994403D01*
X113067030Y-110022904D01*
X113160693Y-110116567D01*
X113310015Y-110208669D01*
X113476552Y-110263854D01*
X113579340Y-110274355D01*
X114379357Y-110274354D01*
X114379365Y-110274353D01*
X114379368Y-110274353D01*
X114435651Y-110268603D01*
X114482146Y-110263854D01*
X114648683Y-110208669D01*
X114798005Y-110116567D01*
X114922061Y-109992511D01*
X115014163Y-109843189D01*
X115014164Y-109843186D01*
X115017954Y-109837042D01*
X115019754Y-109838152D01*
X115059026Y-109793543D01*
X115126218Y-109774385D01*
X115193101Y-109794595D01*
X115238440Y-109847756D01*
X115241727Y-109856225D01*
X115242348Y-109857557D01*
X115331380Y-110001898D01*
X115451304Y-110121822D01*
X115451308Y-110121825D01*
X115595643Y-110210853D01*
X115595646Y-110210854D01*
X115595652Y-110210858D01*
X115756641Y-110264204D01*
X115856004Y-110274355D01*
X116402693Y-110274354D01*
X116402701Y-110274353D01*
X116402704Y-110274353D01*
X116457109Y-110268795D01*
X116502057Y-110264204D01*
X116663046Y-110210858D01*
X116807393Y-110121823D01*
X116927317Y-110001899D01*
X117016352Y-109857552D01*
X117069698Y-109696563D01*
X117079849Y-109597200D01*
X117079849Y-109597177D01*
X118479350Y-109597177D01*
X118489493Y-109696462D01*
X118542801Y-109857336D01*
X118542806Y-109857347D01*
X118631773Y-110001583D01*
X118631776Y-110001587D01*
X118751616Y-110121427D01*
X118751620Y-110121430D01*
X118895856Y-110210397D01*
X118895867Y-110210402D01*
X119056742Y-110263710D01*
X119156032Y-110273854D01*
X119679349Y-110273854D01*
X119702657Y-110273854D01*
X119702671Y-110273853D01*
X119801956Y-110263710D01*
X119962830Y-110210402D01*
X119962841Y-110210397D01*
X120107077Y-110121430D01*
X120107081Y-110121427D01*
X120226921Y-110001587D01*
X120226924Y-110001583D01*
X120315891Y-109857347D01*
X120315896Y-109857336D01*
X120369204Y-109696461D01*
X120379348Y-109597177D01*
X120379349Y-109597164D01*
X120379349Y-109423855D01*
X119679349Y-109423855D01*
X119679349Y-110273854D01*
X119156032Y-110273854D01*
X119179349Y-110273853D01*
X119179349Y-109423855D01*
X118479350Y-109423855D01*
X118479350Y-109597177D01*
X117079849Y-109597177D01*
X117079848Y-109153088D01*
X117079848Y-108750517D01*
X117079847Y-108750499D01*
X117069698Y-108651147D01*
X117069697Y-108651144D01*
X117057508Y-108614361D01*
X117016352Y-108490158D01*
X117016348Y-108490152D01*
X117016347Y-108490149D01*
X116927319Y-108345814D01*
X116927316Y-108345810D01*
X116807393Y-108225887D01*
X116807389Y-108225884D01*
X116656899Y-108133060D01*
X116657557Y-108131992D01*
X116610672Y-108090712D01*
X116591519Y-108023518D01*
X116611733Y-107956637D01*
X116664898Y-107911301D01*
X116715515Y-107900500D01*
X118844374Y-107900500D01*
X118911413Y-107920185D01*
X118957168Y-107972989D01*
X118967112Y-108042147D01*
X118938087Y-108105703D01*
X118901765Y-108133116D01*
X118902012Y-108133516D01*
X118897771Y-108136131D01*
X118896776Y-108136883D01*
X118895863Y-108137308D01*
X118751620Y-108226279D01*
X118751616Y-108226282D01*
X118631776Y-108346122D01*
X118631773Y-108346126D01*
X118542806Y-108490362D01*
X118542801Y-108490373D01*
X118489493Y-108651248D01*
X118479349Y-108750532D01*
X118479349Y-108923855D01*
X120379348Y-108923855D01*
X120379348Y-108750547D01*
X120379347Y-108750532D01*
X120369204Y-108651247D01*
X120315896Y-108490373D01*
X120315891Y-108490362D01*
X120226924Y-108346126D01*
X120226921Y-108346122D01*
X120107081Y-108226282D01*
X120107077Y-108226279D01*
X119962834Y-108137308D01*
X119961922Y-108136883D01*
X119961400Y-108136424D01*
X119956686Y-108133516D01*
X119957182Y-108132710D01*
X119909481Y-108090712D01*
X119890328Y-108023519D01*
X119910542Y-107956637D01*
X119963707Y-107911302D01*
X120014324Y-107900500D01*
X122389383Y-107900500D01*
X122456422Y-107920185D01*
X122502177Y-107972989D01*
X122512121Y-108042147D01*
X122499868Y-108080795D01*
X122494781Y-108090776D01*
X122431522Y-108285465D01*
X122399500Y-108487648D01*
X122399500Y-108692351D01*
X122431522Y-108894534D01*
X122494781Y-109089223D01*
X122587715Y-109271613D01*
X122708028Y-109437213D01*
X122852786Y-109581971D01*
X122983106Y-109676652D01*
X123018390Y-109702287D01*
X123134607Y-109761503D01*
X123200776Y-109795218D01*
X123200778Y-109795218D01*
X123200781Y-109795220D01*
X123305137Y-109829127D01*
X123395465Y-109858477D01*
X123496557Y-109874488D01*
X123597648Y-109890500D01*
X123597649Y-109890500D01*
X123802351Y-109890500D01*
X123802352Y-109890500D01*
X124004534Y-109858477D01*
X124199219Y-109795220D01*
X124381610Y-109702287D01*
X124474590Y-109634732D01*
X124547213Y-109581971D01*
X124547215Y-109581968D01*
X124547219Y-109581966D01*
X124691966Y-109437219D01*
X124691968Y-109437215D01*
X124691971Y-109437213D01*
X124744732Y-109364590D01*
X124812287Y-109271610D01*
X124905220Y-109089219D01*
X124968477Y-108894534D01*
X125000500Y-108692352D01*
X125000500Y-108487648D01*
X124968477Y-108285466D01*
X124905220Y-108090781D01*
X124905218Y-108090778D01*
X124905218Y-108090776D01*
X124870948Y-108023518D01*
X124812287Y-107908390D01*
X124794462Y-107883856D01*
X124691971Y-107742786D01*
X124686891Y-107737706D01*
X124653406Y-107676383D01*
X124658390Y-107606691D01*
X124686891Y-107562344D01*
X125352022Y-106897213D01*
X126105520Y-106143716D01*
X126184577Y-106006784D01*
X126225501Y-105854057D01*
X126225501Y-105695942D01*
X126225501Y-105688347D01*
X126225500Y-105688329D01*
X126225500Y-83945945D01*
X126225500Y-83945943D01*
X126184577Y-83793216D01*
X126184573Y-83793209D01*
X126105524Y-83656290D01*
X126105521Y-83656286D01*
X126105520Y-83656284D01*
X125993716Y-83544480D01*
X125993715Y-83544479D01*
X125989385Y-83540149D01*
X125989374Y-83540139D01*
X125277590Y-82828355D01*
X125277588Y-82828352D01*
X125158717Y-82709481D01*
X125158716Y-82709480D01*
X125095511Y-82672989D01*
X125081071Y-82664652D01*
X125081068Y-82664651D01*
X125071904Y-82659360D01*
X125021785Y-82630423D01*
X124899022Y-82597528D01*
X124893695Y-82595564D01*
X124870018Y-82577978D01*
X124844839Y-82562630D01*
X124840080Y-82555741D01*
X124837605Y-82553903D01*
X124836154Y-82550058D01*
X124826108Y-82535515D01*
X124812286Y-82508388D01*
X124691971Y-82342786D01*
X124547213Y-82198028D01*
X124381611Y-82077713D01*
X124288369Y-82030203D01*
X124237574Y-81982229D01*
X124220779Y-81914407D01*
X124243317Y-81848273D01*
X124288371Y-81809234D01*
X124381347Y-81761861D01*
X124546894Y-81641582D01*
X124546895Y-81641582D01*
X124691582Y-81496895D01*
X124691582Y-81496894D01*
X124811859Y-81331349D01*
X124904755Y-81149029D01*
X124967990Y-80954413D01*
X124976609Y-80900000D01*
X124133012Y-80900000D01*
X124165925Y-80842993D01*
X124200000Y-80715826D01*
X124200000Y-80584174D01*
X124165925Y-80457007D01*
X124133012Y-80400000D01*
X124976609Y-80400000D01*
X124967990Y-80345586D01*
X124904755Y-80150970D01*
X124894476Y-80130795D01*
X124881580Y-80062125D01*
X124907857Y-79997385D01*
X124964963Y-79957128D01*
X125004961Y-79950500D01*
X129437188Y-79950500D01*
X129437204Y-79950501D01*
X129444800Y-79950501D01*
X129602911Y-79950501D01*
X129602914Y-79950501D01*
X129755642Y-79909577D01*
X129818210Y-79873453D01*
X129892573Y-79830520D01*
X130004377Y-79718716D01*
X130004377Y-79718714D01*
X130014581Y-79708511D01*
X130014584Y-79708506D01*
X135956273Y-73766819D01*
X136017596Y-73733334D01*
X136043954Y-73730500D01*
X137778256Y-73730500D01*
X137845295Y-73750185D01*
X137878575Y-73781616D01*
X137948030Y-73877215D01*
X138092786Y-74021971D01*
X138247749Y-74134556D01*
X138258390Y-74142287D01*
X138330424Y-74178990D01*
X138351629Y-74189795D01*
X138402425Y-74237770D01*
X138419220Y-74305591D01*
X138396682Y-74371726D01*
X138351629Y-74410765D01*
X138258650Y-74458140D01*
X138093105Y-74578417D01*
X138093104Y-74578417D01*
X137948417Y-74723104D01*
X137948417Y-74723105D01*
X137828140Y-74888650D01*
X137735244Y-75070970D01*
X137672009Y-75265586D01*
X137663391Y-75320000D01*
X138506988Y-75320000D01*
X138474075Y-75377007D01*
X138440000Y-75504174D01*
X138440000Y-75635826D01*
X138474075Y-75762993D01*
X138506988Y-75820000D01*
X137663391Y-75820000D01*
X137672009Y-75874413D01*
X137735244Y-76069029D01*
X137828140Y-76251349D01*
X137948417Y-76416894D01*
X137948417Y-76416895D01*
X138093104Y-76561582D01*
X138258652Y-76681861D01*
X138351628Y-76729234D01*
X138402425Y-76777208D01*
X138419220Y-76845029D01*
X138396683Y-76911164D01*
X138351630Y-76950203D01*
X138258388Y-76997713D01*
X138092786Y-77118028D01*
X137948028Y-77262786D01*
X137827715Y-77428386D01*
X137734781Y-77610776D01*
X137671522Y-77805465D01*
X137639500Y-78007648D01*
X137639500Y-78212351D01*
X137671522Y-78414534D01*
X137734781Y-78609223D01*
X137789623Y-78716854D01*
X137827109Y-78790425D01*
X137827715Y-78791613D01*
X137948028Y-78957213D01*
X138092786Y-79101971D01*
X138247749Y-79214556D01*
X138258390Y-79222287D01*
X138349840Y-79268883D01*
X138351080Y-79269515D01*
X138401876Y-79317490D01*
X138418671Y-79385311D01*
X138396134Y-79451446D01*
X138351080Y-79490485D01*
X138258386Y-79537715D01*
X138092786Y-79658028D01*
X137948028Y-79802786D01*
X137827715Y-79968386D01*
X137734781Y-80150776D01*
X137671522Y-80345465D01*
X137639500Y-80547648D01*
X137639500Y-80752351D01*
X137671522Y-80954534D01*
X137734781Y-81149223D01*
X137827715Y-81331613D01*
X137948028Y-81497213D01*
X138092786Y-81641971D01*
X138247749Y-81754556D01*
X138258390Y-81762287D01*
X138349840Y-81808883D01*
X138351080Y-81809515D01*
X138401876Y-81857490D01*
X138418671Y-81925311D01*
X138396134Y-81991446D01*
X138351080Y-82030485D01*
X138258386Y-82077715D01*
X138092786Y-82198028D01*
X137948028Y-82342786D01*
X137827715Y-82508386D01*
X137734781Y-82690776D01*
X137671522Y-82885465D01*
X137639500Y-83087648D01*
X137639500Y-83292351D01*
X137671522Y-83494534D01*
X137734781Y-83689223D01*
X137827715Y-83871613D01*
X137948028Y-84037213D01*
X138092786Y-84181971D01*
X138219091Y-84273735D01*
X138258390Y-84302287D01*
X138349840Y-84348883D01*
X138351080Y-84349515D01*
X138401876Y-84397490D01*
X138418671Y-84465311D01*
X138396134Y-84531446D01*
X138351080Y-84570485D01*
X138258386Y-84617715D01*
X138092786Y-84738028D01*
X137948028Y-84882786D01*
X137827715Y-85048386D01*
X137734781Y-85230776D01*
X137671522Y-85425465D01*
X137641631Y-85614194D01*
X137639500Y-85627648D01*
X137639500Y-85832352D01*
X137639709Y-85833669D01*
X137671522Y-86034534D01*
X137734781Y-86229223D01*
X137788874Y-86335385D01*
X137823032Y-86402424D01*
X137827715Y-86411613D01*
X137948028Y-86577213D01*
X138092786Y-86721971D01*
X138247749Y-86834556D01*
X138258390Y-86842287D01*
X138349840Y-86888883D01*
X138351080Y-86889515D01*
X138401876Y-86937490D01*
X138418671Y-87005311D01*
X138396134Y-87071446D01*
X138351080Y-87110485D01*
X138258386Y-87157715D01*
X138092786Y-87278028D01*
X137948028Y-87422786D01*
X137827715Y-87588386D01*
X137734781Y-87770776D01*
X137671522Y-87965465D01*
X137639500Y-88167648D01*
X137639500Y-88372351D01*
X137671522Y-88574534D01*
X137734781Y-88769223D01*
X137787700Y-88873081D01*
X137814463Y-88925606D01*
X137827715Y-88951613D01*
X137948028Y-89117213D01*
X138092786Y-89261971D01*
X138213715Y-89349829D01*
X138258390Y-89382287D01*
X138349840Y-89428883D01*
X138351080Y-89429515D01*
X138401876Y-89477490D01*
X138418671Y-89545311D01*
X138396134Y-89611446D01*
X138351080Y-89650485D01*
X138258386Y-89697715D01*
X138092786Y-89818028D01*
X137948028Y-89962786D01*
X137827715Y-90128386D01*
X137734781Y-90310776D01*
X137671522Y-90505465D01*
X137639500Y-90707648D01*
X137639500Y-90912351D01*
X137671522Y-91114534D01*
X137734781Y-91309223D01*
X137774839Y-91387840D01*
X137814463Y-91465606D01*
X137827715Y-91491613D01*
X137948028Y-91657213D01*
X138092786Y-91801971D01*
X138247749Y-91914556D01*
X138258390Y-91922287D01*
X138349840Y-91968883D01*
X138351080Y-91969515D01*
X138401876Y-92017490D01*
X138418671Y-92085311D01*
X138396134Y-92151446D01*
X138351080Y-92190485D01*
X138258386Y-92237715D01*
X138092786Y-92358028D01*
X137948028Y-92502786D01*
X137827715Y-92668386D01*
X137734781Y-92850776D01*
X137671522Y-93045465D01*
X137639500Y-93247648D01*
X137639500Y-93452351D01*
X137671522Y-93654534D01*
X137734781Y-93849223D01*
X137798691Y-93974653D01*
X137814463Y-94005606D01*
X137827715Y-94031613D01*
X137948028Y-94197213D01*
X138092786Y-94341971D01*
X138247749Y-94454556D01*
X138258390Y-94462287D01*
X138349840Y-94508883D01*
X138351080Y-94509515D01*
X138401876Y-94557490D01*
X138418671Y-94625311D01*
X138396134Y-94691446D01*
X138351080Y-94730485D01*
X138258386Y-94777715D01*
X138092786Y-94898028D01*
X137948028Y-95042786D01*
X137827715Y-95208386D01*
X137734781Y-95390776D01*
X137671522Y-95585465D01*
X137639500Y-95787648D01*
X137639500Y-95992351D01*
X137671522Y-96194534D01*
X137734781Y-96389223D01*
X137760397Y-96439496D01*
X137814463Y-96545606D01*
X137827715Y-96571613D01*
X137948028Y-96737213D01*
X138092786Y-96881971D01*
X138247749Y-96994556D01*
X138258390Y-97002287D01*
X138349840Y-97048883D01*
X138351080Y-97049515D01*
X138401876Y-97097490D01*
X138418671Y-97165311D01*
X138396134Y-97231446D01*
X138351080Y-97270485D01*
X138258386Y-97317715D01*
X138092786Y-97438028D01*
X137948028Y-97582786D01*
X137827715Y-97748386D01*
X137734781Y-97930776D01*
X137671522Y-98125465D01*
X137648017Y-98273873D01*
X137639500Y-98327648D01*
X137639500Y-98532352D01*
X137641217Y-98543191D01*
X137671522Y-98734534D01*
X137734781Y-98929223D01*
X137798691Y-99054653D01*
X137814463Y-99085606D01*
X137827715Y-99111613D01*
X137948028Y-99277213D01*
X138092786Y-99421971D01*
X138247749Y-99534556D01*
X138258390Y-99542287D01*
X138349840Y-99588883D01*
X138351080Y-99589515D01*
X138401876Y-99637490D01*
X138418671Y-99705311D01*
X138396134Y-99771446D01*
X138351080Y-99810485D01*
X138258386Y-99857715D01*
X138092786Y-99978028D01*
X137948028Y-100122786D01*
X137827715Y-100288386D01*
X137734781Y-100470776D01*
X137671522Y-100665465D01*
X137639500Y-100867648D01*
X137639500Y-101072351D01*
X137671522Y-101274534D01*
X137734781Y-101469223D01*
X137773281Y-101544782D01*
X137814463Y-101625606D01*
X137827715Y-101651613D01*
X137948028Y-101817213D01*
X138092786Y-101961971D01*
X138221361Y-102055384D01*
X138258390Y-102082287D01*
X138349840Y-102128883D01*
X138351080Y-102129515D01*
X138401876Y-102177490D01*
X138418671Y-102245311D01*
X138396134Y-102311446D01*
X138351080Y-102350485D01*
X138258386Y-102397715D01*
X138092786Y-102518028D01*
X137948028Y-102662786D01*
X137827715Y-102828386D01*
X137734781Y-103010776D01*
X137671522Y-103205465D01*
X137639500Y-103407648D01*
X137639500Y-103612351D01*
X137671522Y-103814534D01*
X137734781Y-104009223D01*
X137787776Y-104113229D01*
X137814463Y-104165606D01*
X137827715Y-104191613D01*
X137948028Y-104357213D01*
X138092786Y-104501971D01*
X138247749Y-104614556D01*
X138258390Y-104622287D01*
X138341053Y-104664406D01*
X138351080Y-104669515D01*
X138401876Y-104717490D01*
X138418671Y-104785311D01*
X138396134Y-104851446D01*
X138351080Y-104890485D01*
X138258386Y-104937715D01*
X138092786Y-105058028D01*
X137948028Y-105202786D01*
X137827715Y-105368386D01*
X137734781Y-105550776D01*
X137671522Y-105745465D01*
X137639500Y-105947648D01*
X137639500Y-106152351D01*
X137671522Y-106354534D01*
X137734781Y-106549223D01*
X137827715Y-106731613D01*
X137948028Y-106897213D01*
X138092786Y-107041971D01*
X138247749Y-107154556D01*
X138258390Y-107162287D01*
X138349840Y-107208883D01*
X138351080Y-107209515D01*
X138401876Y-107257490D01*
X138418671Y-107325311D01*
X138396134Y-107391446D01*
X138351080Y-107430485D01*
X138258386Y-107477715D01*
X138092786Y-107598028D01*
X137948028Y-107742786D01*
X137827715Y-107908386D01*
X137734781Y-108090776D01*
X137671522Y-108285465D01*
X137639500Y-108487648D01*
X137639500Y-108692351D01*
X137671522Y-108894534D01*
X137734781Y-109089223D01*
X137827715Y-109271613D01*
X137948028Y-109437213D01*
X138092786Y-109581971D01*
X138223106Y-109676652D01*
X138258390Y-109702287D01*
X138374607Y-109761503D01*
X138440776Y-109795218D01*
X138440778Y-109795218D01*
X138440781Y-109795220D01*
X138545137Y-109829127D01*
X138635465Y-109858477D01*
X138736557Y-109874488D01*
X138837648Y-109890500D01*
X138837649Y-109890500D01*
X139042351Y-109890500D01*
X139042352Y-109890500D01*
X139244534Y-109858477D01*
X139439219Y-109795220D01*
X139621610Y-109702287D01*
X139714590Y-109634732D01*
X139787213Y-109581971D01*
X139787215Y-109581968D01*
X139787219Y-109581966D01*
X139931966Y-109437219D01*
X139931968Y-109437215D01*
X139931971Y-109437213D01*
X139984732Y-109364590D01*
X140052287Y-109271610D01*
X140145220Y-109089219D01*
X140208477Y-108894534D01*
X140240500Y-108692352D01*
X140240500Y-108487648D01*
X140208477Y-108285466D01*
X140145220Y-108090781D01*
X140145218Y-108090778D01*
X140145218Y-108090776D01*
X140110948Y-108023518D01*
X140052287Y-107908390D01*
X140034462Y-107883856D01*
X139931971Y-107742786D01*
X139787213Y-107598028D01*
X139621614Y-107477715D01*
X139615006Y-107474348D01*
X139528917Y-107430483D01*
X139478123Y-107382511D01*
X139461328Y-107314690D01*
X139483865Y-107248555D01*
X139528917Y-107209516D01*
X139621610Y-107162287D01*
X139642770Y-107146913D01*
X139787213Y-107041971D01*
X139787215Y-107041968D01*
X139787219Y-107041966D01*
X139931966Y-106897219D01*
X139931968Y-106897215D01*
X139931971Y-106897213D01*
X139984732Y-106824590D01*
X140052287Y-106731610D01*
X140145220Y-106549219D01*
X140208477Y-106354534D01*
X140240500Y-106152352D01*
X140240500Y-105947648D01*
X140208477Y-105745466D01*
X140192384Y-105695938D01*
X140145218Y-105550776D01*
X140111503Y-105484607D01*
X140052287Y-105368390D01*
X140035933Y-105345881D01*
X139931971Y-105202786D01*
X139787213Y-105058028D01*
X139621614Y-104937715D01*
X139615006Y-104934348D01*
X139528917Y-104890483D01*
X139478123Y-104842511D01*
X139461328Y-104774690D01*
X139483865Y-104708555D01*
X139528917Y-104669516D01*
X139621610Y-104622287D01*
X139642770Y-104606913D01*
X139787213Y-104501971D01*
X139787215Y-104501968D01*
X139787219Y-104501966D01*
X139931966Y-104357219D01*
X139931968Y-104357215D01*
X139931971Y-104357213D01*
X139996267Y-104268716D01*
X140052287Y-104191610D01*
X140145220Y-104009219D01*
X140208477Y-103814534D01*
X140240500Y-103612352D01*
X140240500Y-103407648D01*
X140208477Y-103205465D01*
X140145218Y-103010776D01*
X140104454Y-102930774D01*
X140052287Y-102828390D01*
X140032574Y-102801257D01*
X139931971Y-102662786D01*
X139787213Y-102518028D01*
X139621614Y-102397715D01*
X139615006Y-102394348D01*
X139528917Y-102350483D01*
X139478123Y-102302511D01*
X139461328Y-102234690D01*
X139483865Y-102168555D01*
X139528917Y-102129516D01*
X139621610Y-102082287D01*
X139698589Y-102026359D01*
X139787213Y-101961971D01*
X139787215Y-101961968D01*
X139787219Y-101961966D01*
X139931966Y-101817219D01*
X139931968Y-101817215D01*
X139931971Y-101817213D01*
X140007633Y-101713071D01*
X140052287Y-101651610D01*
X140145220Y-101469219D01*
X140208477Y-101274534D01*
X140240500Y-101072352D01*
X140240500Y-100867648D01*
X140208477Y-100665466D01*
X140145220Y-100470781D01*
X140145218Y-100470778D01*
X140145218Y-100470776D01*
X140111503Y-100404607D01*
X140052287Y-100288390D01*
X140035933Y-100265881D01*
X139931971Y-100122786D01*
X139787213Y-99978028D01*
X139621614Y-99857715D01*
X139615006Y-99854348D01*
X139528917Y-99810483D01*
X139478123Y-99762511D01*
X139461328Y-99694690D01*
X139483865Y-99628555D01*
X139528917Y-99589516D01*
X139621610Y-99542287D01*
X139642770Y-99526913D01*
X139787213Y-99421971D01*
X139787215Y-99421968D01*
X139787219Y-99421966D01*
X139931966Y-99277219D01*
X139931968Y-99277215D01*
X139931971Y-99277213D01*
X140040181Y-99128272D01*
X140052287Y-99111610D01*
X140145220Y-98929219D01*
X140208477Y-98734534D01*
X140240500Y-98532352D01*
X140240500Y-98327648D01*
X140208477Y-98125466D01*
X140145220Y-97930781D01*
X140145218Y-97930778D01*
X140145218Y-97930776D01*
X140111503Y-97864607D01*
X140052287Y-97748390D01*
X140035933Y-97725881D01*
X139931971Y-97582786D01*
X139787213Y-97438028D01*
X139621614Y-97317715D01*
X139615006Y-97314348D01*
X139528917Y-97270483D01*
X139478123Y-97222511D01*
X139461328Y-97154690D01*
X139483865Y-97088555D01*
X139528917Y-97049516D01*
X139621610Y-97002287D01*
X139664592Y-96971059D01*
X139787213Y-96881971D01*
X139787215Y-96881968D01*
X139787219Y-96881966D01*
X139931966Y-96737219D01*
X139931968Y-96737215D01*
X139931971Y-96737213D01*
X139991331Y-96655509D01*
X140052287Y-96571610D01*
X140145220Y-96389219D01*
X140208477Y-96194534D01*
X140240500Y-95992352D01*
X140240500Y-95787648D01*
X140208477Y-95585466D01*
X140145220Y-95390781D01*
X140145218Y-95390778D01*
X140145218Y-95390776D01*
X140111503Y-95324607D01*
X140052287Y-95208390D01*
X140035933Y-95185881D01*
X139931971Y-95042786D01*
X139787213Y-94898028D01*
X139621614Y-94777715D01*
X139615006Y-94774348D01*
X139528917Y-94730483D01*
X139478123Y-94682511D01*
X139461328Y-94614690D01*
X139483865Y-94548555D01*
X139528917Y-94509516D01*
X139621610Y-94462287D01*
X139642770Y-94446913D01*
X139787213Y-94341971D01*
X139787215Y-94341968D01*
X139787219Y-94341966D01*
X139931966Y-94197219D01*
X139931968Y-94197215D01*
X139931971Y-94197213D01*
X140040181Y-94048272D01*
X140052287Y-94031610D01*
X140145220Y-93849219D01*
X140208477Y-93654534D01*
X140240500Y-93452352D01*
X140240500Y-93247648D01*
X140208477Y-93045465D01*
X140145218Y-92850776D01*
X140111503Y-92784607D01*
X140052287Y-92668390D01*
X140035933Y-92645881D01*
X139931971Y-92502786D01*
X139787213Y-92358028D01*
X139621614Y-92237715D01*
X139615006Y-92234348D01*
X139528917Y-92190483D01*
X139478123Y-92142511D01*
X139461328Y-92074690D01*
X139483865Y-92008555D01*
X139528917Y-91969516D01*
X139621610Y-91922287D01*
X139642770Y-91906913D01*
X139787213Y-91801971D01*
X139787215Y-91801968D01*
X139787219Y-91801966D01*
X139931966Y-91657219D01*
X139931968Y-91657215D01*
X139931971Y-91657213D01*
X140040181Y-91508272D01*
X140052287Y-91491610D01*
X140145220Y-91309219D01*
X140208477Y-91114534D01*
X140240500Y-90912352D01*
X140240500Y-90707648D01*
X140208477Y-90505466D01*
X140145220Y-90310781D01*
X140145218Y-90310778D01*
X140145218Y-90310776D01*
X140111503Y-90244607D01*
X140052287Y-90128390D01*
X140035933Y-90105881D01*
X139931971Y-89962786D01*
X139787213Y-89818028D01*
X139621614Y-89697715D01*
X139615006Y-89694348D01*
X139528917Y-89650483D01*
X139478123Y-89602511D01*
X139461328Y-89534690D01*
X139483865Y-89468555D01*
X139528917Y-89429516D01*
X139621610Y-89382287D01*
X139666285Y-89349829D01*
X139787213Y-89261971D01*
X139787215Y-89261968D01*
X139787219Y-89261966D01*
X139931966Y-89117219D01*
X139931968Y-89117215D01*
X139931971Y-89117213D01*
X140015721Y-89001939D01*
X140052287Y-88951610D01*
X140145220Y-88769219D01*
X140208477Y-88574534D01*
X140240500Y-88372352D01*
X140240500Y-88167648D01*
X140208477Y-87965466D01*
X140145220Y-87770781D01*
X140145218Y-87770778D01*
X140145218Y-87770776D01*
X140111503Y-87704607D01*
X140052287Y-87588390D01*
X140009966Y-87530139D01*
X139931971Y-87422786D01*
X139787213Y-87278028D01*
X139621614Y-87157715D01*
X139615006Y-87154348D01*
X139528917Y-87110483D01*
X139478123Y-87062511D01*
X139461328Y-86994690D01*
X139483865Y-86928555D01*
X139528917Y-86889516D01*
X139621610Y-86842287D01*
X139642770Y-86826913D01*
X139787213Y-86721971D01*
X139787215Y-86721968D01*
X139787219Y-86721966D01*
X139931966Y-86577219D01*
X139931968Y-86577215D01*
X139931971Y-86577213D01*
X140040181Y-86428272D01*
X140052287Y-86411610D01*
X140145220Y-86229219D01*
X140208477Y-86034534D01*
X140240500Y-85832352D01*
X140240500Y-85627648D01*
X140238087Y-85612416D01*
X140208477Y-85425465D01*
X140168215Y-85301552D01*
X140145220Y-85230781D01*
X140145218Y-85230778D01*
X140145218Y-85230776D01*
X140111503Y-85164607D01*
X140052287Y-85048390D01*
X140035933Y-85025881D01*
X139931971Y-84882786D01*
X139787213Y-84738028D01*
X139621614Y-84617715D01*
X139615006Y-84614348D01*
X139528917Y-84570483D01*
X139478123Y-84522511D01*
X139461328Y-84454690D01*
X139483865Y-84388555D01*
X139528917Y-84349516D01*
X139621610Y-84302287D01*
X139710898Y-84237416D01*
X139787213Y-84181971D01*
X139787215Y-84181968D01*
X139787219Y-84181966D01*
X139931966Y-84037219D01*
X139931968Y-84037215D01*
X139931971Y-84037213D01*
X139998281Y-83945943D01*
X140052287Y-83871610D01*
X140145220Y-83689219D01*
X140208477Y-83494534D01*
X140240500Y-83292352D01*
X140240500Y-83087648D01*
X140208477Y-82885466D01*
X140145220Y-82690781D01*
X140145218Y-82690778D01*
X140145218Y-82690776D01*
X140087744Y-82577978D01*
X140052287Y-82508390D01*
X140044556Y-82497749D01*
X139931971Y-82342786D01*
X139787213Y-82198028D01*
X139621614Y-82077715D01*
X139615006Y-82074348D01*
X139528917Y-82030483D01*
X139478123Y-81982511D01*
X139461328Y-81914690D01*
X139483865Y-81848555D01*
X139528917Y-81809516D01*
X139621610Y-81762287D01*
X139720098Y-81690732D01*
X139787213Y-81641971D01*
X139787215Y-81641968D01*
X139787219Y-81641966D01*
X139931966Y-81497219D01*
X139931968Y-81497215D01*
X139931971Y-81497213D01*
X140002962Y-81399500D01*
X140052287Y-81331610D01*
X140145220Y-81149219D01*
X140208477Y-80954534D01*
X140240500Y-80752352D01*
X140240500Y-80547648D01*
X140218733Y-80410221D01*
X140208477Y-80345465D01*
X140145218Y-80150776D01*
X140094124Y-80050500D01*
X140052287Y-79968390D01*
X140039289Y-79950500D01*
X139931971Y-79802786D01*
X139787213Y-79658028D01*
X139621614Y-79537715D01*
X139615006Y-79534348D01*
X139528917Y-79490483D01*
X139478123Y-79442511D01*
X139461328Y-79374690D01*
X139483865Y-79308555D01*
X139528917Y-79269516D01*
X139621610Y-79222287D01*
X139786918Y-79102185D01*
X139787213Y-79101971D01*
X139787215Y-79101968D01*
X139787219Y-79101966D01*
X139931966Y-78957219D01*
X139931968Y-78957215D01*
X139931971Y-78957213D01*
X139995711Y-78869481D01*
X140052287Y-78791610D01*
X140145220Y-78609219D01*
X140208477Y-78414534D01*
X140240500Y-78212352D01*
X140240500Y-78007648D01*
X140208477Y-77805466D01*
X140145220Y-77610781D01*
X140145218Y-77610778D01*
X140145218Y-77610776D01*
X140111503Y-77544607D01*
X140052287Y-77428390D01*
X139997885Y-77353511D01*
X139931971Y-77262786D01*
X139787213Y-77118028D01*
X139621611Y-76997713D01*
X139528369Y-76950203D01*
X139477574Y-76902229D01*
X139460779Y-76834407D01*
X139483317Y-76768273D01*
X139528371Y-76729234D01*
X139621347Y-76681861D01*
X139786894Y-76561582D01*
X139786895Y-76561582D01*
X139931582Y-76416895D01*
X139931582Y-76416894D01*
X140051859Y-76251349D01*
X140144755Y-76069029D01*
X140207990Y-75874413D01*
X140216609Y-75820000D01*
X139373012Y-75820000D01*
X139405925Y-75762993D01*
X139440000Y-75635826D01*
X139440000Y-75504174D01*
X139405925Y-75377007D01*
X139373012Y-75320000D01*
X140216609Y-75320000D01*
X140207990Y-75265586D01*
X140144755Y-75070970D01*
X140051859Y-74888650D01*
X139931582Y-74723105D01*
X139931582Y-74723104D01*
X139786895Y-74578417D01*
X139621349Y-74458140D01*
X139528370Y-74410765D01*
X139477574Y-74362790D01*
X139460779Y-74294969D01*
X139483316Y-74228835D01*
X139528370Y-74189795D01*
X139532788Y-74187544D01*
X139621610Y-74142287D01*
X139642770Y-74126913D01*
X139787213Y-74021971D01*
X139787215Y-74021968D01*
X139787219Y-74021966D01*
X139931966Y-73877219D01*
X139931968Y-73877215D01*
X139931971Y-73877213D01*
X140001425Y-73781616D01*
X140052287Y-73711610D01*
X140145220Y-73529219D01*
X140208477Y-73334534D01*
X140240500Y-73132352D01*
X140240500Y-72927648D01*
X140219640Y-72795943D01*
X140208477Y-72725465D01*
X140158100Y-72570423D01*
X140145220Y-72530781D01*
X140145218Y-72530778D01*
X140145218Y-72530776D01*
X140101839Y-72445641D01*
X140052287Y-72348390D01*
X140044556Y-72337749D01*
X139931971Y-72182786D01*
X139787213Y-72038028D01*
X139621613Y-71917715D01*
X139621612Y-71917714D01*
X139621610Y-71917713D01*
X139564653Y-71888691D01*
X139439223Y-71824781D01*
X139244534Y-71761522D01*
X139069995Y-71733878D01*
X139042352Y-71729500D01*
X138837648Y-71729500D01*
X138813329Y-71733351D01*
X138635465Y-71761522D01*
X138440776Y-71824781D01*
X138258386Y-71917715D01*
X138092786Y-72038028D01*
X137948028Y-72182786D01*
X137827715Y-72348386D01*
X137769930Y-72461795D01*
X137721955Y-72512591D01*
X137659445Y-72529500D01*
X135664797Y-72529500D01*
X135623876Y-72540464D01*
X135623876Y-72540465D01*
X135586608Y-72550451D01*
X135512071Y-72570423D01*
X135512066Y-72570426D01*
X135375147Y-72649475D01*
X135375139Y-72649481D01*
X135263335Y-72761286D01*
X129311441Y-78713181D01*
X129250118Y-78746666D01*
X129223760Y-78749500D01*
X125030311Y-78749500D01*
X124963272Y-78729815D01*
X124917517Y-78677011D01*
X124907573Y-78607853D01*
X124912378Y-78587187D01*
X124968477Y-78414534D01*
X125000500Y-78212352D01*
X125000500Y-78007648D01*
X124968477Y-77805466D01*
X124905220Y-77610781D01*
X124905218Y-77610778D01*
X124905218Y-77610776D01*
X124871503Y-77544607D01*
X124812287Y-77428390D01*
X124757885Y-77353511D01*
X124691971Y-77262786D01*
X124547213Y-77118028D01*
X124381614Y-76997715D01*
X124348153Y-76980666D01*
X124288917Y-76950483D01*
X124238123Y-76902511D01*
X124221328Y-76834690D01*
X124243865Y-76768555D01*
X124288917Y-76729516D01*
X124381610Y-76682287D01*
X124473966Y-76615187D01*
X124547213Y-76561971D01*
X124547215Y-76561968D01*
X124547219Y-76561966D01*
X124691966Y-76417219D01*
X124691968Y-76417215D01*
X124691971Y-76417213D01*
X124744732Y-76344590D01*
X124812287Y-76251610D01*
X124905220Y-76069219D01*
X124968477Y-75874534D01*
X125000500Y-75672352D01*
X125000500Y-75467648D01*
X124986144Y-75377007D01*
X124968477Y-75265465D01*
X124905218Y-75070776D01*
X124812419Y-74888650D01*
X124812287Y-74888390D01*
X124804556Y-74877749D01*
X124691971Y-74722786D01*
X124547219Y-74578034D01*
X124510930Y-74551669D01*
X124468264Y-74496339D01*
X124462285Y-74426726D01*
X124494890Y-74364931D01*
X124555728Y-74330573D01*
X124570562Y-74328060D01*
X124607483Y-74324091D01*
X124742328Y-74273797D01*
X124742327Y-74273797D01*
X124742331Y-74273796D01*
X124857546Y-74187546D01*
X124943796Y-74072331D01*
X124994091Y-73937483D01*
X125000500Y-73877873D01*
X125000499Y-72182128D01*
X124994091Y-72122517D01*
X124949511Y-72002993D01*
X124943797Y-71987671D01*
X124943793Y-71987664D01*
X124857547Y-71872455D01*
X124857544Y-71872452D01*
X124742335Y-71786206D01*
X124742328Y-71786202D01*
X124607482Y-71735908D01*
X124607483Y-71735908D01*
X124547883Y-71729501D01*
X124547881Y-71729500D01*
X124547873Y-71729500D01*
X124547864Y-71729500D01*
X122852129Y-71729500D01*
X122852123Y-71729501D01*
X122792516Y-71735908D01*
X122657671Y-71786202D01*
X122657664Y-71786206D01*
X122542455Y-71872452D01*
X122542452Y-71872455D01*
X122456206Y-71987664D01*
X122456202Y-71987671D01*
X122405908Y-72122517D01*
X122399501Y-72182116D01*
X122399501Y-72182123D01*
X122399500Y-72182135D01*
X122399500Y-73877870D01*
X122399501Y-73877876D01*
X122405908Y-73937483D01*
X122456202Y-74072328D01*
X122456206Y-74072335D01*
X122542452Y-74187544D01*
X122542455Y-74187547D01*
X122657664Y-74273793D01*
X122657671Y-74273797D01*
X122702618Y-74290561D01*
X122792517Y-74324091D01*
X122829441Y-74328060D01*
X122893989Y-74354796D01*
X122933838Y-74412188D01*
X122936333Y-74482013D01*
X122900681Y-74542102D01*
X122889071Y-74551666D01*
X122852784Y-74578030D01*
X122708028Y-74722786D01*
X122587715Y-74888386D01*
X122494781Y-75070776D01*
X122431522Y-75265465D01*
X122399500Y-75467648D01*
X122399500Y-75672351D01*
X122431522Y-75874534D01*
X122494781Y-76069223D01*
X122587715Y-76251613D01*
X122708028Y-76417213D01*
X122852786Y-76561971D01*
X122945167Y-76629088D01*
X123018390Y-76682287D01*
X123109840Y-76728883D01*
X123111080Y-76729515D01*
X123161876Y-76777490D01*
X123178671Y-76845311D01*
X123156134Y-76911446D01*
X123111080Y-76950485D01*
X123018386Y-76997715D01*
X122852786Y-77118028D01*
X122708028Y-77262786D01*
X122587715Y-77428386D01*
X122494781Y-77610776D01*
X122431522Y-77805465D01*
X122399500Y-78007648D01*
X122399500Y-78212351D01*
X122431522Y-78414534D01*
X122443182Y-78450418D01*
X122487620Y-78587183D01*
X122489615Y-78657021D01*
X122453535Y-78716854D01*
X122390835Y-78747683D01*
X122369689Y-78749499D01*
X122270943Y-78749499D01*
X122163587Y-78778265D01*
X122118210Y-78790424D01*
X122118209Y-78790425D01*
X122068096Y-78819359D01*
X122068095Y-78819360D01*
X122024689Y-78844420D01*
X121981285Y-78869479D01*
X121981282Y-78869481D01*
X120619481Y-80231282D01*
X120619479Y-80231285D01*
X120594420Y-80274689D01*
X120570799Y-80315604D01*
X120569361Y-80318094D01*
X120569359Y-80318096D01*
X120540425Y-80368209D01*
X120540424Y-80368210D01*
X120531906Y-80400000D01*
X120499499Y-80520943D01*
X120499499Y-80520945D01*
X120499499Y-80689046D01*
X120499500Y-80689059D01*
X120499500Y-86335385D01*
X120479815Y-86402424D01*
X120463181Y-86423066D01*
X119723067Y-87163181D01*
X119661744Y-87196666D01*
X119635386Y-87199500D01*
X117120942Y-87199500D01*
X116968214Y-87240423D01*
X116968213Y-87240424D01*
X116948546Y-87251777D01*
X116948547Y-87251778D01*
X116831287Y-87319477D01*
X116831282Y-87319481D01*
X115519481Y-88631282D01*
X115519479Y-88631285D01*
X115469361Y-88718094D01*
X115469359Y-88718096D01*
X115440425Y-88768209D01*
X115440424Y-88768210D01*
X115440423Y-88768215D01*
X115399499Y-88920943D01*
X115399499Y-88920945D01*
X115399499Y-89089046D01*
X115399500Y-89089059D01*
X115399500Y-91499902D01*
X115379815Y-91566941D01*
X115363181Y-91587583D01*
X114862584Y-92088181D01*
X114801261Y-92121666D01*
X114774903Y-92124500D01*
X113975931Y-92124500D01*
X113908892Y-92104815D01*
X113863137Y-92052011D01*
X113852215Y-92008885D01*
X113851949Y-92004969D01*
X113851949Y-92004967D01*
X113843680Y-91971716D01*
X113805990Y-91820162D01*
X113725178Y-91657219D01*
X113721381Y-91649562D01*
X113721379Y-91649559D01*
X113602073Y-91501135D01*
X113602071Y-91501133D01*
X113532461Y-91445179D01*
X113492545Y-91387840D01*
X113489965Y-91318018D01*
X113525543Y-91257885D01*
X113532464Y-91251888D01*
X113601715Y-91196222D01*
X113601716Y-91196221D01*
X113720956Y-91047880D01*
X113720958Y-91047877D01*
X113805517Y-90877378D01*
X113851451Y-90692679D01*
X113854349Y-90649951D01*
X113854349Y-90448855D01*
X110854349Y-90448855D01*
X110854349Y-90649951D01*
X110857246Y-90692679D01*
X110903180Y-90877378D01*
X110987739Y-91047877D01*
X110987741Y-91047880D01*
X111106979Y-91196219D01*
X111176233Y-91251886D01*
X111216152Y-91309230D01*
X111218732Y-91379052D01*
X111183154Y-91439184D01*
X111176234Y-91445181D01*
X111141027Y-91473480D01*
X111108159Y-91499902D01*
X111106625Y-91501135D01*
X110987318Y-91649559D01*
X110987316Y-91649562D01*
X110902709Y-91820157D01*
X110856749Y-92004962D01*
X110853849Y-92047734D01*
X110853849Y-92949977D01*
X110853850Y-92949980D01*
X110856748Y-92992741D01*
X110856748Y-92992742D01*
X110902709Y-93177551D01*
X110987316Y-93348147D01*
X110987318Y-93348150D01*
X111106626Y-93496576D01*
X111106627Y-93496577D01*
X111255053Y-93615885D01*
X111255056Y-93615887D01*
X111425651Y-93700494D01*
X111425652Y-93700494D01*
X111425656Y-93700496D01*
X111610460Y-93746455D01*
X111638240Y-93748338D01*
X111703792Y-93772513D01*
X111745870Y-93828291D01*
X111753849Y-93872054D01*
X111753849Y-96249355D01*
X111734164Y-96316394D01*
X111681360Y-96362149D01*
X111629851Y-96373355D01*
X111579348Y-96373355D01*
X111579329Y-96373356D01*
X111476552Y-96383855D01*
X111476549Y-96383856D01*
X111310017Y-96439040D01*
X111310012Y-96439042D01*
X111160691Y-96531144D01*
X111036638Y-96655197D01*
X110944536Y-96804518D01*
X110944534Y-96804523D01*
X110944464Y-96804735D01*
X110889350Y-96971058D01*
X110889350Y-96971059D01*
X110889349Y-96971059D01*
X110878849Y-97073838D01*
X110878849Y-98273856D01*
X110878850Y-98273873D01*
X110889349Y-98376651D01*
X110889350Y-98376654D01*
X110936678Y-98519478D01*
X110944535Y-98543189D01*
X111036637Y-98692511D01*
X111160693Y-98816567D01*
X111310015Y-98908669D01*
X111476552Y-98963854D01*
X111579340Y-98974355D01*
X113779357Y-98974354D01*
X113882146Y-98963854D01*
X114048683Y-98908669D01*
X114198005Y-98816567D01*
X114322061Y-98692511D01*
X114374104Y-98608134D01*
X114426050Y-98561411D01*
X114495013Y-98550188D01*
X114559095Y-98578031D01*
X114585180Y-98608135D01*
X114637029Y-98692195D01*
X114637032Y-98692199D01*
X114761003Y-98816170D01*
X114910224Y-98908211D01*
X114910229Y-98908213D01*
X115076651Y-98963360D01*
X115076658Y-98963361D01*
X115179368Y-98973854D01*
X116029348Y-98973854D01*
X116529349Y-98973854D01*
X117379321Y-98973854D01*
X117379335Y-98973853D01*
X117482046Y-98963360D01*
X117648468Y-98908213D01*
X117648473Y-98908211D01*
X117797694Y-98816170D01*
X117921664Y-98692200D01*
X118013705Y-98542979D01*
X118013707Y-98542974D01*
X118068854Y-98376552D01*
X118068855Y-98376545D01*
X118079348Y-98273841D01*
X118079349Y-98273828D01*
X118079349Y-97923855D01*
X116529349Y-97923855D01*
X116529349Y-98973854D01*
X116029348Y-98973854D01*
X116029349Y-98973853D01*
X116029349Y-97423855D01*
X116529349Y-97423855D01*
X118079348Y-97423855D01*
X118079348Y-97073883D01*
X118079347Y-97073868D01*
X118068854Y-96971157D01*
X118013707Y-96804735D01*
X118013705Y-96804730D01*
X117921664Y-96655509D01*
X117797694Y-96531539D01*
X117648473Y-96439498D01*
X117648468Y-96439496D01*
X117482046Y-96384349D01*
X117482039Y-96384348D01*
X117379335Y-96373855D01*
X116529349Y-96373855D01*
X116529349Y-97423855D01*
X116029349Y-97423855D01*
X116029349Y-96373855D01*
X115179377Y-96373855D01*
X115179361Y-96373856D01*
X115076651Y-96384349D01*
X114910229Y-96439496D01*
X114910224Y-96439498D01*
X114761003Y-96531539D01*
X114637031Y-96655511D01*
X114585180Y-96739575D01*
X114533232Y-96786299D01*
X114464269Y-96797520D01*
X114400187Y-96769677D01*
X114374103Y-96739573D01*
X114322061Y-96655199D01*
X114198006Y-96531144D01*
X114198005Y-96531143D01*
X114048683Y-96439041D01*
X113882146Y-96383856D01*
X113882144Y-96383855D01*
X113779365Y-96373355D01*
X113779358Y-96373355D01*
X113078849Y-96373355D01*
X113011810Y-96353670D01*
X112966055Y-96300866D01*
X112954849Y-96249355D01*
X112954849Y-93872053D01*
X112974534Y-93805014D01*
X113027338Y-93759259D01*
X113070464Y-93748337D01*
X113098238Y-93746455D01*
X113283042Y-93700496D01*
X113453645Y-93615885D01*
X113602071Y-93496577D01*
X113702359Y-93371813D01*
X113759702Y-93331894D01*
X113799006Y-93325500D01*
X114988331Y-93325500D01*
X114988347Y-93325501D01*
X114995943Y-93325501D01*
X115154054Y-93325501D01*
X115154057Y-93325501D01*
X115306785Y-93284577D01*
X115356904Y-93255639D01*
X115443716Y-93205520D01*
X115555520Y-93093716D01*
X115555520Y-93093714D01*
X115565728Y-93083507D01*
X115565729Y-93083504D01*
X116480520Y-92168716D01*
X116559577Y-92031784D01*
X116600501Y-91879057D01*
X116600501Y-91720942D01*
X116600501Y-91713347D01*
X116600500Y-91713329D01*
X116600500Y-91656855D01*
X117154349Y-91656855D01*
X117164957Y-91776180D01*
X117164958Y-91776183D01*
X117220906Y-91971716D01*
X117315070Y-92151984D01*
X117443595Y-92309608D01*
X117601219Y-92438133D01*
X117781487Y-92532297D01*
X117977020Y-92588245D01*
X117977023Y-92588246D01*
X118096348Y-92598854D01*
X118096351Y-92598855D01*
X118404349Y-92598855D01*
X118904349Y-92598855D01*
X119212347Y-92598855D01*
X119212349Y-92598854D01*
X119331674Y-92588246D01*
X119331677Y-92588245D01*
X119527210Y-92532297D01*
X119707478Y-92438133D01*
X119865102Y-92309608D01*
X119993627Y-92151984D01*
X120087791Y-91971716D01*
X120143739Y-91776183D01*
X120143740Y-91776180D01*
X120154348Y-91656855D01*
X120154349Y-91656853D01*
X120154349Y-90448855D01*
X118904349Y-90448855D01*
X118904349Y-92598855D01*
X118404349Y-92598855D01*
X118404349Y-90448855D01*
X117154349Y-90448855D01*
X117154349Y-91656855D01*
X116600500Y-91656855D01*
X116600500Y-89300096D01*
X116620185Y-89233057D01*
X116636814Y-89212420D01*
X116942670Y-88906564D01*
X117003991Y-88873081D01*
X117073683Y-88878065D01*
X117129616Y-88919937D01*
X117154033Y-88985401D01*
X117154349Y-88994247D01*
X117154349Y-89948855D01*
X120154349Y-89948855D01*
X120154349Y-88740857D01*
X120154348Y-88740854D01*
X120143740Y-88621529D01*
X120109385Y-88501461D01*
X120109584Y-88472605D01*
X120106841Y-88443885D01*
X120109823Y-88438100D01*
X120109868Y-88431592D01*
X120125637Y-88407424D01*
X120138856Y-88381782D01*
X120146070Y-88376108D01*
X120148048Y-88373077D01*
X120166598Y-88359964D01*
X120217382Y-88330642D01*
X120217387Y-88330639D01*
X120304199Y-88280520D01*
X120416003Y-88168716D01*
X120416003Y-88168714D01*
X120426211Y-88158507D01*
X120426212Y-88158504D01*
X121580520Y-87004199D01*
X121659577Y-86867267D01*
X121700501Y-86714540D01*
X121700501Y-86556425D01*
X121700501Y-86548830D01*
X121700500Y-86548812D01*
X121700500Y-80900097D01*
X121720185Y-80833058D01*
X121736819Y-80812416D01*
X121970180Y-80579055D01*
X122205131Y-80344103D01*
X122266452Y-80310620D01*
X122336143Y-80315604D01*
X122392077Y-80357475D01*
X122395958Y-80367881D01*
X122423390Y-80400000D01*
X123266988Y-80400000D01*
X123234075Y-80457007D01*
X123200000Y-80584174D01*
X123200000Y-80715826D01*
X123234075Y-80842993D01*
X123266988Y-80900000D01*
X122423391Y-80900000D01*
X122432009Y-80954413D01*
X122495244Y-81149029D01*
X122588140Y-81331349D01*
X122708417Y-81496894D01*
X122708417Y-81496895D01*
X122853104Y-81641582D01*
X123018652Y-81761861D01*
X123111628Y-81809234D01*
X123162425Y-81857208D01*
X123179220Y-81925029D01*
X123156683Y-81991164D01*
X123111630Y-82030203D01*
X123018388Y-82077713D01*
X122852786Y-82198028D01*
X122708028Y-82342786D01*
X122587715Y-82508386D01*
X122494781Y-82690776D01*
X122431522Y-82885465D01*
X122399500Y-83087648D01*
X122399500Y-83292351D01*
X122431522Y-83494534D01*
X122494781Y-83689223D01*
X122587715Y-83871613D01*
X122708028Y-84037213D01*
X122852786Y-84181971D01*
X122979091Y-84273735D01*
X123018390Y-84302287D01*
X123109840Y-84348883D01*
X123111080Y-84349515D01*
X123161876Y-84397490D01*
X123178671Y-84465311D01*
X123156134Y-84531446D01*
X123111080Y-84570485D01*
X123018386Y-84617715D01*
X122852786Y-84738028D01*
X122708028Y-84882786D01*
X122587715Y-85048386D01*
X122494781Y-85230776D01*
X122431522Y-85425465D01*
X122401631Y-85614194D01*
X122399500Y-85627648D01*
X122399500Y-85832352D01*
X122399709Y-85833669D01*
X122431522Y-86034534D01*
X122494781Y-86229223D01*
X122548874Y-86335385D01*
X122583032Y-86402424D01*
X122587715Y-86411613D01*
X122708028Y-86577213D01*
X122852786Y-86721971D01*
X123007749Y-86834556D01*
X123018390Y-86842287D01*
X123109840Y-86888883D01*
X123111080Y-86889515D01*
X123161876Y-86937490D01*
X123178671Y-87005311D01*
X123156134Y-87071446D01*
X123111080Y-87110485D01*
X123018386Y-87157715D01*
X122852786Y-87278028D01*
X122708028Y-87422786D01*
X122587715Y-87588386D01*
X122494781Y-87770776D01*
X122431522Y-87965465D01*
X122399500Y-88167648D01*
X122399500Y-88372351D01*
X122431522Y-88574534D01*
X122494781Y-88769223D01*
X122547700Y-88873081D01*
X122574463Y-88925606D01*
X122587715Y-88951613D01*
X122708028Y-89117213D01*
X122852786Y-89261971D01*
X122973715Y-89349829D01*
X123018390Y-89382287D01*
X123109840Y-89428883D01*
X123111080Y-89429515D01*
X123161876Y-89477490D01*
X123178671Y-89545311D01*
X123156134Y-89611446D01*
X123111080Y-89650485D01*
X123018386Y-89697715D01*
X122852786Y-89818028D01*
X122708028Y-89962786D01*
X122587715Y-90128386D01*
X122494781Y-90310776D01*
X122431522Y-90505465D01*
X122399500Y-90707648D01*
X122399500Y-90912351D01*
X122431522Y-91114534D01*
X122494781Y-91309223D01*
X122534839Y-91387840D01*
X122574463Y-91465606D01*
X122587715Y-91491613D01*
X122708028Y-91657213D01*
X122852786Y-91801971D01*
X123007749Y-91914556D01*
X123018390Y-91922287D01*
X123109840Y-91968883D01*
X123111080Y-91969515D01*
X123161876Y-92017490D01*
X123178671Y-92085311D01*
X123156134Y-92151446D01*
X123111080Y-92190485D01*
X123018386Y-92237715D01*
X122852786Y-92358028D01*
X122708028Y-92502786D01*
X122587715Y-92668386D01*
X122494781Y-92850776D01*
X122431522Y-93045465D01*
X122399500Y-93247648D01*
X122399500Y-93452351D01*
X122431522Y-93654534D01*
X122494781Y-93849223D01*
X122558691Y-93974653D01*
X122574463Y-94005606D01*
X122587715Y-94031613D01*
X122708028Y-94197213D01*
X122852786Y-94341971D01*
X123007749Y-94454556D01*
X123018390Y-94462287D01*
X123109840Y-94508883D01*
X123111080Y-94509515D01*
X123161876Y-94557490D01*
X123178671Y-94625311D01*
X123156134Y-94691446D01*
X123111080Y-94730485D01*
X123018386Y-94777715D01*
X122852786Y-94898028D01*
X122708028Y-95042786D01*
X122587715Y-95208385D01*
X122580883Y-95221795D01*
X122532909Y-95272591D01*
X122470398Y-95289500D01*
X122389057Y-95289500D01*
X122230943Y-95289500D01*
X122078215Y-95330423D01*
X122078214Y-95330423D01*
X122078212Y-95330424D01*
X122078209Y-95330425D01*
X122028096Y-95359359D01*
X122028095Y-95359360D01*
X121984689Y-95384420D01*
X121941285Y-95409479D01*
X121941282Y-95409481D01*
X118719479Y-98631284D01*
X118694633Y-98674320D01*
X118684131Y-98692511D01*
X118640423Y-98768215D01*
X118599499Y-98920943D01*
X118599499Y-98920945D01*
X118599499Y-99089046D01*
X118599500Y-99089059D01*
X118599500Y-100986711D01*
X118579815Y-101053750D01*
X118527011Y-101099505D01*
X118514508Y-101104415D01*
X118473208Y-101118101D01*
X118410017Y-101139040D01*
X118410012Y-101139042D01*
X118260691Y-101231144D01*
X118136638Y-101355197D01*
X118044536Y-101504518D01*
X118044534Y-101504523D01*
X118021726Y-101573355D01*
X117989350Y-101671058D01*
X117989350Y-101671059D01*
X117989349Y-101671059D01*
X117978849Y-101773838D01*
X117978849Y-102249758D01*
X117959164Y-102316797D01*
X117906360Y-102362552D01*
X117837202Y-102372496D01*
X117773646Y-102343471D01*
X117767168Y-102337439D01*
X117566168Y-102136439D01*
X117532683Y-102075116D01*
X117529849Y-102048758D01*
X117529849Y-101508168D01*
X117529848Y-101508153D01*
X117529562Y-101504523D01*
X117526947Y-101471286D01*
X117526346Y-101469219D01*
X117481094Y-101313461D01*
X117481093Y-101313458D01*
X117481093Y-101313457D01*
X117397430Y-101171990D01*
X117397428Y-101171988D01*
X117397425Y-101171984D01*
X117281219Y-101055778D01*
X117281211Y-101055772D01*
X117203030Y-101009536D01*
X117139747Y-100972111D01*
X117139746Y-100972110D01*
X117139745Y-100972110D01*
X117139742Y-100972109D01*
X116981922Y-100926257D01*
X116981916Y-100926256D01*
X116945050Y-100923355D01*
X116945043Y-100923355D01*
X116513655Y-100923355D01*
X116513647Y-100923355D01*
X116476781Y-100926256D01*
X116476775Y-100926257D01*
X116318955Y-100972109D01*
X116318952Y-100972110D01*
X116177486Y-101055772D01*
X116177478Y-101055778D01*
X116061272Y-101171984D01*
X116061266Y-101171992D01*
X115977604Y-101313458D01*
X115977603Y-101313461D01*
X115931751Y-101471281D01*
X115931750Y-101471287D01*
X115928849Y-101508153D01*
X115928849Y-102674355D01*
X115926298Y-102683040D01*
X115927587Y-102692002D01*
X115916608Y-102716042D01*
X115909164Y-102741394D01*
X115902323Y-102747321D01*
X115898562Y-102755558D01*
X115876327Y-102769847D01*
X115856360Y-102787149D01*
X115845845Y-102789436D01*
X115839784Y-102793332D01*
X115804849Y-102798355D01*
X115753349Y-102798355D01*
X115686310Y-102778670D01*
X115640555Y-102725866D01*
X115629349Y-102674355D01*
X115629349Y-102411355D01*
X114029349Y-102411355D01*
X114029349Y-102814504D01*
X114032248Y-102851344D01*
X114032249Y-102851350D01*
X114078065Y-103009048D01*
X114078066Y-103009051D01*
X114161663Y-103150407D01*
X114161670Y-103150416D01*
X114235428Y-103224174D01*
X114268913Y-103285497D01*
X114263929Y-103355189D01*
X114222057Y-103411122D01*
X114156593Y-103435539D01*
X114147747Y-103435855D01*
X113241017Y-103435855D01*
X113173978Y-103416170D01*
X113149093Y-103395078D01*
X113141454Y-103386640D01*
X113122061Y-103355199D01*
X113026211Y-103259349D01*
X113024155Y-103257078D01*
X113010234Y-103228271D01*
X112994913Y-103200213D01*
X112995140Y-103197037D01*
X112993754Y-103194169D01*
X112997616Y-103162416D01*
X112999897Y-103130521D01*
X113001868Y-103127453D01*
X113002190Y-103124810D01*
X113008315Y-103117421D01*
X113028398Y-103086174D01*
X113067582Y-103046990D01*
X113122061Y-102992511D01*
X113214163Y-102843189D01*
X113269348Y-102676652D01*
X113279849Y-102573864D01*
X113279848Y-101773847D01*
X113269348Y-101671058D01*
X113215384Y-101508205D01*
X114029349Y-101508205D01*
X114029349Y-101911355D01*
X114579349Y-101911355D01*
X115079349Y-101911355D01*
X115629349Y-101911355D01*
X115629349Y-101508220D01*
X115629348Y-101508205D01*
X115626449Y-101471365D01*
X115626448Y-101471359D01*
X115580632Y-101313661D01*
X115580631Y-101313658D01*
X115497034Y-101172302D01*
X115497027Y-101172293D01*
X115380910Y-101056176D01*
X115380901Y-101056169D01*
X115239545Y-100972572D01*
X115239542Y-100972571D01*
X115081843Y-100926755D01*
X115081846Y-100926755D01*
X115079349Y-100926558D01*
X115079349Y-101911355D01*
X114579349Y-101911355D01*
X114579349Y-100926558D01*
X114576852Y-100926755D01*
X114419155Y-100972571D01*
X114419152Y-100972572D01*
X114277796Y-101056169D01*
X114277787Y-101056176D01*
X114161670Y-101172293D01*
X114161663Y-101172302D01*
X114078066Y-101313658D01*
X114078065Y-101313661D01*
X114032249Y-101471359D01*
X114032248Y-101471365D01*
X114029349Y-101508205D01*
X113215384Y-101508205D01*
X113214163Y-101504521D01*
X113122061Y-101355199D01*
X112998005Y-101231143D01*
X112848683Y-101139041D01*
X112682146Y-101083856D01*
X112682144Y-101083855D01*
X112579359Y-101073355D01*
X111579347Y-101073355D01*
X111579329Y-101073356D01*
X111476552Y-101083855D01*
X111476549Y-101083856D01*
X111310017Y-101139040D01*
X111310012Y-101139042D01*
X111160691Y-101231144D01*
X111036638Y-101355197D01*
X111036637Y-101355199D01*
X110964990Y-101471359D01*
X110940744Y-101510668D01*
X110938949Y-101509561D01*
X110899662Y-101554192D01*
X110833441Y-101573355D01*
X109473952Y-101573355D01*
X109406913Y-101553670D01*
X109386271Y-101537036D01*
X109136819Y-101287584D01*
X109103334Y-101226261D01*
X109100500Y-101199903D01*
X109100500Y-89053301D01*
X109120185Y-88986262D01*
X109136819Y-88965620D01*
X109566765Y-88535674D01*
X109628088Y-88502189D01*
X109654446Y-88499355D01*
X110787433Y-88499355D01*
X110854472Y-88519040D01*
X110900227Y-88571844D01*
X110901923Y-88575967D01*
X110987316Y-88748147D01*
X110987318Y-88748150D01*
X111106626Y-88896576D01*
X111106627Y-88896577D01*
X111176233Y-88952528D01*
X111216152Y-89009871D01*
X111218732Y-89079693D01*
X111183153Y-89139826D01*
X111176234Y-89145822D01*
X111106980Y-89201490D01*
X110987741Y-89349829D01*
X110987739Y-89349832D01*
X110903180Y-89520331D01*
X110857246Y-89705030D01*
X110854349Y-89747758D01*
X110854349Y-89948855D01*
X113854349Y-89948855D01*
X113854349Y-89747758D01*
X113851451Y-89705030D01*
X113805517Y-89520331D01*
X113720958Y-89349832D01*
X113720956Y-89349829D01*
X113601716Y-89201488D01*
X113601715Y-89201487D01*
X113532464Y-89145822D01*
X113492545Y-89088479D01*
X113489965Y-89018657D01*
X113525543Y-88958524D01*
X113532438Y-88952549D01*
X113602071Y-88896577D01*
X113721379Y-88748151D01*
X113805990Y-88577548D01*
X113851949Y-88392744D01*
X113854849Y-88349978D01*
X113854848Y-87447733D01*
X113851949Y-87404966D01*
X113805990Y-87220162D01*
X113775018Y-87157713D01*
X113721381Y-87049562D01*
X113721379Y-87049559D01*
X113602071Y-86901133D01*
X113602070Y-86901132D01*
X113453644Y-86781824D01*
X113453641Y-86781822D01*
X113283046Y-86697215D01*
X113098241Y-86651255D01*
X113072578Y-86649515D01*
X113055472Y-86648355D01*
X113055470Y-86648355D01*
X112666349Y-86648355D01*
X112599310Y-86628670D01*
X112553555Y-86575866D01*
X112542349Y-86524355D01*
X112542349Y-85937622D01*
X112562034Y-85870583D01*
X112601250Y-85832085D01*
X112748005Y-85741567D01*
X112872061Y-85617511D01*
X112874101Y-85614202D01*
X112876094Y-85612410D01*
X112876542Y-85611844D01*
X112876638Y-85611920D01*
X112926043Y-85567478D01*
X112995005Y-85556250D01*
X113059089Y-85584089D01*
X113085178Y-85614194D01*
X113087030Y-85617196D01*
X113087032Y-85617199D01*
X113211003Y-85741170D01*
X113360224Y-85833211D01*
X113360229Y-85833213D01*
X113526651Y-85888360D01*
X113526658Y-85888361D01*
X113629368Y-85898854D01*
X113766848Y-85898854D01*
X114266849Y-85898854D01*
X114404321Y-85898854D01*
X114404335Y-85898853D01*
X114507046Y-85888360D01*
X114673468Y-85833213D01*
X114673473Y-85833211D01*
X114822694Y-85741170D01*
X114946664Y-85617200D01*
X115038705Y-85467979D01*
X115038707Y-85467974D01*
X115093854Y-85301552D01*
X115093855Y-85301545D01*
X115104348Y-85198841D01*
X115104349Y-85198828D01*
X115104349Y-84923855D01*
X114266849Y-84923855D01*
X114266849Y-85898854D01*
X113766848Y-85898854D01*
X113766849Y-85898853D01*
X113766849Y-84797855D01*
X113786534Y-84730816D01*
X113839338Y-84685061D01*
X113890849Y-84673855D01*
X114016849Y-84673855D01*
X114016849Y-84547855D01*
X114036534Y-84480816D01*
X114089338Y-84435061D01*
X114140849Y-84423855D01*
X115104348Y-84423855D01*
X115104348Y-84148883D01*
X115104347Y-84148868D01*
X115093854Y-84046157D01*
X115038707Y-83879735D01*
X115038705Y-83879730D01*
X114946664Y-83730509D01*
X114928336Y-83712181D01*
X114894851Y-83650858D01*
X114899835Y-83581166D01*
X114941707Y-83525233D01*
X115007171Y-83500816D01*
X115016017Y-83500500D01*
X117313331Y-83500500D01*
X117313347Y-83500501D01*
X117320943Y-83500501D01*
X117479054Y-83500501D01*
X117479057Y-83500501D01*
X117631785Y-83459577D01*
X117681904Y-83430639D01*
X117768716Y-83380520D01*
X117880520Y-83268716D01*
X117880520Y-83268714D01*
X117890728Y-83258507D01*
X117890730Y-83258504D01*
X119468713Y-81680521D01*
X119468716Y-81680520D01*
X119580520Y-81568716D01*
X119630639Y-81481904D01*
X119659577Y-81431785D01*
X119700500Y-81279057D01*
X119700500Y-81120943D01*
X119700500Y-80174499D01*
X119720185Y-80107460D01*
X119772989Y-80061705D01*
X119824500Y-80050499D01*
X120150002Y-80050499D01*
X120150008Y-80050499D01*
X120252797Y-80039999D01*
X120419334Y-79984814D01*
X120568656Y-79892712D01*
X120692712Y-79768656D01*
X120784814Y-79619334D01*
X120839999Y-79452797D01*
X120850500Y-79350009D01*
X120850499Y-77249992D01*
X120839999Y-77147203D01*
X120784814Y-76980666D01*
X120692712Y-76831344D01*
X120568656Y-76707288D01*
X120419334Y-76615186D01*
X120252797Y-76560001D01*
X120252795Y-76560000D01*
X120150016Y-76549500D01*
X120150009Y-76549500D01*
X119824500Y-76549500D01*
X119757461Y-76529815D01*
X119711706Y-76477011D01*
X119700500Y-76425500D01*
X119700500Y-69700097D01*
X119720185Y-69633058D01*
X119736819Y-69612416D01*
X121937417Y-67411819D01*
X121998740Y-67378334D01*
X122025098Y-67375500D01*
X135638331Y-67375500D01*
X135638347Y-67375501D01*
X135645943Y-67375501D01*
X135804054Y-67375501D01*
X135804057Y-67375501D01*
X135956785Y-67334577D01*
X136006904Y-67305639D01*
X136093716Y-67255520D01*
X136205520Y-67143716D01*
X136205520Y-67143714D01*
X136215728Y-67133507D01*
X136215730Y-67133504D01*
X140787334Y-62561899D01*
X140848655Y-62528416D01*
X140918347Y-62533400D01*
X140922455Y-62535016D01*
X141087793Y-62603502D01*
X141328435Y-62667982D01*
X141575435Y-62700500D01*
X141575442Y-62700500D01*
X141824558Y-62700500D01*
X141824565Y-62700500D01*
X142071565Y-62667982D01*
X142312207Y-62603502D01*
X142542373Y-62508164D01*
X142758127Y-62383599D01*
X142955776Y-62231938D01*
X143131938Y-62055776D01*
X143283599Y-61858127D01*
X143408164Y-61642373D01*
X143503502Y-61412207D01*
X143567982Y-61171565D01*
X143600500Y-60924565D01*
X143600500Y-60675435D01*
X143567982Y-60428435D01*
X143503502Y-60187793D01*
X143408257Y-59957851D01*
X143408169Y-59957638D01*
X143408162Y-59957623D01*
X143283599Y-59741873D01*
X143131939Y-59544225D01*
X143131933Y-59544218D01*
X142955781Y-59368066D01*
X142955774Y-59368060D01*
X142758126Y-59216400D01*
X142542376Y-59091837D01*
X142542361Y-59091830D01*
X142312207Y-58996498D01*
X142195349Y-58965186D01*
X142071565Y-58932018D01*
X142071564Y-58932017D01*
X142071561Y-58932017D01*
X141824575Y-58899501D01*
X141824570Y-58899500D01*
X141824565Y-58899500D01*
X141575435Y-58899500D01*
X141575429Y-58899500D01*
X141575424Y-58899501D01*
X141328438Y-58932017D01*
X141087792Y-58996498D01*
X140857638Y-59091830D01*
X140857623Y-59091837D01*
X140641873Y-59216400D01*
X140444225Y-59368060D01*
X140444218Y-59368066D01*
X140268066Y-59544218D01*
X140268060Y-59544225D01*
X140116400Y-59741873D01*
X139991837Y-59957623D01*
X139991830Y-59957638D01*
X139896498Y-60187792D01*
X139832017Y-60428438D01*
X139799501Y-60675424D01*
X139799500Y-60675441D01*
X139799500Y-60924558D01*
X139799501Y-60924575D01*
X139832017Y-61171561D01*
X139896455Y-61412049D01*
X139896498Y-61412207D01*
X139912152Y-61450000D01*
X139964978Y-61577531D01*
X139972447Y-61647001D01*
X139941172Y-61709480D01*
X139938098Y-61712665D01*
X135512584Y-66138181D01*
X135451261Y-66171666D01*
X135424903Y-66174500D01*
X121811670Y-66174500D01*
X121811654Y-66174499D01*
X121804058Y-66174499D01*
X121645943Y-66174499D01*
X121569579Y-66194961D01*
X121493214Y-66215423D01*
X121493209Y-66215426D01*
X121356290Y-66294475D01*
X121356282Y-66294481D01*
X120935058Y-66715705D01*
X120873735Y-66749190D01*
X120804043Y-66744206D01*
X120748110Y-66702334D01*
X120723693Y-66636870D01*
X120727601Y-66595937D01*
X120771404Y-66432463D01*
X120800500Y-66211457D01*
X120800500Y-65988543D01*
X120771404Y-65767537D01*
X120713710Y-65552219D01*
X120628405Y-65346274D01*
X120516948Y-65153226D01*
X120381247Y-64976376D01*
X120381242Y-64976370D01*
X120223629Y-64818757D01*
X120223622Y-64818751D01*
X120046782Y-64683058D01*
X120046780Y-64683057D01*
X120046774Y-64683052D01*
X119853726Y-64571595D01*
X119853724Y-64571594D01*
X119853722Y-64571593D01*
X119647790Y-64486293D01*
X119647783Y-64486291D01*
X119647781Y-64486290D01*
X119432463Y-64428596D01*
X119432457Y-64428595D01*
X119432452Y-64428594D01*
X119211466Y-64399501D01*
X119211463Y-64399500D01*
X119211457Y-64399500D01*
X118988543Y-64399500D01*
X118988537Y-64399500D01*
X118988533Y-64399501D01*
X118767547Y-64428594D01*
X118767540Y-64428595D01*
X118767537Y-64428596D01*
X118763432Y-64429696D01*
X118552219Y-64486290D01*
X118552209Y-64486293D01*
X118346277Y-64571593D01*
X118346273Y-64571595D01*
X118153226Y-64683052D01*
X118153217Y-64683058D01*
X117976377Y-64818751D01*
X117976370Y-64818757D01*
X117818757Y-64976370D01*
X117818751Y-64976377D01*
X117683058Y-65153217D01*
X117683052Y-65153226D01*
X117571595Y-65346273D01*
X117571593Y-65346277D01*
X117486293Y-65552209D01*
X117486290Y-65552219D01*
X117428597Y-65767534D01*
X117428594Y-65767547D01*
X117399501Y-65988533D01*
X117399500Y-65988549D01*
X117399500Y-66211450D01*
X117399501Y-66211466D01*
X117428594Y-66432452D01*
X117428595Y-66432457D01*
X117428596Y-66432463D01*
X117428597Y-66432465D01*
X117486290Y-66647781D01*
X117518051Y-66724459D01*
X117525520Y-66793928D01*
X117494245Y-66856407D01*
X117491171Y-66859592D01*
X115031286Y-69319478D01*
X114919481Y-69431282D01*
X114919477Y-69431287D01*
X114881536Y-69497005D01*
X114881536Y-69497006D01*
X114840423Y-69568214D01*
X114840423Y-69568215D01*
X114799499Y-69720943D01*
X114799499Y-69720945D01*
X114799499Y-69889046D01*
X114799500Y-69889059D01*
X114799500Y-80199902D01*
X114790855Y-80229342D01*
X114784332Y-80259329D01*
X114780577Y-80264344D01*
X114779815Y-80266941D01*
X114763181Y-80287583D01*
X114712181Y-80338583D01*
X114650858Y-80372068D01*
X114581166Y-80367084D01*
X114525233Y-80325212D01*
X114500816Y-80259748D01*
X114500500Y-80250902D01*
X114500500Y-80189778D01*
X114494200Y-80150000D01*
X114466015Y-79972049D01*
X114420030Y-79830520D01*
X114397896Y-79762396D01*
X114397895Y-79762393D01*
X114344717Y-79658028D01*
X114297815Y-79565978D01*
X114277279Y-79537713D01*
X114168247Y-79387641D01*
X114168243Y-79387636D01*
X114012363Y-79231756D01*
X114012358Y-79231752D01*
X113834023Y-79102185D01*
X113768204Y-79068648D01*
X113717409Y-79020674D01*
X113700500Y-78958164D01*
X113700500Y-67800097D01*
X113720185Y-67733058D01*
X113736819Y-67712416D01*
X117637417Y-63811819D01*
X117698740Y-63778334D01*
X117725098Y-63775500D01*
X129238331Y-63775500D01*
X129238347Y-63775501D01*
X129245943Y-63775501D01*
X129404054Y-63775501D01*
X129404057Y-63775501D01*
X129556785Y-63734577D01*
X129606904Y-63705639D01*
X129693716Y-63655520D01*
X129805520Y-63543716D01*
X129805520Y-63543714D01*
X129815728Y-63533507D01*
X129815730Y-63533504D01*
X130787334Y-62561899D01*
X130848655Y-62528416D01*
X130918347Y-62533400D01*
X130922455Y-62535016D01*
X131087793Y-62603502D01*
X131328435Y-62667982D01*
X131575435Y-62700500D01*
X131575442Y-62700500D01*
X131824558Y-62700500D01*
X131824565Y-62700500D01*
X132071565Y-62667982D01*
X132312207Y-62603502D01*
X132542373Y-62508164D01*
X132758127Y-62383599D01*
X132955776Y-62231938D01*
X132955781Y-62231933D01*
X133014750Y-62172965D01*
X133131933Y-62055781D01*
X133131938Y-62055776D01*
X133283599Y-61858127D01*
X133408164Y-61642373D01*
X133503502Y-61412207D01*
X133567982Y-61171565D01*
X133600500Y-60924565D01*
X133600500Y-60675466D01*
X134800000Y-60675466D01*
X134800000Y-60924533D01*
X134832508Y-61171463D01*
X134896973Y-61412049D01*
X134992283Y-61642148D01*
X134992288Y-61642159D01*
X135116813Y-61857841D01*
X135116819Y-61857849D01*
X135191400Y-61955045D01*
X136098958Y-61047487D01*
X136123978Y-61107890D01*
X136195112Y-61214351D01*
X136285649Y-61304888D01*
X136392110Y-61376022D01*
X136452511Y-61401041D01*
X135544953Y-62308598D01*
X135642150Y-62383180D01*
X135642158Y-62383186D01*
X135857840Y-62507711D01*
X135857851Y-62507716D01*
X136087950Y-62603026D01*
X136328536Y-62667491D01*
X136575466Y-62700000D01*
X136824534Y-62700000D01*
X137071463Y-62667491D01*
X137312049Y-62603026D01*
X137542148Y-62507716D01*
X137542159Y-62507711D01*
X137757855Y-62383178D01*
X137855045Y-62308600D01*
X137855045Y-62308597D01*
X136947488Y-61401041D01*
X137007890Y-61376022D01*
X137114351Y-61304888D01*
X137204888Y-61214351D01*
X137276022Y-61107890D01*
X137301041Y-61047488D01*
X138208597Y-61955045D01*
X138208600Y-61955045D01*
X138283178Y-61857855D01*
X138407711Y-61642159D01*
X138407716Y-61642148D01*
X138503026Y-61412049D01*
X138567491Y-61171463D01*
X138600000Y-60924533D01*
X138600000Y-60675466D01*
X138567491Y-60428536D01*
X138503026Y-60187950D01*
X138407716Y-59957851D01*
X138407711Y-59957840D01*
X138283186Y-59742158D01*
X138283180Y-59742150D01*
X138208598Y-59644953D01*
X137301041Y-60552510D01*
X137276022Y-60492110D01*
X137204888Y-60385649D01*
X137114351Y-60295112D01*
X137007890Y-60223978D01*
X136947487Y-60198957D01*
X137855045Y-59291400D01*
X137757849Y-59216819D01*
X137757841Y-59216813D01*
X137542159Y-59092288D01*
X137542148Y-59092283D01*
X137312049Y-58996973D01*
X137071463Y-58932508D01*
X136824534Y-58900000D01*
X136575466Y-58900000D01*
X136328536Y-58932508D01*
X136087950Y-58996973D01*
X135857851Y-59092283D01*
X135857847Y-59092285D01*
X135642143Y-59216823D01*
X135544953Y-59291399D01*
X135544953Y-59291400D01*
X136452511Y-60198958D01*
X136392110Y-60223978D01*
X136285649Y-60295112D01*
X136195112Y-60385649D01*
X136123978Y-60492110D01*
X136098958Y-60552511D01*
X135191400Y-59644953D01*
X135191399Y-59644953D01*
X135116823Y-59742143D01*
X134992285Y-59957847D01*
X134992283Y-59957851D01*
X134896973Y-60187950D01*
X134832508Y-60428536D01*
X134800000Y-60675466D01*
X133600500Y-60675466D01*
X133600500Y-60675435D01*
X133567982Y-60428435D01*
X133503502Y-60187793D01*
X133408257Y-59957851D01*
X133408169Y-59957638D01*
X133408162Y-59957623D01*
X133283599Y-59741873D01*
X133131939Y-59544225D01*
X133131933Y-59544218D01*
X132955781Y-59368066D01*
X132955774Y-59368060D01*
X132758126Y-59216400D01*
X132542376Y-59091837D01*
X132542361Y-59091830D01*
X132312207Y-58996498D01*
X132195349Y-58965186D01*
X132071565Y-58932018D01*
X132071564Y-58932017D01*
X132071561Y-58932017D01*
X131824575Y-58899501D01*
X131824570Y-58899500D01*
X131824565Y-58899500D01*
X131575435Y-58899500D01*
X131575429Y-58899500D01*
X131575424Y-58899501D01*
X131328438Y-58932017D01*
X131087792Y-58996498D01*
X130857638Y-59091830D01*
X130857623Y-59091837D01*
X130641873Y-59216400D01*
X130444225Y-59368060D01*
X130444218Y-59368066D01*
X130268066Y-59544218D01*
X130268060Y-59544225D01*
X130116400Y-59741873D01*
X129991837Y-59957623D01*
X129991830Y-59957638D01*
X129896498Y-60187792D01*
X129832017Y-60428438D01*
X129799501Y-60675424D01*
X129799500Y-60675441D01*
X129799500Y-60924558D01*
X129799501Y-60924575D01*
X129832017Y-61171561D01*
X129896455Y-61412049D01*
X129896498Y-61412207D01*
X129912152Y-61450000D01*
X129964978Y-61577531D01*
X129972447Y-61647001D01*
X129941172Y-61709480D01*
X129938098Y-61712665D01*
X129112584Y-62538181D01*
X129051261Y-62571666D01*
X129024903Y-62574500D01*
X128568760Y-62574500D01*
X128501721Y-62554815D01*
X128455966Y-62502011D01*
X128446022Y-62432853D01*
X128463222Y-62385403D01*
X128534812Y-62269337D01*
X128534813Y-62269335D01*
X128534814Y-62269334D01*
X128589999Y-62102797D01*
X128600500Y-62000008D01*
X128600500Y-59599992D01*
X128589999Y-59497203D01*
X128534814Y-59330666D01*
X128510594Y-59291400D01*
X128442713Y-59181348D01*
X128442710Y-59181344D01*
X128318655Y-59057289D01*
X128318651Y-59057286D01*
X128169337Y-58965187D01*
X128169335Y-58965186D01*
X128086065Y-58937593D01*
X128002797Y-58910001D01*
X128002795Y-58910000D01*
X127900015Y-58899500D01*
X127900008Y-58899500D01*
X125499992Y-58899500D01*
X125499984Y-58899500D01*
X125397204Y-58910000D01*
X125397203Y-58910001D01*
X125230664Y-58965186D01*
X125230662Y-58965187D01*
X125081348Y-59057286D01*
X125081344Y-59057289D01*
X124957289Y-59181344D01*
X124957286Y-59181348D01*
X124865187Y-59330662D01*
X124865186Y-59330664D01*
X124810001Y-59497203D01*
X124810000Y-59497204D01*
X124799500Y-59599984D01*
X124799500Y-61650500D01*
X124779815Y-61717539D01*
X124727011Y-61763294D01*
X124675500Y-61774500D01*
X108511669Y-61774500D01*
X108511653Y-61774499D01*
X108504057Y-61774499D01*
X108345943Y-61774499D01*
X108238587Y-61803265D01*
X108193210Y-61815424D01*
X108193209Y-61815425D01*
X108143096Y-61844359D01*
X108143095Y-61844360D01*
X108119250Y-61858127D01*
X108056285Y-61894479D01*
X108056282Y-61894481D01*
X106619481Y-63331282D01*
X106619479Y-63331285D01*
X106575891Y-63406784D01*
X106575889Y-63406786D01*
X106540425Y-63468209D01*
X106540423Y-63468212D01*
X106522929Y-63533501D01*
X106499499Y-63620943D01*
X106499499Y-63620945D01*
X106499499Y-63789046D01*
X106499500Y-63789059D01*
X106499500Y-64425272D01*
X106479815Y-64492311D01*
X106427011Y-64538066D01*
X106422954Y-64539832D01*
X106346274Y-64571594D01*
X106346272Y-64571595D01*
X106153226Y-64683052D01*
X106153217Y-64683058D01*
X105976377Y-64818751D01*
X105976370Y-64818757D01*
X105818757Y-64976370D01*
X105818751Y-64976377D01*
X105683058Y-65153217D01*
X105683052Y-65153226D01*
X105571595Y-65346273D01*
X105571593Y-65346277D01*
X105486293Y-65552209D01*
X105486290Y-65552219D01*
X105428597Y-65767534D01*
X105428594Y-65767547D01*
X105399501Y-65988533D01*
X105399500Y-65988549D01*
X105000500Y-65988549D01*
X105000500Y-60342029D01*
X105020185Y-60274990D01*
X105072989Y-60229235D01*
X105142147Y-60219291D01*
X105186500Y-60234642D01*
X105252493Y-60272743D01*
X105525048Y-60385639D01*
X105810007Y-60461993D01*
X106102494Y-60500500D01*
X106102501Y-60500500D01*
X106397499Y-60500500D01*
X106397506Y-60500500D01*
X106689993Y-60461993D01*
X106974952Y-60385639D01*
X107247507Y-60272743D01*
X107502994Y-60125238D01*
X107737042Y-59945646D01*
X107945646Y-59737042D01*
X108125238Y-59502994D01*
X108272743Y-59247507D01*
X108385639Y-58974952D01*
X108461993Y-58689993D01*
X108500500Y-58397506D01*
X108500500Y-58102494D01*
X108461993Y-57810007D01*
X108385639Y-57525048D01*
X108272743Y-57252493D01*
X108234642Y-57186500D01*
X108218169Y-57118600D01*
X108241022Y-57052573D01*
X108295943Y-57009382D01*
X108342029Y-57000500D01*
X143875500Y-57000500D01*
X143942539Y-57020185D01*
G37*
%TD.AperFunction*%
%TD*%
M02*
