%TF.GenerationSoftware,KiCad,Pcbnew,9.0.2+dfsg-1*%
%TF.CreationDate,2026-03-29T21:49:31-07:00*%
%TF.ProjectId,battery switch delay,62617474-6572-4792-9073-776974636820,rev?*%
%TF.SameCoordinates,Original*%
%TF.FileFunction,Legend,Top*%
%TF.FilePolarity,Positive*%
%FSLAX46Y46*%
G04 Gerber Fmt 4.6, Leading zero omitted, Abs format (unit mm)*
G04 Created by KiCad (PCBNEW 9.0.2+dfsg-1) date 2026-03-29 21:49:31*
%MOMM*%
%LPD*%
G01*
G04 APERTURE LIST*
%ADD10C,0.160000*%
%ADD11C,0.180000*%
%ADD12C,0.200000*%
%ADD13C,0.150000*%
%ADD14C,0.120000*%
G04 APERTURE END LIST*
D10*
X126267725Y-67795237D02*
X126305820Y-67871428D01*
X126305820Y-67871428D02*
X126305820Y-68023809D01*
X126305820Y-68023809D02*
X126267725Y-68099999D01*
X126267725Y-68099999D02*
X126229629Y-68138094D01*
X126229629Y-68138094D02*
X126153439Y-68176190D01*
X126153439Y-68176190D02*
X125924867Y-68176190D01*
X125924867Y-68176190D02*
X125848677Y-68138094D01*
X125848677Y-68138094D02*
X125810582Y-68099999D01*
X125810582Y-68099999D02*
X125772486Y-68023809D01*
X125772486Y-68023809D02*
X125772486Y-67871428D01*
X125772486Y-67871428D02*
X125810582Y-67795237D01*
X125772486Y-67566666D02*
X125772486Y-67261904D01*
X125505820Y-67452380D02*
X126191534Y-67452380D01*
X126191534Y-67452380D02*
X126267725Y-67414285D01*
X126267725Y-67414285D02*
X126305820Y-67338095D01*
X126305820Y-67338095D02*
X126305820Y-67261904D01*
X126305820Y-66995237D02*
X125772486Y-66995237D01*
X125924867Y-66995237D02*
X125848677Y-66957142D01*
X125848677Y-66957142D02*
X125810582Y-66919047D01*
X125810582Y-66919047D02*
X125772486Y-66842856D01*
X125772486Y-66842856D02*
X125772486Y-66766666D01*
X126305820Y-66385714D02*
X126267725Y-66461904D01*
X126267725Y-66461904D02*
X126191534Y-66499999D01*
X126191534Y-66499999D02*
X125505820Y-66499999D01*
X127593775Y-68614285D02*
X127060441Y-68614285D01*
X126793775Y-68614285D02*
X126831870Y-68652381D01*
X126831870Y-68652381D02*
X126869965Y-68614285D01*
X126869965Y-68614285D02*
X126831870Y-68576190D01*
X126831870Y-68576190D02*
X126793775Y-68614285D01*
X126793775Y-68614285D02*
X126869965Y-68614285D01*
X127060441Y-68233333D02*
X127593775Y-68233333D01*
X127136632Y-68233333D02*
X127098537Y-68195238D01*
X127098537Y-68195238D02*
X127060441Y-68119048D01*
X127060441Y-68119048D02*
X127060441Y-68004762D01*
X127060441Y-68004762D02*
X127098537Y-67928571D01*
X127098537Y-67928571D02*
X127174727Y-67890476D01*
X127174727Y-67890476D02*
X127593775Y-67890476D01*
X127060441Y-67509523D02*
X127860441Y-67509523D01*
X127098537Y-67509523D02*
X127060441Y-67433333D01*
X127060441Y-67433333D02*
X127060441Y-67280952D01*
X127060441Y-67280952D02*
X127098537Y-67204761D01*
X127098537Y-67204761D02*
X127136632Y-67166666D01*
X127136632Y-67166666D02*
X127212822Y-67128571D01*
X127212822Y-67128571D02*
X127441394Y-67128571D01*
X127441394Y-67128571D02*
X127517584Y-67166666D01*
X127517584Y-67166666D02*
X127555680Y-67204761D01*
X127555680Y-67204761D02*
X127593775Y-67280952D01*
X127593775Y-67280952D02*
X127593775Y-67433333D01*
X127593775Y-67433333D02*
X127555680Y-67509523D01*
X127060441Y-66442856D02*
X127593775Y-66442856D01*
X127060441Y-66785713D02*
X127479489Y-66785713D01*
X127479489Y-66785713D02*
X127555680Y-66747618D01*
X127555680Y-66747618D02*
X127593775Y-66671428D01*
X127593775Y-66671428D02*
X127593775Y-66557142D01*
X127593775Y-66557142D02*
X127555680Y-66480951D01*
X127555680Y-66480951D02*
X127517584Y-66442856D01*
X127060441Y-66176189D02*
X127060441Y-65871427D01*
X126793775Y-66061903D02*
X127479489Y-66061903D01*
X127479489Y-66061903D02*
X127555680Y-66023808D01*
X127555680Y-66023808D02*
X127593775Y-65947618D01*
X127593775Y-65947618D02*
X127593775Y-65871427D01*
D11*
X141837640Y-68467293D02*
X141837640Y-67781579D01*
X142180497Y-68124436D02*
X141494782Y-68124436D01*
X142180497Y-66881578D02*
X142180497Y-67395864D01*
X142180497Y-67138721D02*
X141280497Y-67138721D01*
X141280497Y-67138721D02*
X141409068Y-67224435D01*
X141409068Y-67224435D02*
X141494782Y-67310150D01*
X141494782Y-67310150D02*
X141537640Y-67395864D01*
X141366211Y-66538721D02*
X141323354Y-66495864D01*
X141323354Y-66495864D02*
X141280497Y-66410150D01*
X141280497Y-66410150D02*
X141280497Y-66195864D01*
X141280497Y-66195864D02*
X141323354Y-66110150D01*
X141323354Y-66110150D02*
X141366211Y-66067292D01*
X141366211Y-66067292D02*
X141451925Y-66024435D01*
X141451925Y-66024435D02*
X141537640Y-66024435D01*
X141537640Y-66024435D02*
X141666211Y-66067292D01*
X141666211Y-66067292D02*
X142180497Y-66581578D01*
X142180497Y-66581578D02*
X142180497Y-66024435D01*
X141580497Y-65724435D02*
X142180497Y-65510149D01*
X142180497Y-65510149D02*
X141580497Y-65295864D01*
D12*
X136214838Y-67706517D02*
X136167219Y-67801755D01*
X136167219Y-67801755D02*
X136167219Y-67944612D01*
X136167219Y-67944612D02*
X136214838Y-68087469D01*
X136214838Y-68087469D02*
X136310076Y-68182707D01*
X136310076Y-68182707D02*
X136405314Y-68230326D01*
X136405314Y-68230326D02*
X136595790Y-68277945D01*
X136595790Y-68277945D02*
X136738647Y-68277945D01*
X136738647Y-68277945D02*
X136929123Y-68230326D01*
X136929123Y-68230326D02*
X137024361Y-68182707D01*
X137024361Y-68182707D02*
X137119600Y-68087469D01*
X137119600Y-68087469D02*
X137167219Y-67944612D01*
X137167219Y-67944612D02*
X137167219Y-67849374D01*
X137167219Y-67849374D02*
X137119600Y-67706517D01*
X137119600Y-67706517D02*
X137071980Y-67658898D01*
X137071980Y-67658898D02*
X136738647Y-67658898D01*
X136738647Y-67658898D02*
X136738647Y-67849374D01*
X137167219Y-67230326D02*
X136167219Y-67230326D01*
X136167219Y-67230326D02*
X137167219Y-66658898D01*
X137167219Y-66658898D02*
X136167219Y-66658898D01*
X137167219Y-66182707D02*
X136167219Y-66182707D01*
X136167219Y-66182707D02*
X136167219Y-65944612D01*
X136167219Y-65944612D02*
X136214838Y-65801755D01*
X136214838Y-65801755D02*
X136310076Y-65706517D01*
X136310076Y-65706517D02*
X136405314Y-65658898D01*
X136405314Y-65658898D02*
X136595790Y-65611279D01*
X136595790Y-65611279D02*
X136738647Y-65611279D01*
X136738647Y-65611279D02*
X136929123Y-65658898D01*
X136929123Y-65658898D02*
X137024361Y-65706517D01*
X137024361Y-65706517D02*
X137119600Y-65801755D01*
X137119600Y-65801755D02*
X137167219Y-65944612D01*
X137167219Y-65944612D02*
X137167219Y-66182707D01*
D10*
X130872486Y-67414285D02*
X130872486Y-67109523D01*
X130605820Y-67299999D02*
X131291534Y-67299999D01*
X131291534Y-67299999D02*
X131367725Y-67261904D01*
X131367725Y-67261904D02*
X131405820Y-67185714D01*
X131405820Y-67185714D02*
X131405820Y-67109523D01*
X131405820Y-66728571D02*
X131367725Y-66804761D01*
X131367725Y-66804761D02*
X131329629Y-66842856D01*
X131329629Y-66842856D02*
X131253439Y-66880952D01*
X131253439Y-66880952D02*
X131024867Y-66880952D01*
X131024867Y-66880952D02*
X130948677Y-66842856D01*
X130948677Y-66842856D02*
X130910582Y-66804761D01*
X130910582Y-66804761D02*
X130872486Y-66728571D01*
X130872486Y-66728571D02*
X130872486Y-66614285D01*
X130872486Y-66614285D02*
X130910582Y-66538094D01*
X130910582Y-66538094D02*
X130948677Y-66499999D01*
X130948677Y-66499999D02*
X131024867Y-66461904D01*
X131024867Y-66461904D02*
X131253439Y-66461904D01*
X131253439Y-66461904D02*
X131329629Y-66499999D01*
X131329629Y-66499999D02*
X131367725Y-66538094D01*
X131367725Y-66538094D02*
X131405820Y-66614285D01*
X131405820Y-66614285D02*
X131405820Y-66728571D01*
X132655680Y-68614285D02*
X132693775Y-68538094D01*
X132693775Y-68538094D02*
X132693775Y-68385713D01*
X132693775Y-68385713D02*
X132655680Y-68309523D01*
X132655680Y-68309523D02*
X132579489Y-68271427D01*
X132579489Y-68271427D02*
X132541394Y-68271427D01*
X132541394Y-68271427D02*
X132465203Y-68309523D01*
X132465203Y-68309523D02*
X132427108Y-68385713D01*
X132427108Y-68385713D02*
X132427108Y-68499999D01*
X132427108Y-68499999D02*
X132389013Y-68576189D01*
X132389013Y-68576189D02*
X132312822Y-68614285D01*
X132312822Y-68614285D02*
X132274727Y-68614285D01*
X132274727Y-68614285D02*
X132198537Y-68576189D01*
X132198537Y-68576189D02*
X132160441Y-68499999D01*
X132160441Y-68499999D02*
X132160441Y-68385713D01*
X132160441Y-68385713D02*
X132198537Y-68309523D01*
X132160441Y-68004761D02*
X132693775Y-67852380D01*
X132693775Y-67852380D02*
X132312822Y-67699999D01*
X132312822Y-67699999D02*
X132693775Y-67547618D01*
X132693775Y-67547618D02*
X132160441Y-67395237D01*
X132693775Y-67090475D02*
X132160441Y-67090475D01*
X131893775Y-67090475D02*
X131931870Y-67128571D01*
X131931870Y-67128571D02*
X131969965Y-67090475D01*
X131969965Y-67090475D02*
X131931870Y-67052380D01*
X131931870Y-67052380D02*
X131893775Y-67090475D01*
X131893775Y-67090475D02*
X131969965Y-67090475D01*
X132160441Y-66823809D02*
X132160441Y-66519047D01*
X131893775Y-66709523D02*
X132579489Y-66709523D01*
X132579489Y-66709523D02*
X132655680Y-66671428D01*
X132655680Y-66671428D02*
X132693775Y-66595238D01*
X132693775Y-66595238D02*
X132693775Y-66519047D01*
X132655680Y-65909523D02*
X132693775Y-65985714D01*
X132693775Y-65985714D02*
X132693775Y-66138095D01*
X132693775Y-66138095D02*
X132655680Y-66214285D01*
X132655680Y-66214285D02*
X132617584Y-66252380D01*
X132617584Y-66252380D02*
X132541394Y-66290476D01*
X132541394Y-66290476D02*
X132312822Y-66290476D01*
X132312822Y-66290476D02*
X132236632Y-66252380D01*
X132236632Y-66252380D02*
X132198537Y-66214285D01*
X132198537Y-66214285D02*
X132160441Y-66138095D01*
X132160441Y-66138095D02*
X132160441Y-65985714D01*
X132160441Y-65985714D02*
X132198537Y-65909523D01*
X132693775Y-65566666D02*
X131893775Y-65566666D01*
X132693775Y-65223809D02*
X132274727Y-65223809D01*
X132274727Y-65223809D02*
X132198537Y-65261904D01*
X132198537Y-65261904D02*
X132160441Y-65338095D01*
X132160441Y-65338095D02*
X132160441Y-65452381D01*
X132160441Y-65452381D02*
X132198537Y-65528571D01*
X132198537Y-65528571D02*
X132236632Y-65566666D01*
D13*
X133616666Y-55134819D02*
X133616666Y-55849104D01*
X133616666Y-55849104D02*
X133569047Y-55991961D01*
X133569047Y-55991961D02*
X133473809Y-56087200D01*
X133473809Y-56087200D02*
X133330952Y-56134819D01*
X133330952Y-56134819D02*
X133235714Y-56134819D01*
X134616666Y-56134819D02*
X134045238Y-56134819D01*
X134330952Y-56134819D02*
X134330952Y-55134819D01*
X134330952Y-55134819D02*
X134235714Y-55277676D01*
X134235714Y-55277676D02*
X134140476Y-55372914D01*
X134140476Y-55372914D02*
X134045238Y-55420533D01*
X108217444Y-89628674D02*
X108217444Y-90438197D01*
X108217444Y-90438197D02*
X108265063Y-90533435D01*
X108265063Y-90533435D02*
X108312682Y-90581055D01*
X108312682Y-90581055D02*
X108407920Y-90628674D01*
X108407920Y-90628674D02*
X108598396Y-90628674D01*
X108598396Y-90628674D02*
X108693634Y-90581055D01*
X108693634Y-90581055D02*
X108741253Y-90533435D01*
X108741253Y-90533435D02*
X108788872Y-90438197D01*
X108788872Y-90438197D02*
X108788872Y-89628674D01*
X109217444Y-89723912D02*
X109265063Y-89676293D01*
X109265063Y-89676293D02*
X109360301Y-89628674D01*
X109360301Y-89628674D02*
X109598396Y-89628674D01*
X109598396Y-89628674D02*
X109693634Y-89676293D01*
X109693634Y-89676293D02*
X109741253Y-89723912D01*
X109741253Y-89723912D02*
X109788872Y-89819150D01*
X109788872Y-89819150D02*
X109788872Y-89914388D01*
X109788872Y-89914388D02*
X109741253Y-90057245D01*
X109741253Y-90057245D02*
X109169825Y-90628674D01*
X109169825Y-90628674D02*
X109788872Y-90628674D01*
X108812682Y-98033435D02*
X108765063Y-98081055D01*
X108765063Y-98081055D02*
X108622206Y-98128674D01*
X108622206Y-98128674D02*
X108526968Y-98128674D01*
X108526968Y-98128674D02*
X108384111Y-98081055D01*
X108384111Y-98081055D02*
X108288873Y-97985816D01*
X108288873Y-97985816D02*
X108241254Y-97890578D01*
X108241254Y-97890578D02*
X108193635Y-97700102D01*
X108193635Y-97700102D02*
X108193635Y-97557245D01*
X108193635Y-97557245D02*
X108241254Y-97366769D01*
X108241254Y-97366769D02*
X108288873Y-97271531D01*
X108288873Y-97271531D02*
X108384111Y-97176293D01*
X108384111Y-97176293D02*
X108526968Y-97128674D01*
X108526968Y-97128674D02*
X108622206Y-97128674D01*
X108622206Y-97128674D02*
X108765063Y-97176293D01*
X108765063Y-97176293D02*
X108812682Y-97223912D01*
X109765063Y-98128674D02*
X109193635Y-98128674D01*
X109479349Y-98128674D02*
X109479349Y-97128674D01*
X109479349Y-97128674D02*
X109384111Y-97271531D01*
X109384111Y-97271531D02*
X109288873Y-97366769D01*
X109288873Y-97366769D02*
X109193635Y-97414388D01*
X112812682Y-111228674D02*
X112479349Y-110752483D01*
X112241254Y-111228674D02*
X112241254Y-110228674D01*
X112241254Y-110228674D02*
X112622206Y-110228674D01*
X112622206Y-110228674D02*
X112717444Y-110276293D01*
X112717444Y-110276293D02*
X112765063Y-110323912D01*
X112765063Y-110323912D02*
X112812682Y-110419150D01*
X112812682Y-110419150D02*
X112812682Y-110562007D01*
X112812682Y-110562007D02*
X112765063Y-110657245D01*
X112765063Y-110657245D02*
X112717444Y-110704864D01*
X112717444Y-110704864D02*
X112622206Y-110752483D01*
X112622206Y-110752483D02*
X112241254Y-110752483D01*
X113193635Y-110323912D02*
X113241254Y-110276293D01*
X113241254Y-110276293D02*
X113336492Y-110228674D01*
X113336492Y-110228674D02*
X113574587Y-110228674D01*
X113574587Y-110228674D02*
X113669825Y-110276293D01*
X113669825Y-110276293D02*
X113717444Y-110323912D01*
X113717444Y-110323912D02*
X113765063Y-110419150D01*
X113765063Y-110419150D02*
X113765063Y-110514388D01*
X113765063Y-110514388D02*
X113717444Y-110657245D01*
X113717444Y-110657245D02*
X113146016Y-111228674D01*
X113146016Y-111228674D02*
X113765063Y-111228674D01*
X130058095Y-108044819D02*
X130058095Y-108854342D01*
X130058095Y-108854342D02*
X130105714Y-108949580D01*
X130105714Y-108949580D02*
X130153333Y-108997200D01*
X130153333Y-108997200D02*
X130248571Y-109044819D01*
X130248571Y-109044819D02*
X130439047Y-109044819D01*
X130439047Y-109044819D02*
X130534285Y-108997200D01*
X130534285Y-108997200D02*
X130581904Y-108949580D01*
X130581904Y-108949580D02*
X130629523Y-108854342D01*
X130629523Y-108854342D02*
X130629523Y-108044819D01*
X131058095Y-108997200D02*
X131200952Y-109044819D01*
X131200952Y-109044819D02*
X131439047Y-109044819D01*
X131439047Y-109044819D02*
X131534285Y-108997200D01*
X131534285Y-108997200D02*
X131581904Y-108949580D01*
X131581904Y-108949580D02*
X131629523Y-108854342D01*
X131629523Y-108854342D02*
X131629523Y-108759104D01*
X131629523Y-108759104D02*
X131581904Y-108663866D01*
X131581904Y-108663866D02*
X131534285Y-108616247D01*
X131534285Y-108616247D02*
X131439047Y-108568628D01*
X131439047Y-108568628D02*
X131248571Y-108521009D01*
X131248571Y-108521009D02*
X131153333Y-108473390D01*
X131153333Y-108473390D02*
X131105714Y-108425771D01*
X131105714Y-108425771D02*
X131058095Y-108330533D01*
X131058095Y-108330533D02*
X131058095Y-108235295D01*
X131058095Y-108235295D02*
X131105714Y-108140057D01*
X131105714Y-108140057D02*
X131153333Y-108092438D01*
X131153333Y-108092438D02*
X131248571Y-108044819D01*
X131248571Y-108044819D02*
X131486666Y-108044819D01*
X131486666Y-108044819D02*
X131629523Y-108092438D01*
X132391428Y-108521009D02*
X132534285Y-108568628D01*
X132534285Y-108568628D02*
X132581904Y-108616247D01*
X132581904Y-108616247D02*
X132629523Y-108711485D01*
X132629523Y-108711485D02*
X132629523Y-108854342D01*
X132629523Y-108854342D02*
X132581904Y-108949580D01*
X132581904Y-108949580D02*
X132534285Y-108997200D01*
X132534285Y-108997200D02*
X132439047Y-109044819D01*
X132439047Y-109044819D02*
X132058095Y-109044819D01*
X132058095Y-109044819D02*
X132058095Y-108044819D01*
X132058095Y-108044819D02*
X132391428Y-108044819D01*
X132391428Y-108044819D02*
X132486666Y-108092438D01*
X132486666Y-108092438D02*
X132534285Y-108140057D01*
X132534285Y-108140057D02*
X132581904Y-108235295D01*
X132581904Y-108235295D02*
X132581904Y-108330533D01*
X132581904Y-108330533D02*
X132534285Y-108425771D01*
X132534285Y-108425771D02*
X132486666Y-108473390D01*
X132486666Y-108473390D02*
X132391428Y-108521009D01*
X132391428Y-108521009D02*
X132058095Y-108521009D01*
X117041254Y-107766174D02*
X117041254Y-106766174D01*
X117041254Y-106766174D02*
X117279349Y-106766174D01*
X117279349Y-106766174D02*
X117422206Y-106813793D01*
X117422206Y-106813793D02*
X117517444Y-106909031D01*
X117517444Y-106909031D02*
X117565063Y-107004269D01*
X117565063Y-107004269D02*
X117612682Y-107194745D01*
X117612682Y-107194745D02*
X117612682Y-107337602D01*
X117612682Y-107337602D02*
X117565063Y-107528078D01*
X117565063Y-107528078D02*
X117517444Y-107623316D01*
X117517444Y-107623316D02*
X117422206Y-107718555D01*
X117422206Y-107718555D02*
X117279349Y-107766174D01*
X117279349Y-107766174D02*
X117041254Y-107766174D01*
X118565063Y-107766174D02*
X117993635Y-107766174D01*
X118279349Y-107766174D02*
X118279349Y-106766174D01*
X118279349Y-106766174D02*
X118184111Y-106909031D01*
X118184111Y-106909031D02*
X118088873Y-107004269D01*
X118088873Y-107004269D02*
X117993635Y-107051888D01*
X118661905Y-83954819D02*
X118661905Y-82954819D01*
X119233333Y-83954819D02*
X118804762Y-83383390D01*
X119233333Y-82954819D02*
X118661905Y-83526247D01*
X120185714Y-83954819D02*
X119614286Y-83954819D01*
X119900000Y-83954819D02*
X119900000Y-82954819D01*
X119900000Y-82954819D02*
X119804762Y-83097676D01*
X119804762Y-83097676D02*
X119709524Y-83192914D01*
X119709524Y-83192914D02*
X119614286Y-83240533D01*
X114929406Y-105469093D02*
X114881787Y-105564331D01*
X114881787Y-105564331D02*
X114786549Y-105659569D01*
X114786549Y-105659569D02*
X114643691Y-105802426D01*
X114643691Y-105802426D02*
X114596072Y-105897664D01*
X114596072Y-105897664D02*
X114596072Y-105992902D01*
X114834168Y-105945283D02*
X114786549Y-106040521D01*
X114786549Y-106040521D02*
X114691310Y-106135759D01*
X114691310Y-106135759D02*
X114500834Y-106183378D01*
X114500834Y-106183378D02*
X114167501Y-106183378D01*
X114167501Y-106183378D02*
X113977025Y-106135759D01*
X113977025Y-106135759D02*
X113881787Y-106040521D01*
X113881787Y-106040521D02*
X113834168Y-105945283D01*
X113834168Y-105945283D02*
X113834168Y-105754807D01*
X113834168Y-105754807D02*
X113881787Y-105659569D01*
X113881787Y-105659569D02*
X113977025Y-105564331D01*
X113977025Y-105564331D02*
X114167501Y-105516712D01*
X114167501Y-105516712D02*
X114500834Y-105516712D01*
X114500834Y-105516712D02*
X114691310Y-105564331D01*
X114691310Y-105564331D02*
X114786549Y-105659569D01*
X114786549Y-105659569D02*
X114834168Y-105754807D01*
X114834168Y-105754807D02*
X114834168Y-105945283D01*
X114834168Y-104564331D02*
X114834168Y-105135759D01*
X114834168Y-104850045D02*
X113834168Y-104850045D01*
X113834168Y-104850045D02*
X113977025Y-104945283D01*
X113977025Y-104945283D02*
X114072263Y-105040521D01*
X114072263Y-105040521D02*
X114119882Y-105135759D01*
X110834168Y-103340521D02*
X110357977Y-103673854D01*
X110834168Y-103911949D02*
X109834168Y-103911949D01*
X109834168Y-103911949D02*
X109834168Y-103530997D01*
X109834168Y-103530997D02*
X109881787Y-103435759D01*
X109881787Y-103435759D02*
X109929406Y-103388140D01*
X109929406Y-103388140D02*
X110024644Y-103340521D01*
X110024644Y-103340521D02*
X110167501Y-103340521D01*
X110167501Y-103340521D02*
X110262739Y-103388140D01*
X110262739Y-103388140D02*
X110310358Y-103435759D01*
X110310358Y-103435759D02*
X110357977Y-103530997D01*
X110357977Y-103530997D02*
X110357977Y-103911949D01*
X110834168Y-102388140D02*
X110834168Y-102959568D01*
X110834168Y-102673854D02*
X109834168Y-102673854D01*
X109834168Y-102673854D02*
X109977025Y-102769092D01*
X109977025Y-102769092D02*
X110072263Y-102864330D01*
X110072263Y-102864330D02*
X110119882Y-102959568D01*
X115862682Y-85033435D02*
X115815063Y-85081055D01*
X115815063Y-85081055D02*
X115672206Y-85128674D01*
X115672206Y-85128674D02*
X115576968Y-85128674D01*
X115576968Y-85128674D02*
X115434111Y-85081055D01*
X115434111Y-85081055D02*
X115338873Y-84985816D01*
X115338873Y-84985816D02*
X115291254Y-84890578D01*
X115291254Y-84890578D02*
X115243635Y-84700102D01*
X115243635Y-84700102D02*
X115243635Y-84557245D01*
X115243635Y-84557245D02*
X115291254Y-84366769D01*
X115291254Y-84366769D02*
X115338873Y-84271531D01*
X115338873Y-84271531D02*
X115434111Y-84176293D01*
X115434111Y-84176293D02*
X115576968Y-84128674D01*
X115576968Y-84128674D02*
X115672206Y-84128674D01*
X115672206Y-84128674D02*
X115815063Y-84176293D01*
X115815063Y-84176293D02*
X115862682Y-84223912D01*
X116243635Y-84223912D02*
X116291254Y-84176293D01*
X116291254Y-84176293D02*
X116386492Y-84128674D01*
X116386492Y-84128674D02*
X116624587Y-84128674D01*
X116624587Y-84128674D02*
X116719825Y-84176293D01*
X116719825Y-84176293D02*
X116767444Y-84223912D01*
X116767444Y-84223912D02*
X116815063Y-84319150D01*
X116815063Y-84319150D02*
X116815063Y-84414388D01*
X116815063Y-84414388D02*
X116767444Y-84557245D01*
X116767444Y-84557245D02*
X116196016Y-85128674D01*
X116196016Y-85128674D02*
X116815063Y-85128674D01*
D14*
%TO.C,R3*%
X118444349Y-103400919D02*
X118444349Y-102946791D01*
X119914349Y-103400919D02*
X119914349Y-102946791D01*
%TO.C,J1*%
X123580000Y-56680000D02*
X123580000Y-64720000D01*
X123580000Y-56680000D02*
X144320000Y-56680000D01*
X123580000Y-60300000D02*
X124820000Y-60300000D01*
X123580000Y-61300000D02*
X124820000Y-61300000D01*
X123580000Y-62600000D02*
X124820000Y-62600000D01*
X123580000Y-64720000D02*
X126400000Y-64720000D01*
X127000000Y-64720000D02*
X144320000Y-64720000D01*
X128580000Y-60300000D02*
X129888000Y-60300000D01*
X128580000Y-61300000D02*
X129888000Y-61300000D01*
X128580000Y-62600000D02*
X131157000Y-62600000D01*
X132243000Y-62600000D02*
X136157000Y-62600000D01*
X133512000Y-60300000D02*
X134888000Y-60300000D01*
X133512000Y-61300000D02*
X134888000Y-61300000D01*
X137243000Y-62600000D02*
X141157000Y-62600000D01*
X138512000Y-60300000D02*
X139888000Y-60300000D01*
X138512000Y-61300000D02*
X139888000Y-61300000D01*
X142243000Y-62600000D02*
X144320000Y-62600000D01*
X143512000Y-60300000D02*
X144320000Y-60300000D01*
X143512000Y-61300000D02*
X144320000Y-61300000D01*
X144320000Y-56680000D02*
X144320000Y-64720000D01*
X127140000Y-65330000D02*
X126260000Y-65330000D01*
X126700000Y-64720000D01*
X127140000Y-65330000D01*
G36*
X127140000Y-65330000D02*
G01*
X126260000Y-65330000D01*
X126700000Y-64720000D01*
X127140000Y-65330000D01*
G37*
%TO.C,U2*%
X113654349Y-86788855D02*
X117414349Y-86788855D01*
X113654349Y-93608855D02*
X117414349Y-93608855D01*
X117414349Y-86788855D02*
X117414349Y-88048855D01*
X117414349Y-93608855D02*
X117414349Y-92348855D01*
X112374349Y-86888855D02*
X112134349Y-86558855D01*
X112614349Y-86558855D01*
X112374349Y-86888855D01*
G36*
X112374349Y-86888855D02*
G01*
X112134349Y-86558855D01*
X112614349Y-86558855D01*
X112374349Y-86888855D01*
G37*
%TO.C,C1*%
X111479349Y-96113855D02*
X111979349Y-96113855D01*
X111729349Y-95863855D02*
X111729349Y-96363855D01*
X112219349Y-96478292D02*
X112219349Y-96613855D01*
X112219349Y-96478292D02*
X113283786Y-95413855D01*
X112219349Y-98869418D02*
X112219349Y-98733855D01*
X112219349Y-98869418D02*
X113283786Y-99933855D01*
X113283786Y-95413855D02*
X116739349Y-95413855D01*
X113283786Y-99933855D02*
X116739349Y-99933855D01*
X116739349Y-95413855D02*
X116739349Y-96613855D01*
X116739349Y-99933855D02*
X116739349Y-98733855D01*
%TO.C,R2*%
X112752285Y-108338855D02*
X113206413Y-108338855D01*
X112752285Y-109808855D02*
X113206413Y-109808855D01*
%TO.C,A1*%
X122300000Y-69090000D02*
X122300000Y-71760000D01*
X122300000Y-74300000D02*
X122300000Y-112530000D01*
X122300000Y-112530000D02*
X127380000Y-112530000D01*
X124970000Y-71760000D02*
X122300000Y-71760000D01*
X124970000Y-74300000D02*
X122300000Y-74300000D01*
X124970000Y-74300000D02*
X124970000Y-71760000D01*
X124970000Y-74300000D02*
X124970000Y-109860000D01*
X124970000Y-109860000D02*
X122300000Y-109860000D01*
X127380000Y-104650000D02*
X135260000Y-104650000D01*
X127380000Y-115070000D02*
X127380000Y-104650000D01*
X135260000Y-104650000D02*
X135260000Y-115070000D01*
X135260000Y-115070000D02*
X127380000Y-115070000D01*
X137670000Y-71760000D02*
X137670000Y-109860000D01*
X137670000Y-71760000D02*
X140340000Y-71760000D01*
X137670000Y-109860000D02*
X140340000Y-109860000D01*
X140340000Y-69090000D02*
X122300000Y-69090000D01*
X140340000Y-112530000D02*
X135260000Y-112530000D01*
X140340000Y-112530000D02*
X140340000Y-69090000D01*
%TO.C,D1*%
X115419349Y-108173855D02*
X115419349Y-110173855D01*
X115419349Y-108173855D02*
X119429349Y-108173855D01*
X115419349Y-110173855D02*
X119429349Y-110173855D01*
%TO.C,K1*%
X105390000Y-62590000D02*
X120810000Y-62590000D01*
X105390000Y-81610000D02*
X105390000Y-62590000D01*
X105390000Y-81610000D02*
X111900000Y-81610000D01*
X107100000Y-74300000D02*
X107100000Y-76600000D01*
X107100000Y-74300000D02*
X111600000Y-74300000D01*
X108800000Y-66100000D02*
X111100000Y-66100000D01*
X111600000Y-71800000D02*
X114600000Y-71800000D01*
X111600000Y-76800000D02*
X111600000Y-71800000D01*
X113100000Y-69300000D02*
X110400000Y-64800000D01*
X113100000Y-70800000D02*
X113100000Y-69300000D01*
X113100000Y-70800000D02*
X116800000Y-70800000D01*
X113100000Y-77700000D02*
X113100000Y-78600000D01*
X113100000Y-77700000D02*
X116800000Y-77700000D01*
X114300000Y-81610000D02*
X120810000Y-81610000D01*
X114600000Y-71800000D02*
X111600000Y-76800000D01*
X114600000Y-71800000D02*
X114600000Y-76800000D01*
X114600000Y-74300000D02*
X119100000Y-74300000D01*
X114600000Y-76800000D02*
X111600000Y-76800000D01*
X116800000Y-70800000D02*
X116800000Y-77700000D01*
X117400000Y-66100000D02*
X115100000Y-66100000D01*
X119100000Y-76600000D02*
X119100000Y-74300000D01*
X120810000Y-62600000D02*
X120810000Y-81610000D01*
X121050000Y-79450000D02*
X121050000Y-77150000D01*
%TO.C,Q1*%
X114219349Y-103098855D02*
X114219349Y-102448855D01*
X114219349Y-103098855D02*
X114219349Y-103748855D01*
X117339349Y-103098855D02*
X117339349Y-102448855D01*
X117339349Y-103098855D02*
X117339349Y-103748855D01*
X117619349Y-102176355D02*
X117289349Y-101936355D01*
X117619349Y-101696355D01*
X117619349Y-102176355D01*
G36*
X117619349Y-102176355D02*
G01*
X117289349Y-101936355D01*
X117619349Y-101696355D01*
X117619349Y-102176355D01*
G37*
%TO.C,R1*%
X111344349Y-102946791D02*
X111344349Y-103400919D01*
X112814349Y-102946791D02*
X112814349Y-103400919D01*
%TO.C,C2*%
X113240601Y-83938855D02*
X112718097Y-83938855D01*
X113240601Y-85408855D02*
X112718097Y-85408855D01*
%TD*%
M02*
