%TF.GenerationSoftware,KiCad,Pcbnew,9.0.2+dfsg-1*%
%TF.CreationDate,2026-03-08T18:33:25-07:00*%
%TF.ProjectId,battery switch delay,62617474-6572-4792-9073-776974636820,rev?*%
%TF.SameCoordinates,Original*%
%TF.FileFunction,Soldermask,Top*%
%TF.FilePolarity,Negative*%
%FSLAX46Y46*%
G04 Gerber Fmt 4.6, Leading zero omitted, Abs format (unit mm)*
G04 Created by KiCad (PCBNEW 9.0.2+dfsg-1) date 2026-03-08 18:33:25*
%MOMM*%
%LPD*%
G01*
G04 APERTURE LIST*
G04 Aperture macros list*
%AMRoundRect*
0 Rectangle with rounded corners*
0 $1 Rounding radius*
0 $2 $3 $4 $5 $6 $7 $8 $9 X,Y pos of 4 corners*
0 Add a 4 corners polygon primitive as box body*
4,1,4,$2,$3,$4,$5,$6,$7,$8,$9,$2,$3,0*
0 Add four circle primitives for the rounded corners*
1,1,$1+$1,$2,$3*
1,1,$1+$1,$4,$5*
1,1,$1+$1,$6,$7*
1,1,$1+$1,$8,$9*
0 Add four rect primitives between the rounded corners*
20,1,$1+$1,$2,$3,$4,$5,0*
20,1,$1+$1,$4,$5,$6,$7,0*
20,1,$1+$1,$6,$7,$8,$9,0*
20,1,$1+$1,$8,$9,$2,$3,0*%
G04 Aperture macros list end*
%ADD10C,2.800000*%
%ADD11RoundRect,0.250001X-1.149999X-1.149999X1.149999X-1.149999X1.149999X1.149999X-1.149999X1.149999X0*%
%ADD12C,2.600000*%
%ADD13C,3.500000*%
%ADD14C,1.600000*%
%ADD15RoundRect,0.250000X-0.550000X-0.550000X0.550000X-0.550000X0.550000X0.550000X-0.550000X0.550000X0*%
%ADD16RoundRect,0.250000X-0.450000X0.350000X-0.450000X-0.350000X0.450000X-0.350000X0.450000X0.350000X0*%
%ADD17RoundRect,0.250000X-0.337500X-0.475000X0.337500X-0.475000X0.337500X0.475000X-0.337500X0.475000X0*%
%ADD18RoundRect,0.375000X-0.625000X-0.375000X0.625000X-0.375000X0.625000X0.375000X-0.625000X0.375000X0*%
%ADD19RoundRect,0.500000X-0.500000X-1.400000X0.500000X-1.400000X0.500000X1.400000X-0.500000X1.400000X0*%
%ADD20RoundRect,0.250000X0.337500X0.475000X-0.337500X0.475000X-0.337500X-0.475000X0.337500X-0.475000X0*%
%ADD21R,1.501140X1.501140*%
%ADD22C,1.501140*%
%ADD23RoundRect,0.250000X0.350000X0.450000X-0.350000X0.450000X-0.350000X-0.450000X0.350000X-0.450000X0*%
%ADD24R,1.600000X1.600000*%
%ADD25O,1.600000X1.600000*%
%ADD26R,1.500000X1.050000*%
%ADD27O,1.500000X1.050000*%
%ADD28RoundRect,0.250000X-0.350000X-0.450000X0.350000X-0.450000X0.350000X0.450000X-0.350000X0.450000X0*%
G04 APERTURE END LIST*
D10*
%TO.C,J1*%
X140700000Y-60750000D03*
X135700000Y-60750000D03*
X130700000Y-60750000D03*
D11*
X125700000Y-60750000D03*
%TD*%
D12*
%TO.C,REF\u002A\u002A*%
X110750000Y-58250000D03*
D13*
X110750000Y-58250000D03*
%TD*%
D12*
%TO.C,REF\u002A\u002A*%
X142750000Y-70750000D03*
D13*
X142750000Y-70750000D03*
%TD*%
D12*
%TO.C,REF\u002A\u002A*%
X142750000Y-110750000D03*
D13*
X142750000Y-110750000D03*
%TD*%
D14*
%TO.C,D1*%
X120460000Y-61600000D03*
D15*
X110300000Y-61600000D03*
%TD*%
D16*
%TO.C,R3*%
X120800000Y-88100000D03*
X120800000Y-90100000D03*
%TD*%
D17*
%TO.C,C2*%
X111962500Y-95500000D03*
X114037500Y-95500000D03*
%TD*%
D18*
%TO.C,U2*%
X114350000Y-98300000D03*
X114350000Y-100600000D03*
D19*
X120650000Y-100600000D03*
D18*
X114350000Y-102900000D03*
%TD*%
D20*
%TO.C,C1*%
X114337500Y-105800000D03*
X112262500Y-105800000D03*
%TD*%
D21*
%TO.C,K2*%
X118800000Y-80600000D03*
D22*
X118800000Y-67900000D03*
X111180000Y-67900000D03*
X111180000Y-75520000D03*
X111180000Y-80600000D03*
%TD*%
D23*
%TO.C,R2*%
X112200000Y-65100000D03*
X110200000Y-65100000D03*
%TD*%
D24*
%TO.C,A1*%
X123700000Y-73030000D03*
D25*
X123700000Y-75570000D03*
X123700000Y-78110000D03*
X123700000Y-80650000D03*
X123700000Y-83190000D03*
X123700000Y-85730000D03*
X123700000Y-88270000D03*
X123700000Y-90810000D03*
X123700000Y-93350000D03*
X123700000Y-95890000D03*
X123700000Y-98430000D03*
X123700000Y-100970000D03*
X123700000Y-103510000D03*
X123700000Y-106050000D03*
X123700000Y-108590000D03*
X138940000Y-108590000D03*
X138940000Y-106050000D03*
X138940000Y-103510000D03*
X138940000Y-100970000D03*
X138940000Y-98430000D03*
X138940000Y-95890000D03*
X138940000Y-93350000D03*
X138940000Y-90810000D03*
X138940000Y-88270000D03*
X138940000Y-85730000D03*
X138940000Y-83190000D03*
X138940000Y-80650000D03*
X138940000Y-78110000D03*
X138940000Y-75570000D03*
X138940000Y-73030000D03*
%TD*%
D26*
%TO.C,Q1*%
X116300000Y-89600000D03*
D27*
X116300000Y-88330000D03*
X116300000Y-87060000D03*
%TD*%
D28*
%TO.C,R1*%
X110800000Y-84500000D03*
X112800000Y-84500000D03*
%TD*%
D13*
%TO.C,REF\u002A\u002A*%
X110750000Y-110750000D03*
D12*
X110750000Y-110750000D03*
%TD*%
M02*
