%TF.GenerationSoftware,KiCad,Pcbnew,9.0.2+dfsg-1*%
%TF.CreationDate,2026-03-20T13:21:01-07:00*%
%TF.ProjectId,battery switch delay,62617474-6572-4792-9073-776974636820,rev?*%
%TF.SameCoordinates,Original*%
%TF.FileFunction,Legend,Top*%
%TF.FilePolarity,Positive*%
%FSLAX46Y46*%
G04 Gerber Fmt 4.6, Leading zero omitted, Abs format (unit mm)*
G04 Created by KiCad (PCBNEW 9.0.2+dfsg-1) date 2026-03-20 13:21:01*
%MOMM*%
%LPD*%
G01*
G04 APERTURE LIST*
%ADD10C,0.160000*%
%ADD11C,0.180000*%
%ADD12C,0.200000*%
%ADD13C,0.150000*%
%ADD14C,0.120000*%
G04 APERTURE END LIST*
D10*
X125267725Y-67795237D02*
X125305820Y-67871428D01*
X125305820Y-67871428D02*
X125305820Y-68023809D01*
X125305820Y-68023809D02*
X125267725Y-68099999D01*
X125267725Y-68099999D02*
X125229629Y-68138094D01*
X125229629Y-68138094D02*
X125153439Y-68176190D01*
X125153439Y-68176190D02*
X124924867Y-68176190D01*
X124924867Y-68176190D02*
X124848677Y-68138094D01*
X124848677Y-68138094D02*
X124810582Y-68099999D01*
X124810582Y-68099999D02*
X124772486Y-68023809D01*
X124772486Y-68023809D02*
X124772486Y-67871428D01*
X124772486Y-67871428D02*
X124810582Y-67795237D01*
X124772486Y-67566666D02*
X124772486Y-67261904D01*
X124505820Y-67452380D02*
X125191534Y-67452380D01*
X125191534Y-67452380D02*
X125267725Y-67414285D01*
X125267725Y-67414285D02*
X125305820Y-67338095D01*
X125305820Y-67338095D02*
X125305820Y-67261904D01*
X125305820Y-66995237D02*
X124772486Y-66995237D01*
X124924867Y-66995237D02*
X124848677Y-66957142D01*
X124848677Y-66957142D02*
X124810582Y-66919047D01*
X124810582Y-66919047D02*
X124772486Y-66842856D01*
X124772486Y-66842856D02*
X124772486Y-66766666D01*
X125305820Y-66385714D02*
X125267725Y-66461904D01*
X125267725Y-66461904D02*
X125191534Y-66499999D01*
X125191534Y-66499999D02*
X124505820Y-66499999D01*
X126593775Y-68614285D02*
X126060441Y-68614285D01*
X125793775Y-68614285D02*
X125831870Y-68652381D01*
X125831870Y-68652381D02*
X125869965Y-68614285D01*
X125869965Y-68614285D02*
X125831870Y-68576190D01*
X125831870Y-68576190D02*
X125793775Y-68614285D01*
X125793775Y-68614285D02*
X125869965Y-68614285D01*
X126060441Y-68233333D02*
X126593775Y-68233333D01*
X126136632Y-68233333D02*
X126098537Y-68195238D01*
X126098537Y-68195238D02*
X126060441Y-68119048D01*
X126060441Y-68119048D02*
X126060441Y-68004762D01*
X126060441Y-68004762D02*
X126098537Y-67928571D01*
X126098537Y-67928571D02*
X126174727Y-67890476D01*
X126174727Y-67890476D02*
X126593775Y-67890476D01*
X126060441Y-67509523D02*
X126860441Y-67509523D01*
X126098537Y-67509523D02*
X126060441Y-67433333D01*
X126060441Y-67433333D02*
X126060441Y-67280952D01*
X126060441Y-67280952D02*
X126098537Y-67204761D01*
X126098537Y-67204761D02*
X126136632Y-67166666D01*
X126136632Y-67166666D02*
X126212822Y-67128571D01*
X126212822Y-67128571D02*
X126441394Y-67128571D01*
X126441394Y-67128571D02*
X126517584Y-67166666D01*
X126517584Y-67166666D02*
X126555680Y-67204761D01*
X126555680Y-67204761D02*
X126593775Y-67280952D01*
X126593775Y-67280952D02*
X126593775Y-67433333D01*
X126593775Y-67433333D02*
X126555680Y-67509523D01*
X126060441Y-66442856D02*
X126593775Y-66442856D01*
X126060441Y-66785713D02*
X126479489Y-66785713D01*
X126479489Y-66785713D02*
X126555680Y-66747618D01*
X126555680Y-66747618D02*
X126593775Y-66671428D01*
X126593775Y-66671428D02*
X126593775Y-66557142D01*
X126593775Y-66557142D02*
X126555680Y-66480951D01*
X126555680Y-66480951D02*
X126517584Y-66442856D01*
X126060441Y-66176189D02*
X126060441Y-65871427D01*
X125793775Y-66061903D02*
X126479489Y-66061903D01*
X126479489Y-66061903D02*
X126555680Y-66023808D01*
X126555680Y-66023808D02*
X126593775Y-65947618D01*
X126593775Y-65947618D02*
X126593775Y-65871427D01*
D11*
X141337640Y-68667293D02*
X141337640Y-67981579D01*
X141680497Y-68324436D02*
X140994782Y-68324436D01*
X141680497Y-67081578D02*
X141680497Y-67595864D01*
X141680497Y-67338721D02*
X140780497Y-67338721D01*
X140780497Y-67338721D02*
X140909068Y-67424435D01*
X140909068Y-67424435D02*
X140994782Y-67510150D01*
X140994782Y-67510150D02*
X141037640Y-67595864D01*
X140866211Y-66738721D02*
X140823354Y-66695864D01*
X140823354Y-66695864D02*
X140780497Y-66610150D01*
X140780497Y-66610150D02*
X140780497Y-66395864D01*
X140780497Y-66395864D02*
X140823354Y-66310150D01*
X140823354Y-66310150D02*
X140866211Y-66267292D01*
X140866211Y-66267292D02*
X140951925Y-66224435D01*
X140951925Y-66224435D02*
X141037640Y-66224435D01*
X141037640Y-66224435D02*
X141166211Y-66267292D01*
X141166211Y-66267292D02*
X141680497Y-66781578D01*
X141680497Y-66781578D02*
X141680497Y-66224435D01*
X141080497Y-65924435D02*
X141680497Y-65710149D01*
X141680497Y-65710149D02*
X141080497Y-65495864D01*
D12*
X135214838Y-67806517D02*
X135167219Y-67901755D01*
X135167219Y-67901755D02*
X135167219Y-68044612D01*
X135167219Y-68044612D02*
X135214838Y-68187469D01*
X135214838Y-68187469D02*
X135310076Y-68282707D01*
X135310076Y-68282707D02*
X135405314Y-68330326D01*
X135405314Y-68330326D02*
X135595790Y-68377945D01*
X135595790Y-68377945D02*
X135738647Y-68377945D01*
X135738647Y-68377945D02*
X135929123Y-68330326D01*
X135929123Y-68330326D02*
X136024361Y-68282707D01*
X136024361Y-68282707D02*
X136119600Y-68187469D01*
X136119600Y-68187469D02*
X136167219Y-68044612D01*
X136167219Y-68044612D02*
X136167219Y-67949374D01*
X136167219Y-67949374D02*
X136119600Y-67806517D01*
X136119600Y-67806517D02*
X136071980Y-67758898D01*
X136071980Y-67758898D02*
X135738647Y-67758898D01*
X135738647Y-67758898D02*
X135738647Y-67949374D01*
X136167219Y-67330326D02*
X135167219Y-67330326D01*
X135167219Y-67330326D02*
X136167219Y-66758898D01*
X136167219Y-66758898D02*
X135167219Y-66758898D01*
X136167219Y-66282707D02*
X135167219Y-66282707D01*
X135167219Y-66282707D02*
X135167219Y-66044612D01*
X135167219Y-66044612D02*
X135214838Y-65901755D01*
X135214838Y-65901755D02*
X135310076Y-65806517D01*
X135310076Y-65806517D02*
X135405314Y-65758898D01*
X135405314Y-65758898D02*
X135595790Y-65711279D01*
X135595790Y-65711279D02*
X135738647Y-65711279D01*
X135738647Y-65711279D02*
X135929123Y-65758898D01*
X135929123Y-65758898D02*
X136024361Y-65806517D01*
X136024361Y-65806517D02*
X136119600Y-65901755D01*
X136119600Y-65901755D02*
X136167219Y-66044612D01*
X136167219Y-66044612D02*
X136167219Y-66282707D01*
D10*
X129772486Y-67414285D02*
X129772486Y-67109523D01*
X129505820Y-67299999D02*
X130191534Y-67299999D01*
X130191534Y-67299999D02*
X130267725Y-67261904D01*
X130267725Y-67261904D02*
X130305820Y-67185714D01*
X130305820Y-67185714D02*
X130305820Y-67109523D01*
X130305820Y-66728571D02*
X130267725Y-66804761D01*
X130267725Y-66804761D02*
X130229629Y-66842856D01*
X130229629Y-66842856D02*
X130153439Y-66880952D01*
X130153439Y-66880952D02*
X129924867Y-66880952D01*
X129924867Y-66880952D02*
X129848677Y-66842856D01*
X129848677Y-66842856D02*
X129810582Y-66804761D01*
X129810582Y-66804761D02*
X129772486Y-66728571D01*
X129772486Y-66728571D02*
X129772486Y-66614285D01*
X129772486Y-66614285D02*
X129810582Y-66538094D01*
X129810582Y-66538094D02*
X129848677Y-66499999D01*
X129848677Y-66499999D02*
X129924867Y-66461904D01*
X129924867Y-66461904D02*
X130153439Y-66461904D01*
X130153439Y-66461904D02*
X130229629Y-66499999D01*
X130229629Y-66499999D02*
X130267725Y-66538094D01*
X130267725Y-66538094D02*
X130305820Y-66614285D01*
X130305820Y-66614285D02*
X130305820Y-66728571D01*
X131555680Y-68614285D02*
X131593775Y-68538094D01*
X131593775Y-68538094D02*
X131593775Y-68385713D01*
X131593775Y-68385713D02*
X131555680Y-68309523D01*
X131555680Y-68309523D02*
X131479489Y-68271427D01*
X131479489Y-68271427D02*
X131441394Y-68271427D01*
X131441394Y-68271427D02*
X131365203Y-68309523D01*
X131365203Y-68309523D02*
X131327108Y-68385713D01*
X131327108Y-68385713D02*
X131327108Y-68499999D01*
X131327108Y-68499999D02*
X131289013Y-68576189D01*
X131289013Y-68576189D02*
X131212822Y-68614285D01*
X131212822Y-68614285D02*
X131174727Y-68614285D01*
X131174727Y-68614285D02*
X131098537Y-68576189D01*
X131098537Y-68576189D02*
X131060441Y-68499999D01*
X131060441Y-68499999D02*
X131060441Y-68385713D01*
X131060441Y-68385713D02*
X131098537Y-68309523D01*
X131060441Y-68004761D02*
X131593775Y-67852380D01*
X131593775Y-67852380D02*
X131212822Y-67699999D01*
X131212822Y-67699999D02*
X131593775Y-67547618D01*
X131593775Y-67547618D02*
X131060441Y-67395237D01*
X131593775Y-67090475D02*
X131060441Y-67090475D01*
X130793775Y-67090475D02*
X130831870Y-67128571D01*
X130831870Y-67128571D02*
X130869965Y-67090475D01*
X130869965Y-67090475D02*
X130831870Y-67052380D01*
X130831870Y-67052380D02*
X130793775Y-67090475D01*
X130793775Y-67090475D02*
X130869965Y-67090475D01*
X131060441Y-66823809D02*
X131060441Y-66519047D01*
X130793775Y-66709523D02*
X131479489Y-66709523D01*
X131479489Y-66709523D02*
X131555680Y-66671428D01*
X131555680Y-66671428D02*
X131593775Y-66595238D01*
X131593775Y-66595238D02*
X131593775Y-66519047D01*
X131555680Y-65909523D02*
X131593775Y-65985714D01*
X131593775Y-65985714D02*
X131593775Y-66138095D01*
X131593775Y-66138095D02*
X131555680Y-66214285D01*
X131555680Y-66214285D02*
X131517584Y-66252380D01*
X131517584Y-66252380D02*
X131441394Y-66290476D01*
X131441394Y-66290476D02*
X131212822Y-66290476D01*
X131212822Y-66290476D02*
X131136632Y-66252380D01*
X131136632Y-66252380D02*
X131098537Y-66214285D01*
X131098537Y-66214285D02*
X131060441Y-66138095D01*
X131060441Y-66138095D02*
X131060441Y-65985714D01*
X131060441Y-65985714D02*
X131098537Y-65909523D01*
X131593775Y-65566666D02*
X130793775Y-65566666D01*
X131593775Y-65223809D02*
X131174727Y-65223809D01*
X131174727Y-65223809D02*
X131098537Y-65261904D01*
X131098537Y-65261904D02*
X131060441Y-65338095D01*
X131060441Y-65338095D02*
X131060441Y-65452381D01*
X131060441Y-65452381D02*
X131098537Y-65528571D01*
X131098537Y-65528571D02*
X131136632Y-65566666D01*
D13*
X133616666Y-55134819D02*
X133616666Y-55849104D01*
X133616666Y-55849104D02*
X133569047Y-55991961D01*
X133569047Y-55991961D02*
X133473809Y-56087200D01*
X133473809Y-56087200D02*
X133330952Y-56134819D01*
X133330952Y-56134819D02*
X133235714Y-56134819D01*
X134616666Y-56134819D02*
X134045238Y-56134819D01*
X134330952Y-56134819D02*
X134330952Y-55134819D01*
X134330952Y-55134819D02*
X134235714Y-55277676D01*
X134235714Y-55277676D02*
X134140476Y-55372914D01*
X134140476Y-55372914D02*
X134045238Y-55420533D01*
X117083333Y-85259580D02*
X117035714Y-85307200D01*
X117035714Y-85307200D02*
X116892857Y-85354819D01*
X116892857Y-85354819D02*
X116797619Y-85354819D01*
X116797619Y-85354819D02*
X116654762Y-85307200D01*
X116654762Y-85307200D02*
X116559524Y-85211961D01*
X116559524Y-85211961D02*
X116511905Y-85116723D01*
X116511905Y-85116723D02*
X116464286Y-84926247D01*
X116464286Y-84926247D02*
X116464286Y-84783390D01*
X116464286Y-84783390D02*
X116511905Y-84592914D01*
X116511905Y-84592914D02*
X116559524Y-84497676D01*
X116559524Y-84497676D02*
X116654762Y-84402438D01*
X116654762Y-84402438D02*
X116797619Y-84354819D01*
X116797619Y-84354819D02*
X116892857Y-84354819D01*
X116892857Y-84354819D02*
X117035714Y-84402438D01*
X117035714Y-84402438D02*
X117083333Y-84450057D01*
X117464286Y-84450057D02*
X117511905Y-84402438D01*
X117511905Y-84402438D02*
X117607143Y-84354819D01*
X117607143Y-84354819D02*
X117845238Y-84354819D01*
X117845238Y-84354819D02*
X117940476Y-84402438D01*
X117940476Y-84402438D02*
X117988095Y-84450057D01*
X117988095Y-84450057D02*
X118035714Y-84545295D01*
X118035714Y-84545295D02*
X118035714Y-84640533D01*
X118035714Y-84640533D02*
X117988095Y-84783390D01*
X117988095Y-84783390D02*
X117416667Y-85354819D01*
X117416667Y-85354819D02*
X118035714Y-85354819D01*
X119913095Y-83248569D02*
X119913095Y-84058092D01*
X119913095Y-84058092D02*
X119960714Y-84153330D01*
X119960714Y-84153330D02*
X120008333Y-84200950D01*
X120008333Y-84200950D02*
X120103571Y-84248569D01*
X120103571Y-84248569D02*
X120294047Y-84248569D01*
X120294047Y-84248569D02*
X120389285Y-84200950D01*
X120389285Y-84200950D02*
X120436904Y-84153330D01*
X120436904Y-84153330D02*
X120484523Y-84058092D01*
X120484523Y-84058092D02*
X120484523Y-83248569D01*
X120913095Y-83343807D02*
X120960714Y-83296188D01*
X120960714Y-83296188D02*
X121055952Y-83248569D01*
X121055952Y-83248569D02*
X121294047Y-83248569D01*
X121294047Y-83248569D02*
X121389285Y-83296188D01*
X121389285Y-83296188D02*
X121436904Y-83343807D01*
X121436904Y-83343807D02*
X121484523Y-83439045D01*
X121484523Y-83439045D02*
X121484523Y-83534283D01*
X121484523Y-83534283D02*
X121436904Y-83677140D01*
X121436904Y-83677140D02*
X120865476Y-84248569D01*
X120865476Y-84248569D02*
X121484523Y-84248569D01*
X115533333Y-95059580D02*
X115485714Y-95107200D01*
X115485714Y-95107200D02*
X115342857Y-95154819D01*
X115342857Y-95154819D02*
X115247619Y-95154819D01*
X115247619Y-95154819D02*
X115104762Y-95107200D01*
X115104762Y-95107200D02*
X115009524Y-95011961D01*
X115009524Y-95011961D02*
X114961905Y-94916723D01*
X114961905Y-94916723D02*
X114914286Y-94726247D01*
X114914286Y-94726247D02*
X114914286Y-94583390D01*
X114914286Y-94583390D02*
X114961905Y-94392914D01*
X114961905Y-94392914D02*
X115009524Y-94297676D01*
X115009524Y-94297676D02*
X115104762Y-94202438D01*
X115104762Y-94202438D02*
X115247619Y-94154819D01*
X115247619Y-94154819D02*
X115342857Y-94154819D01*
X115342857Y-94154819D02*
X115485714Y-94202438D01*
X115485714Y-94202438D02*
X115533333Y-94250057D01*
X116485714Y-95154819D02*
X115914286Y-95154819D01*
X116200000Y-95154819D02*
X116200000Y-94154819D01*
X116200000Y-94154819D02*
X116104762Y-94297676D01*
X116104762Y-94297676D02*
X116009524Y-94392914D01*
X116009524Y-94392914D02*
X115914286Y-94440533D01*
X117754819Y-108742195D02*
X117278628Y-109075528D01*
X117754819Y-109313623D02*
X116754819Y-109313623D01*
X116754819Y-109313623D02*
X116754819Y-108932671D01*
X116754819Y-108932671D02*
X116802438Y-108837433D01*
X116802438Y-108837433D02*
X116850057Y-108789814D01*
X116850057Y-108789814D02*
X116945295Y-108742195D01*
X116945295Y-108742195D02*
X117088152Y-108742195D01*
X117088152Y-108742195D02*
X117183390Y-108789814D01*
X117183390Y-108789814D02*
X117231009Y-108837433D01*
X117231009Y-108837433D02*
X117278628Y-108932671D01*
X117278628Y-108932671D02*
X117278628Y-109313623D01*
X116850057Y-108361242D02*
X116802438Y-108313623D01*
X116802438Y-108313623D02*
X116754819Y-108218385D01*
X116754819Y-108218385D02*
X116754819Y-107980290D01*
X116754819Y-107980290D02*
X116802438Y-107885052D01*
X116802438Y-107885052D02*
X116850057Y-107837433D01*
X116850057Y-107837433D02*
X116945295Y-107789814D01*
X116945295Y-107789814D02*
X117040533Y-107789814D01*
X117040533Y-107789814D02*
X117183390Y-107837433D01*
X117183390Y-107837433D02*
X117754819Y-108408861D01*
X117754819Y-108408861D02*
X117754819Y-107789814D01*
X130058095Y-108044819D02*
X130058095Y-108854342D01*
X130058095Y-108854342D02*
X130105714Y-108949580D01*
X130105714Y-108949580D02*
X130153333Y-108997200D01*
X130153333Y-108997200D02*
X130248571Y-109044819D01*
X130248571Y-109044819D02*
X130439047Y-109044819D01*
X130439047Y-109044819D02*
X130534285Y-108997200D01*
X130534285Y-108997200D02*
X130581904Y-108949580D01*
X130581904Y-108949580D02*
X130629523Y-108854342D01*
X130629523Y-108854342D02*
X130629523Y-108044819D01*
X131058095Y-108997200D02*
X131200952Y-109044819D01*
X131200952Y-109044819D02*
X131439047Y-109044819D01*
X131439047Y-109044819D02*
X131534285Y-108997200D01*
X131534285Y-108997200D02*
X131581904Y-108949580D01*
X131581904Y-108949580D02*
X131629523Y-108854342D01*
X131629523Y-108854342D02*
X131629523Y-108759104D01*
X131629523Y-108759104D02*
X131581904Y-108663866D01*
X131581904Y-108663866D02*
X131534285Y-108616247D01*
X131534285Y-108616247D02*
X131439047Y-108568628D01*
X131439047Y-108568628D02*
X131248571Y-108521009D01*
X131248571Y-108521009D02*
X131153333Y-108473390D01*
X131153333Y-108473390D02*
X131105714Y-108425771D01*
X131105714Y-108425771D02*
X131058095Y-108330533D01*
X131058095Y-108330533D02*
X131058095Y-108235295D01*
X131058095Y-108235295D02*
X131105714Y-108140057D01*
X131105714Y-108140057D02*
X131153333Y-108092438D01*
X131153333Y-108092438D02*
X131248571Y-108044819D01*
X131248571Y-108044819D02*
X131486666Y-108044819D01*
X131486666Y-108044819D02*
X131629523Y-108092438D01*
X132391428Y-108521009D02*
X132534285Y-108568628D01*
X132534285Y-108568628D02*
X132581904Y-108616247D01*
X132581904Y-108616247D02*
X132629523Y-108711485D01*
X132629523Y-108711485D02*
X132629523Y-108854342D01*
X132629523Y-108854342D02*
X132581904Y-108949580D01*
X132581904Y-108949580D02*
X132534285Y-108997200D01*
X132534285Y-108997200D02*
X132439047Y-109044819D01*
X132439047Y-109044819D02*
X132058095Y-109044819D01*
X132058095Y-109044819D02*
X132058095Y-108044819D01*
X132058095Y-108044819D02*
X132391428Y-108044819D01*
X132391428Y-108044819D02*
X132486666Y-108092438D01*
X132486666Y-108092438D02*
X132534285Y-108140057D01*
X132534285Y-108140057D02*
X132581904Y-108235295D01*
X132581904Y-108235295D02*
X132581904Y-108330533D01*
X132581904Y-108330533D02*
X132534285Y-108425771D01*
X132534285Y-108425771D02*
X132486666Y-108473390D01*
X132486666Y-108473390D02*
X132391428Y-108521009D01*
X132391428Y-108521009D02*
X132058095Y-108521009D01*
X122192319Y-109851123D02*
X121192319Y-109851123D01*
X121192319Y-109851123D02*
X121192319Y-109613028D01*
X121192319Y-109613028D02*
X121239938Y-109470171D01*
X121239938Y-109470171D02*
X121335176Y-109374933D01*
X121335176Y-109374933D02*
X121430414Y-109327314D01*
X121430414Y-109327314D02*
X121620890Y-109279695D01*
X121620890Y-109279695D02*
X121763747Y-109279695D01*
X121763747Y-109279695D02*
X121954223Y-109327314D01*
X121954223Y-109327314D02*
X122049461Y-109374933D01*
X122049461Y-109374933D02*
X122144700Y-109470171D01*
X122144700Y-109470171D02*
X122192319Y-109613028D01*
X122192319Y-109613028D02*
X122192319Y-109851123D01*
X122192319Y-108327314D02*
X122192319Y-108898742D01*
X122192319Y-108613028D02*
X121192319Y-108613028D01*
X121192319Y-108613028D02*
X121335176Y-108708266D01*
X121335176Y-108708266D02*
X121430414Y-108803504D01*
X121430414Y-108803504D02*
X121478033Y-108898742D01*
X111961905Y-82954819D02*
X111961905Y-81954819D01*
X112533333Y-82954819D02*
X112104762Y-82383390D01*
X112533333Y-81954819D02*
X111961905Y-82526247D01*
X113485714Y-82954819D02*
X112914286Y-82954819D01*
X113200000Y-82954819D02*
X113200000Y-81954819D01*
X113200000Y-81954819D02*
X113104762Y-82097676D01*
X113104762Y-82097676D02*
X113009524Y-82192914D01*
X113009524Y-82192914D02*
X112914286Y-82240533D01*
X117550057Y-100095238D02*
X117502438Y-100190476D01*
X117502438Y-100190476D02*
X117407200Y-100285714D01*
X117407200Y-100285714D02*
X117264342Y-100428571D01*
X117264342Y-100428571D02*
X117216723Y-100523809D01*
X117216723Y-100523809D02*
X117216723Y-100619047D01*
X117454819Y-100571428D02*
X117407200Y-100666666D01*
X117407200Y-100666666D02*
X117311961Y-100761904D01*
X117311961Y-100761904D02*
X117121485Y-100809523D01*
X117121485Y-100809523D02*
X116788152Y-100809523D01*
X116788152Y-100809523D02*
X116597676Y-100761904D01*
X116597676Y-100761904D02*
X116502438Y-100666666D01*
X116502438Y-100666666D02*
X116454819Y-100571428D01*
X116454819Y-100571428D02*
X116454819Y-100380952D01*
X116454819Y-100380952D02*
X116502438Y-100285714D01*
X116502438Y-100285714D02*
X116597676Y-100190476D01*
X116597676Y-100190476D02*
X116788152Y-100142857D01*
X116788152Y-100142857D02*
X117121485Y-100142857D01*
X117121485Y-100142857D02*
X117311961Y-100190476D01*
X117311961Y-100190476D02*
X117407200Y-100285714D01*
X117407200Y-100285714D02*
X117454819Y-100380952D01*
X117454819Y-100380952D02*
X117454819Y-100571428D01*
X117454819Y-99190476D02*
X117454819Y-99761904D01*
X117454819Y-99476190D02*
X116454819Y-99476190D01*
X116454819Y-99476190D02*
X116597676Y-99571428D01*
X116597676Y-99571428D02*
X116692914Y-99666666D01*
X116692914Y-99666666D02*
X116740533Y-99761904D01*
X112054819Y-103566666D02*
X111578628Y-103899999D01*
X112054819Y-104138094D02*
X111054819Y-104138094D01*
X111054819Y-104138094D02*
X111054819Y-103757142D01*
X111054819Y-103757142D02*
X111102438Y-103661904D01*
X111102438Y-103661904D02*
X111150057Y-103614285D01*
X111150057Y-103614285D02*
X111245295Y-103566666D01*
X111245295Y-103566666D02*
X111388152Y-103566666D01*
X111388152Y-103566666D02*
X111483390Y-103614285D01*
X111483390Y-103614285D02*
X111531009Y-103661904D01*
X111531009Y-103661904D02*
X111578628Y-103757142D01*
X111578628Y-103757142D02*
X111578628Y-104138094D01*
X112054819Y-102614285D02*
X112054819Y-103185713D01*
X112054819Y-102899999D02*
X111054819Y-102899999D01*
X111054819Y-102899999D02*
X111197676Y-102995237D01*
X111197676Y-102995237D02*
X111292914Y-103090475D01*
X111292914Y-103090475D02*
X111340533Y-103185713D01*
D14*
%TO.C,R3*%
X119665000Y-103627064D02*
X119665000Y-103172936D01*
X121135000Y-103627064D02*
X121135000Y-103172936D01*
%TO.C,J1*%
X123580000Y-56680000D02*
X123580000Y-64720000D01*
X123580000Y-56680000D02*
X144320000Y-56680000D01*
X123580000Y-60300000D02*
X124820000Y-60300000D01*
X123580000Y-61300000D02*
X124820000Y-61300000D01*
X123580000Y-62600000D02*
X124820000Y-62600000D01*
X123580000Y-64720000D02*
X126400000Y-64720000D01*
X127000000Y-64720000D02*
X144320000Y-64720000D01*
X128580000Y-60300000D02*
X129888000Y-60300000D01*
X128580000Y-61300000D02*
X129888000Y-61300000D01*
X128580000Y-62600000D02*
X131157000Y-62600000D01*
X132243000Y-62600000D02*
X136157000Y-62600000D01*
X133512000Y-60300000D02*
X134888000Y-60300000D01*
X133512000Y-61300000D02*
X134888000Y-61300000D01*
X137243000Y-62600000D02*
X141157000Y-62600000D01*
X138512000Y-60300000D02*
X139888000Y-60300000D01*
X138512000Y-61300000D02*
X139888000Y-61300000D01*
X142243000Y-62600000D02*
X144320000Y-62600000D01*
X143512000Y-60300000D02*
X144320000Y-60300000D01*
X143512000Y-61300000D02*
X144320000Y-61300000D01*
X144320000Y-56680000D02*
X144320000Y-64720000D01*
X127140000Y-65330000D02*
X126260000Y-65330000D01*
X126700000Y-64720000D01*
X127140000Y-65330000D01*
G36*
X127140000Y-65330000D02*
G01*
X126260000Y-65330000D01*
X126700000Y-64720000D01*
X127140000Y-65330000D01*
G37*
%TO.C,C2*%
X114461252Y-84165000D02*
X113938748Y-84165000D01*
X114461252Y-85635000D02*
X113938748Y-85635000D01*
%TO.C,U2*%
X114875000Y-87015000D02*
X118635000Y-87015000D01*
X114875000Y-93835000D02*
X118635000Y-93835000D01*
X118635000Y-87015000D02*
X118635000Y-88275000D01*
X118635000Y-93835000D02*
X118635000Y-92575000D01*
X113595000Y-87115000D02*
X113355000Y-86785000D01*
X113835000Y-86785000D01*
X113595000Y-87115000D01*
G36*
X113595000Y-87115000D02*
G01*
X113355000Y-86785000D01*
X113835000Y-86785000D01*
X113595000Y-87115000D01*
G37*
%TO.C,C1*%
X112700000Y-96340000D02*
X113200000Y-96340000D01*
X112950000Y-96090000D02*
X112950000Y-96590000D01*
X113440000Y-96704437D02*
X113440000Y-96840000D01*
X113440000Y-96704437D02*
X114504437Y-95640000D01*
X113440000Y-99095563D02*
X113440000Y-98960000D01*
X113440000Y-99095563D02*
X114504437Y-100160000D01*
X114504437Y-95640000D02*
X117960000Y-95640000D01*
X114504437Y-100160000D02*
X117960000Y-100160000D01*
X117960000Y-95640000D02*
X117960000Y-96840000D01*
X117960000Y-100160000D02*
X117960000Y-98960000D01*
%TO.C,R2*%
X114865000Y-108802593D02*
X114865000Y-108348465D01*
X116335000Y-108802593D02*
X116335000Y-108348465D01*
%TO.C,A1*%
X122300000Y-69090000D02*
X122300000Y-71760000D01*
X122300000Y-74300000D02*
X122300000Y-112530000D01*
X122300000Y-112530000D02*
X127380000Y-112530000D01*
X124970000Y-71760000D02*
X122300000Y-71760000D01*
X124970000Y-74300000D02*
X122300000Y-74300000D01*
X124970000Y-74300000D02*
X124970000Y-71760000D01*
X124970000Y-74300000D02*
X124970000Y-109860000D01*
X124970000Y-109860000D02*
X122300000Y-109860000D01*
X127380000Y-104650000D02*
X135260000Y-104650000D01*
X127380000Y-115070000D02*
X127380000Y-104650000D01*
X135260000Y-104650000D02*
X135260000Y-115070000D01*
X135260000Y-115070000D02*
X127380000Y-115070000D01*
X137670000Y-71760000D02*
X137670000Y-109860000D01*
X137670000Y-71760000D02*
X140340000Y-71760000D01*
X137670000Y-109860000D02*
X140340000Y-109860000D01*
X140340000Y-69090000D02*
X122300000Y-69090000D01*
X140340000Y-112530000D02*
X135260000Y-112530000D01*
X140340000Y-112530000D02*
X140340000Y-69090000D01*
%TO.C,D1*%
X118737500Y-106753029D02*
X118737500Y-110763029D01*
X120737500Y-106753029D02*
X118737500Y-106753029D01*
X120737500Y-106753029D02*
X120737500Y-110763029D01*
%TO.C,K1*%
X104990000Y-62590000D02*
X120410000Y-62590000D01*
X104990000Y-81610000D02*
X104990000Y-62590000D01*
X104990000Y-81610000D02*
X111500000Y-81610000D01*
X106700000Y-74300000D02*
X106700000Y-76600000D01*
X106700000Y-74300000D02*
X111200000Y-74300000D01*
X108400000Y-66100000D02*
X110700000Y-66100000D01*
X111200000Y-71800000D02*
X114200000Y-71800000D01*
X111200000Y-76800000D02*
X111200000Y-71800000D01*
X112700000Y-69300000D02*
X110000000Y-64800000D01*
X112700000Y-70800000D02*
X112700000Y-69300000D01*
X112700000Y-70800000D02*
X116400000Y-70800000D01*
X112700000Y-77700000D02*
X112700000Y-78600000D01*
X112700000Y-77700000D02*
X116400000Y-77700000D01*
X113900000Y-81610000D02*
X120410000Y-81610000D01*
X114200000Y-71800000D02*
X111200000Y-76800000D01*
X114200000Y-71800000D02*
X114200000Y-76800000D01*
X114200000Y-74300000D02*
X118700000Y-74300000D01*
X114200000Y-76800000D02*
X111200000Y-76800000D01*
X116400000Y-70800000D02*
X116400000Y-77700000D01*
X117000000Y-66100000D02*
X114700000Y-66100000D01*
X118700000Y-76600000D02*
X118700000Y-74300000D01*
X120410000Y-62600000D02*
X120410000Y-81610000D01*
X120650000Y-79450000D02*
X120650000Y-77150000D01*
%TO.C,Q1*%
X115440000Y-103325000D02*
X115440000Y-102675000D01*
X115440000Y-103325000D02*
X115440000Y-103975000D01*
X118560000Y-103325000D02*
X118560000Y-102675000D01*
X118560000Y-103325000D02*
X118560000Y-103975000D01*
X118840000Y-102402500D02*
X118510000Y-102162500D01*
X118840000Y-101922500D01*
X118840000Y-102402500D01*
G36*
X118840000Y-102402500D02*
G01*
X118510000Y-102162500D01*
X118840000Y-101922500D01*
X118840000Y-102402500D01*
G37*
%TO.C,R1*%
X112565000Y-103172936D02*
X112565000Y-103627064D01*
X114035000Y-103172936D02*
X114035000Y-103627064D01*
%TD*%
M02*
