%TF.GenerationSoftware,KiCad,Pcbnew,9.0.2+dfsg-1*%
%TF.CreationDate,2026-03-20T13:21:01-07:00*%
%TF.ProjectId,battery switch delay,62617474-6572-4792-9073-776974636820,rev?*%
%TF.SameCoordinates,Original*%
%TF.FileFunction,Soldermask,Top*%
%TF.FilePolarity,Negative*%
%FSLAX46Y46*%
G04 Gerber Fmt 4.6, Leading zero omitted, Abs format (unit mm)*
G04 Created by KiCad (PCBNEW 9.0.2+dfsg-1) date 2026-03-20 13:21:01*
%MOMM*%
%LPD*%
G01*
G04 APERTURE LIST*
G04 Aperture macros list*
%AMRoundRect*
0 Rectangle with rounded corners*
0 $1 Rounding radius*
0 $2 $3 $4 $5 $6 $7 $8 $9 X,Y pos of 4 corners*
0 Add a 4 corners polygon primitive as box body*
4,1,4,$2,$3,$4,$5,$6,$7,$8,$9,$2,$3,0*
0 Add four circle primitives for the rounded corners*
1,1,$1+$1,$2,$3*
1,1,$1+$1,$4,$5*
1,1,$1+$1,$6,$7*
1,1,$1+$1,$8,$9*
0 Add four rect primitives between the rounded corners*
20,1,$1+$1,$2,$3,$4,$5,0*
20,1,$1+$1,$4,$5,$6,$7,0*
20,1,$1+$1,$6,$7,$8,$9,0*
20,1,$1+$1,$8,$9,$2,$3,0*%
G04 Aperture macros list end*
%ADD10RoundRect,0.250000X0.450000X-0.350000X0.450000X0.350000X-0.450000X0.350000X-0.450000X-0.350000X0*%
%ADD11RoundRect,0.250001X-1.149999X-1.149999X1.149999X-1.149999X1.149999X1.149999X-1.149999X1.149999X0*%
%ADD12C,2.800000*%
%ADD13RoundRect,0.250000X0.337500X0.475000X-0.337500X0.475000X-0.337500X-0.475000X0.337500X-0.475000X0*%
%ADD14RoundRect,0.375000X-0.625000X-0.375000X0.625000X-0.375000X0.625000X0.375000X-0.625000X0.375000X0*%
%ADD15RoundRect,0.500000X-0.500000X-1.400000X0.500000X-1.400000X0.500000X1.400000X-0.500000X1.400000X0*%
%ADD16RoundRect,0.250000X-1.050000X-0.550000X1.050000X-0.550000X1.050000X0.550000X-1.050000X0.550000X0*%
%ADD17C,2.600000*%
%ADD18C,3.500000*%
%ADD19R,1.600000X1.600000*%
%ADD20O,1.600000X1.600000*%
%ADD21RoundRect,0.225000X-0.375000X0.225000X-0.375000X-0.225000X0.375000X-0.225000X0.375000X0.225000X0*%
%ADD22C,2.400000*%
%ADD23RoundRect,0.250000X1.000000X1.000000X-1.000000X1.000000X-1.000000X-1.000000X1.000000X-1.000000X0*%
%ADD24RoundRect,0.150000X-0.150000X0.587500X-0.150000X-0.587500X0.150000X-0.587500X0.150000X0.587500X0*%
%ADD25RoundRect,0.250000X-0.450000X0.350000X-0.450000X-0.350000X0.450000X-0.350000X0.450000X0.350000X0*%
G04 APERTURE END LIST*
D10*
%TO.C,R3*%
X120400000Y-104400000D03*
X120400000Y-102400000D03*
%TD*%
D11*
%TO.C,J1*%
X126700000Y-60800000D03*
D12*
X131700000Y-60800000D03*
X136700000Y-60800000D03*
X141700000Y-60800000D03*
%TD*%
D13*
%TO.C,C2*%
X115237500Y-84900000D03*
X113162500Y-84900000D03*
%TD*%
D14*
%TO.C,U2*%
X113575000Y-88125000D03*
X113575000Y-90425000D03*
D15*
X119875000Y-90425000D03*
D14*
X113575000Y-92725000D03*
%TD*%
D16*
%TO.C,C1*%
X113900000Y-97900000D03*
X117500000Y-97900000D03*
%TD*%
D17*
%TO.C,REF\u002A\u002A*%
X142750000Y-70750000D03*
D18*
X142750000Y-70750000D03*
%TD*%
D10*
%TO.C,R2*%
X115600000Y-109575529D03*
X115600000Y-107575529D03*
%TD*%
D19*
%TO.C,A1*%
X123700000Y-73030000D03*
D20*
X123700000Y-75570000D03*
X123700000Y-78110000D03*
X123700000Y-80650000D03*
X123700000Y-83190000D03*
X123700000Y-85730000D03*
X123700000Y-88270000D03*
X123700000Y-90810000D03*
X123700000Y-93350000D03*
X123700000Y-95890000D03*
X123700000Y-98430000D03*
X123700000Y-100970000D03*
X123700000Y-103510000D03*
X123700000Y-106050000D03*
X123700000Y-108590000D03*
X138940000Y-108590000D03*
X138940000Y-106050000D03*
X138940000Y-103510000D03*
X138940000Y-100970000D03*
X138940000Y-98430000D03*
X138940000Y-95890000D03*
X138940000Y-93350000D03*
X138940000Y-90810000D03*
X138940000Y-88270000D03*
X138940000Y-85730000D03*
X138940000Y-83190000D03*
X138940000Y-80650000D03*
X138940000Y-78110000D03*
X138940000Y-75570000D03*
X138940000Y-73030000D03*
%TD*%
D21*
%TO.C,D1*%
X119737500Y-107463029D03*
X119737500Y-110763029D03*
%TD*%
D17*
%TO.C,REF\u002A\u002A*%
X106250000Y-58250000D03*
D18*
X106250000Y-58250000D03*
%TD*%
D22*
%TO.C,K1*%
X112700000Y-80300000D03*
X106700000Y-66100000D03*
X118700000Y-66100000D03*
D23*
X118700000Y-78300000D03*
D22*
X106700000Y-78300000D03*
%TD*%
D17*
%TO.C,REF\u002A\u002A*%
X106250000Y-110750000D03*
D18*
X106250000Y-110750000D03*
%TD*%
D24*
%TO.C,Q1*%
X117950000Y-102387500D03*
X116050000Y-102387500D03*
X117000000Y-104262500D03*
%TD*%
D25*
%TO.C,R1*%
X113300000Y-102400000D03*
X113300000Y-104400000D03*
%TD*%
D17*
%TO.C,REF\u002A\u002A*%
X142750000Y-110750000D03*
D18*
X142750000Y-110750000D03*
%TD*%
M02*
