%TF.GenerationSoftware,KiCad,Pcbnew,9.0.2+dfsg-1*%
%TF.CreationDate,2026-03-20T13:21:01-07:00*%
%TF.ProjectId,battery switch delay,62617474-6572-4792-9073-776974636820,rev?*%
%TF.SameCoordinates,Original*%
%TF.FileFunction,Legend,Bot*%
%TF.FilePolarity,Positive*%
%FSLAX46Y46*%
G04 Gerber Fmt 4.6, Leading zero omitted, Abs format (unit mm)*
G04 Created by KiCad (PCBNEW 9.0.2+dfsg-1) date 2026-03-20 13:21:01*
%MOMM*%
%LPD*%
G01*
G04 APERTURE LIST*
%ADD10C,0.100000*%
G04 APERTURE END LIST*
D10*
X126023808Y-105357419D02*
X125404761Y-105357419D01*
X125404761Y-105357419D02*
X125738094Y-105738371D01*
X125738094Y-105738371D02*
X125595237Y-105738371D01*
X125595237Y-105738371D02*
X125499999Y-105785990D01*
X125499999Y-105785990D02*
X125452380Y-105833609D01*
X125452380Y-105833609D02*
X125404761Y-105928847D01*
X125404761Y-105928847D02*
X125404761Y-106166942D01*
X125404761Y-106166942D02*
X125452380Y-106262180D01*
X125452380Y-106262180D02*
X125499999Y-106309800D01*
X125499999Y-106309800D02*
X125595237Y-106357419D01*
X125595237Y-106357419D02*
X125880951Y-106357419D01*
X125880951Y-106357419D02*
X125976189Y-106309800D01*
X125976189Y-106309800D02*
X126023808Y-106262180D01*
X124547618Y-105357419D02*
X124738094Y-105357419D01*
X124738094Y-105357419D02*
X124833332Y-105405038D01*
X124833332Y-105405038D02*
X124880951Y-105452657D01*
X124880951Y-105452657D02*
X124976189Y-105595514D01*
X124976189Y-105595514D02*
X125023808Y-105785990D01*
X125023808Y-105785990D02*
X125023808Y-106166942D01*
X125023808Y-106166942D02*
X124976189Y-106262180D01*
X124976189Y-106262180D02*
X124928570Y-106309800D01*
X124928570Y-106309800D02*
X124833332Y-106357419D01*
X124833332Y-106357419D02*
X124642856Y-106357419D01*
X124642856Y-106357419D02*
X124547618Y-106309800D01*
X124547618Y-106309800D02*
X124499999Y-106262180D01*
X124499999Y-106262180D02*
X124452380Y-106166942D01*
X124452380Y-106166942D02*
X124452380Y-105928847D01*
X124452380Y-105928847D02*
X124499999Y-105833609D01*
X124499999Y-105833609D02*
X124547618Y-105785990D01*
X124547618Y-105785990D02*
X124642856Y-105738371D01*
X124642856Y-105738371D02*
X124833332Y-105738371D01*
X124833332Y-105738371D02*
X124928570Y-105785990D01*
X124928570Y-105785990D02*
X124976189Y-105833609D01*
X124976189Y-105833609D02*
X125023808Y-105928847D01*
X124023808Y-106262180D02*
X123976189Y-106309800D01*
X123976189Y-106309800D02*
X124023808Y-106357419D01*
X124023808Y-106357419D02*
X124071427Y-106309800D01*
X124071427Y-106309800D02*
X124023808Y-106262180D01*
X124023808Y-106262180D02*
X124023808Y-106357419D01*
X123071428Y-105357419D02*
X123547618Y-105357419D01*
X123547618Y-105357419D02*
X123595237Y-105833609D01*
X123595237Y-105833609D02*
X123547618Y-105785990D01*
X123547618Y-105785990D02*
X123452380Y-105738371D01*
X123452380Y-105738371D02*
X123214285Y-105738371D01*
X123214285Y-105738371D02*
X123119047Y-105785990D01*
X123119047Y-105785990D02*
X123071428Y-105833609D01*
X123071428Y-105833609D02*
X123023809Y-105928847D01*
X123023809Y-105928847D02*
X123023809Y-106166942D01*
X123023809Y-106166942D02*
X123071428Y-106262180D01*
X123071428Y-106262180D02*
X123119047Y-106309800D01*
X123119047Y-106309800D02*
X123214285Y-106357419D01*
X123214285Y-106357419D02*
X123452380Y-106357419D01*
X123452380Y-106357419D02*
X123547618Y-106309800D01*
X123547618Y-106309800D02*
X123595237Y-106262180D01*
X106250000Y-110250000D02*
X106250000Y-106413580D01*
X142750000Y-106413580D02*
X142750000Y-110250000D01*
X106250000Y-107000000D02*
X142750000Y-107000000D01*
X106250000Y-107000000D02*
X107376504Y-106413579D01*
X106250000Y-107000000D02*
X107376504Y-107586421D01*
X142750000Y-107000000D02*
X141623496Y-107586421D01*
X142750000Y-107000000D02*
X141623496Y-106413579D01*
X107857419Y-83547619D02*
X107857419Y-83071429D01*
X107857419Y-83071429D02*
X108333609Y-83023810D01*
X108333609Y-83023810D02*
X108285990Y-83071429D01*
X108285990Y-83071429D02*
X108238371Y-83166667D01*
X108238371Y-83166667D02*
X108238371Y-83404762D01*
X108238371Y-83404762D02*
X108285990Y-83500000D01*
X108285990Y-83500000D02*
X108333609Y-83547619D01*
X108333609Y-83547619D02*
X108428847Y-83595238D01*
X108428847Y-83595238D02*
X108666942Y-83595238D01*
X108666942Y-83595238D02*
X108762180Y-83547619D01*
X108762180Y-83547619D02*
X108809800Y-83500000D01*
X108809800Y-83500000D02*
X108857419Y-83404762D01*
X108857419Y-83404762D02*
X108857419Y-83166667D01*
X108857419Y-83166667D02*
X108809800Y-83071429D01*
X108809800Y-83071429D02*
X108762180Y-83023810D01*
X107952657Y-83976191D02*
X107905038Y-84023810D01*
X107905038Y-84023810D02*
X107857419Y-84119048D01*
X107857419Y-84119048D02*
X107857419Y-84357143D01*
X107857419Y-84357143D02*
X107905038Y-84452381D01*
X107905038Y-84452381D02*
X107952657Y-84500000D01*
X107952657Y-84500000D02*
X108047895Y-84547619D01*
X108047895Y-84547619D02*
X108143133Y-84547619D01*
X108143133Y-84547619D02*
X108285990Y-84500000D01*
X108285990Y-84500000D02*
X108857419Y-83928572D01*
X108857419Y-83928572D02*
X108857419Y-84547619D01*
X108762180Y-84976191D02*
X108809800Y-85023810D01*
X108809800Y-85023810D02*
X108857419Y-84976191D01*
X108857419Y-84976191D02*
X108809800Y-84928572D01*
X108809800Y-84928572D02*
X108762180Y-84976191D01*
X108762180Y-84976191D02*
X108857419Y-84976191D01*
X107857419Y-85928571D02*
X107857419Y-85452381D01*
X107857419Y-85452381D02*
X108333609Y-85404762D01*
X108333609Y-85404762D02*
X108285990Y-85452381D01*
X108285990Y-85452381D02*
X108238371Y-85547619D01*
X108238371Y-85547619D02*
X108238371Y-85785714D01*
X108238371Y-85785714D02*
X108285990Y-85880952D01*
X108285990Y-85880952D02*
X108333609Y-85928571D01*
X108333609Y-85928571D02*
X108428847Y-85976190D01*
X108428847Y-85976190D02*
X108666942Y-85976190D01*
X108666942Y-85976190D02*
X108762180Y-85928571D01*
X108762180Y-85928571D02*
X108809800Y-85880952D01*
X108809800Y-85880952D02*
X108857419Y-85785714D01*
X108857419Y-85785714D02*
X108857419Y-85547619D01*
X108857419Y-85547619D02*
X108809800Y-85452381D01*
X108809800Y-85452381D02*
X108762180Y-85404762D01*
X106750000Y-58250000D02*
X110086420Y-58250000D01*
X110086420Y-110750000D02*
X106750000Y-110750000D01*
X109500000Y-58250000D02*
X109500000Y-110750000D01*
X109500000Y-58250000D02*
X110086421Y-59376504D01*
X109500000Y-58250000D02*
X108913579Y-59376504D01*
X109500000Y-110750000D02*
X108913579Y-109623496D01*
X109500000Y-110750000D02*
X110086421Y-109623496D01*
X134097419Y-75278884D02*
X133097419Y-75278884D01*
X134097419Y-75707455D02*
X133573609Y-75707455D01*
X133573609Y-75707455D02*
X133478371Y-75659836D01*
X133478371Y-75659836D02*
X133430752Y-75564598D01*
X133430752Y-75564598D02*
X133430752Y-75421741D01*
X133430752Y-75421741D02*
X133478371Y-75326503D01*
X133478371Y-75326503D02*
X133525990Y-75278884D01*
X133430752Y-76040789D02*
X133430752Y-76421741D01*
X133097419Y-76183646D02*
X133954561Y-76183646D01*
X133954561Y-76183646D02*
X134049800Y-76231265D01*
X134049800Y-76231265D02*
X134097419Y-76326503D01*
X134097419Y-76326503D02*
X134097419Y-76421741D01*
X133430752Y-76612218D02*
X133430752Y-76993170D01*
X133097419Y-76755075D02*
X133954561Y-76755075D01*
X133954561Y-76755075D02*
X134049800Y-76802694D01*
X134049800Y-76802694D02*
X134097419Y-76897932D01*
X134097419Y-76897932D02*
X134097419Y-76993170D01*
X133430752Y-77326504D02*
X134430752Y-77326504D01*
X133478371Y-77326504D02*
X133430752Y-77421742D01*
X133430752Y-77421742D02*
X133430752Y-77612218D01*
X133430752Y-77612218D02*
X133478371Y-77707456D01*
X133478371Y-77707456D02*
X133525990Y-77755075D01*
X133525990Y-77755075D02*
X133621228Y-77802694D01*
X133621228Y-77802694D02*
X133906942Y-77802694D01*
X133906942Y-77802694D02*
X134002180Y-77755075D01*
X134002180Y-77755075D02*
X134049800Y-77707456D01*
X134049800Y-77707456D02*
X134097419Y-77612218D01*
X134097419Y-77612218D02*
X134097419Y-77421742D01*
X134097419Y-77421742D02*
X134049800Y-77326504D01*
X134049800Y-78183647D02*
X134097419Y-78278885D01*
X134097419Y-78278885D02*
X134097419Y-78469361D01*
X134097419Y-78469361D02*
X134049800Y-78564599D01*
X134049800Y-78564599D02*
X133954561Y-78612218D01*
X133954561Y-78612218D02*
X133906942Y-78612218D01*
X133906942Y-78612218D02*
X133811704Y-78564599D01*
X133811704Y-78564599D02*
X133764085Y-78469361D01*
X133764085Y-78469361D02*
X133764085Y-78326504D01*
X133764085Y-78326504D02*
X133716466Y-78231266D01*
X133716466Y-78231266D02*
X133621228Y-78183647D01*
X133621228Y-78183647D02*
X133573609Y-78183647D01*
X133573609Y-78183647D02*
X133478371Y-78231266D01*
X133478371Y-78231266D02*
X133430752Y-78326504D01*
X133430752Y-78326504D02*
X133430752Y-78469361D01*
X133430752Y-78469361D02*
X133478371Y-78564599D01*
X134002180Y-79040790D02*
X134049800Y-79088409D01*
X134049800Y-79088409D02*
X134097419Y-79040790D01*
X134097419Y-79040790D02*
X134049800Y-78993171D01*
X134049800Y-78993171D02*
X134002180Y-79040790D01*
X134002180Y-79040790D02*
X134097419Y-79040790D01*
X133478371Y-79040790D02*
X133525990Y-79088409D01*
X133525990Y-79088409D02*
X133573609Y-79040790D01*
X133573609Y-79040790D02*
X133525990Y-78993171D01*
X133525990Y-78993171D02*
X133478371Y-79040790D01*
X133478371Y-79040790D02*
X133573609Y-79040790D01*
X133049800Y-80231265D02*
X134335514Y-79374123D01*
X133049800Y-81278884D02*
X134335514Y-80421742D01*
X133430752Y-82040789D02*
X134240276Y-82040789D01*
X134240276Y-82040789D02*
X134335514Y-81993170D01*
X134335514Y-81993170D02*
X134383133Y-81945551D01*
X134383133Y-81945551D02*
X134430752Y-81850313D01*
X134430752Y-81850313D02*
X134430752Y-81707456D01*
X134430752Y-81707456D02*
X134383133Y-81612218D01*
X134049800Y-82040789D02*
X134097419Y-81945551D01*
X134097419Y-81945551D02*
X134097419Y-81755075D01*
X134097419Y-81755075D02*
X134049800Y-81659837D01*
X134049800Y-81659837D02*
X134002180Y-81612218D01*
X134002180Y-81612218D02*
X133906942Y-81564599D01*
X133906942Y-81564599D02*
X133621228Y-81564599D01*
X133621228Y-81564599D02*
X133525990Y-81612218D01*
X133525990Y-81612218D02*
X133478371Y-81659837D01*
X133478371Y-81659837D02*
X133430752Y-81755075D01*
X133430752Y-81755075D02*
X133430752Y-81945551D01*
X133430752Y-81945551D02*
X133478371Y-82040789D01*
X134097419Y-82516980D02*
X133430752Y-82516980D01*
X133097419Y-82516980D02*
X133145038Y-82469361D01*
X133145038Y-82469361D02*
X133192657Y-82516980D01*
X133192657Y-82516980D02*
X133145038Y-82564599D01*
X133145038Y-82564599D02*
X133097419Y-82516980D01*
X133097419Y-82516980D02*
X133192657Y-82516980D01*
X133430752Y-82850313D02*
X133430752Y-83231265D01*
X133097419Y-82993170D02*
X133954561Y-82993170D01*
X133954561Y-82993170D02*
X134049800Y-83040789D01*
X134049800Y-83040789D02*
X134097419Y-83136027D01*
X134097419Y-83136027D02*
X134097419Y-83231265D01*
X134097419Y-83564599D02*
X133097419Y-83564599D01*
X134097419Y-83993170D02*
X133573609Y-83993170D01*
X133573609Y-83993170D02*
X133478371Y-83945551D01*
X133478371Y-83945551D02*
X133430752Y-83850313D01*
X133430752Y-83850313D02*
X133430752Y-83707456D01*
X133430752Y-83707456D02*
X133478371Y-83612218D01*
X133478371Y-83612218D02*
X133525990Y-83564599D01*
X133430752Y-84897932D02*
X134097419Y-84897932D01*
X133430752Y-84469361D02*
X133954561Y-84469361D01*
X133954561Y-84469361D02*
X134049800Y-84516980D01*
X134049800Y-84516980D02*
X134097419Y-84612218D01*
X134097419Y-84612218D02*
X134097419Y-84755075D01*
X134097419Y-84755075D02*
X134049800Y-84850313D01*
X134049800Y-84850313D02*
X134002180Y-84897932D01*
X134097419Y-85374123D02*
X133097419Y-85374123D01*
X133478371Y-85374123D02*
X133430752Y-85469361D01*
X133430752Y-85469361D02*
X133430752Y-85659837D01*
X133430752Y-85659837D02*
X133478371Y-85755075D01*
X133478371Y-85755075D02*
X133525990Y-85802694D01*
X133525990Y-85802694D02*
X133621228Y-85850313D01*
X133621228Y-85850313D02*
X133906942Y-85850313D01*
X133906942Y-85850313D02*
X134002180Y-85802694D01*
X134002180Y-85802694D02*
X134049800Y-85755075D01*
X134049800Y-85755075D02*
X134097419Y-85659837D01*
X134097419Y-85659837D02*
X134097419Y-85469361D01*
X134097419Y-85469361D02*
X134049800Y-85374123D01*
X134002180Y-86278885D02*
X134049800Y-86326504D01*
X134049800Y-86326504D02*
X134097419Y-86278885D01*
X134097419Y-86278885D02*
X134049800Y-86231266D01*
X134049800Y-86231266D02*
X134002180Y-86278885D01*
X134002180Y-86278885D02*
X134097419Y-86278885D01*
X134049800Y-87183646D02*
X134097419Y-87088408D01*
X134097419Y-87088408D02*
X134097419Y-86897932D01*
X134097419Y-86897932D02*
X134049800Y-86802694D01*
X134049800Y-86802694D02*
X134002180Y-86755075D01*
X134002180Y-86755075D02*
X133906942Y-86707456D01*
X133906942Y-86707456D02*
X133621228Y-86707456D01*
X133621228Y-86707456D02*
X133525990Y-86755075D01*
X133525990Y-86755075D02*
X133478371Y-86802694D01*
X133478371Y-86802694D02*
X133430752Y-86897932D01*
X133430752Y-86897932D02*
X133430752Y-87088408D01*
X133430752Y-87088408D02*
X133478371Y-87183646D01*
X134097419Y-87755075D02*
X134049800Y-87659837D01*
X134049800Y-87659837D02*
X134002180Y-87612218D01*
X134002180Y-87612218D02*
X133906942Y-87564599D01*
X133906942Y-87564599D02*
X133621228Y-87564599D01*
X133621228Y-87564599D02*
X133525990Y-87612218D01*
X133525990Y-87612218D02*
X133478371Y-87659837D01*
X133478371Y-87659837D02*
X133430752Y-87755075D01*
X133430752Y-87755075D02*
X133430752Y-87897932D01*
X133430752Y-87897932D02*
X133478371Y-87993170D01*
X133478371Y-87993170D02*
X133525990Y-88040789D01*
X133525990Y-88040789D02*
X133621228Y-88088408D01*
X133621228Y-88088408D02*
X133906942Y-88088408D01*
X133906942Y-88088408D02*
X134002180Y-88040789D01*
X134002180Y-88040789D02*
X134049800Y-87993170D01*
X134049800Y-87993170D02*
X134097419Y-87897932D01*
X134097419Y-87897932D02*
X134097419Y-87755075D01*
X134097419Y-88516980D02*
X133430752Y-88516980D01*
X133525990Y-88516980D02*
X133478371Y-88564599D01*
X133478371Y-88564599D02*
X133430752Y-88659837D01*
X133430752Y-88659837D02*
X133430752Y-88802694D01*
X133430752Y-88802694D02*
X133478371Y-88897932D01*
X133478371Y-88897932D02*
X133573609Y-88945551D01*
X133573609Y-88945551D02*
X134097419Y-88945551D01*
X133573609Y-88945551D02*
X133478371Y-88993170D01*
X133478371Y-88993170D02*
X133430752Y-89088408D01*
X133430752Y-89088408D02*
X133430752Y-89231265D01*
X133430752Y-89231265D02*
X133478371Y-89326504D01*
X133478371Y-89326504D02*
X133573609Y-89374123D01*
X133573609Y-89374123D02*
X134097419Y-89374123D01*
X133049800Y-90564598D02*
X134335514Y-89707456D01*
X133430752Y-90755075D02*
X133430752Y-91136027D01*
X133097419Y-90897932D02*
X133954561Y-90897932D01*
X133954561Y-90897932D02*
X134049800Y-90945551D01*
X134049800Y-90945551D02*
X134097419Y-91040789D01*
X134097419Y-91040789D02*
X134097419Y-91136027D01*
X134097419Y-91469361D02*
X133430752Y-91469361D01*
X133097419Y-91469361D02*
X133145038Y-91421742D01*
X133145038Y-91421742D02*
X133192657Y-91469361D01*
X133192657Y-91469361D02*
X133145038Y-91516980D01*
X133145038Y-91516980D02*
X133097419Y-91469361D01*
X133097419Y-91469361D02*
X133192657Y-91469361D01*
X133430752Y-91802694D02*
X133430752Y-92183646D01*
X133097419Y-91945551D02*
X133954561Y-91945551D01*
X133954561Y-91945551D02*
X134049800Y-91993170D01*
X134049800Y-91993170D02*
X134097419Y-92088408D01*
X134097419Y-92088408D02*
X134097419Y-92183646D01*
X133430752Y-92945551D02*
X134097419Y-92945551D01*
X133430752Y-92516980D02*
X133954561Y-92516980D01*
X133954561Y-92516980D02*
X134049800Y-92564599D01*
X134049800Y-92564599D02*
X134097419Y-92659837D01*
X134097419Y-92659837D02*
X134097419Y-92802694D01*
X134097419Y-92802694D02*
X134049800Y-92897932D01*
X134049800Y-92897932D02*
X134002180Y-92945551D01*
X134049800Y-93374123D02*
X134097419Y-93469361D01*
X134097419Y-93469361D02*
X134097419Y-93659837D01*
X134097419Y-93659837D02*
X134049800Y-93755075D01*
X134049800Y-93755075D02*
X133954561Y-93802694D01*
X133954561Y-93802694D02*
X133906942Y-93802694D01*
X133906942Y-93802694D02*
X133811704Y-93755075D01*
X133811704Y-93755075D02*
X133764085Y-93659837D01*
X133764085Y-93659837D02*
X133764085Y-93516980D01*
X133764085Y-93516980D02*
X133716466Y-93421742D01*
X133716466Y-93421742D02*
X133621228Y-93374123D01*
X133621228Y-93374123D02*
X133573609Y-93374123D01*
X133573609Y-93374123D02*
X133478371Y-93421742D01*
X133478371Y-93421742D02*
X133430752Y-93516980D01*
X133430752Y-93516980D02*
X133430752Y-93659837D01*
X133430752Y-93659837D02*
X133478371Y-93755075D01*
X134097419Y-94231266D02*
X133430752Y-94231266D01*
X133525990Y-94231266D02*
X133478371Y-94278885D01*
X133478371Y-94278885D02*
X133430752Y-94374123D01*
X133430752Y-94374123D02*
X133430752Y-94516980D01*
X133430752Y-94516980D02*
X133478371Y-94612218D01*
X133478371Y-94612218D02*
X133573609Y-94659837D01*
X133573609Y-94659837D02*
X134097419Y-94659837D01*
X133573609Y-94659837D02*
X133478371Y-94707456D01*
X133478371Y-94707456D02*
X133430752Y-94802694D01*
X133430752Y-94802694D02*
X133430752Y-94945551D01*
X133430752Y-94945551D02*
X133478371Y-95040790D01*
X133478371Y-95040790D02*
X133573609Y-95088409D01*
X133573609Y-95088409D02*
X134097419Y-95088409D01*
X134049800Y-95993170D02*
X134097419Y-95897932D01*
X134097419Y-95897932D02*
X134097419Y-95707456D01*
X134097419Y-95707456D02*
X134049800Y-95612218D01*
X134049800Y-95612218D02*
X134002180Y-95564599D01*
X134002180Y-95564599D02*
X133906942Y-95516980D01*
X133906942Y-95516980D02*
X133621228Y-95516980D01*
X133621228Y-95516980D02*
X133525990Y-95564599D01*
X133525990Y-95564599D02*
X133478371Y-95612218D01*
X133478371Y-95612218D02*
X133430752Y-95707456D01*
X133430752Y-95707456D02*
X133430752Y-95897932D01*
X133430752Y-95897932D02*
X133478371Y-95993170D01*
X134097419Y-96421742D02*
X133097419Y-96421742D01*
X133716466Y-96516980D02*
X134097419Y-96802694D01*
X133430752Y-96802694D02*
X133811704Y-96421742D01*
X134097419Y-97659837D02*
X133573609Y-97659837D01*
X133573609Y-97659837D02*
X133478371Y-97612218D01*
X133478371Y-97612218D02*
X133430752Y-97516980D01*
X133430752Y-97516980D02*
X133430752Y-97326504D01*
X133430752Y-97326504D02*
X133478371Y-97231266D01*
X134049800Y-97659837D02*
X134097419Y-97564599D01*
X134097419Y-97564599D02*
X134097419Y-97326504D01*
X134097419Y-97326504D02*
X134049800Y-97231266D01*
X134049800Y-97231266D02*
X133954561Y-97183647D01*
X133954561Y-97183647D02*
X133859323Y-97183647D01*
X133859323Y-97183647D02*
X133764085Y-97231266D01*
X133764085Y-97231266D02*
X133716466Y-97326504D01*
X133716466Y-97326504D02*
X133716466Y-97564599D01*
X133716466Y-97564599D02*
X133668847Y-97659837D01*
X133430752Y-98040790D02*
X134097419Y-98278885D01*
X133430752Y-98516980D02*
X134097419Y-98278885D01*
X134097419Y-98278885D02*
X134335514Y-98183647D01*
X134335514Y-98183647D02*
X134383133Y-98136028D01*
X134383133Y-98136028D02*
X134430752Y-98040790D01*
X133049800Y-99612218D02*
X134335514Y-98755076D01*
X133430752Y-99945552D02*
X134430752Y-99945552D01*
X133478371Y-99945552D02*
X133430752Y-100040790D01*
X133430752Y-100040790D02*
X133430752Y-100231266D01*
X133430752Y-100231266D02*
X133478371Y-100326504D01*
X133478371Y-100326504D02*
X133525990Y-100374123D01*
X133525990Y-100374123D02*
X133621228Y-100421742D01*
X133621228Y-100421742D02*
X133906942Y-100421742D01*
X133906942Y-100421742D02*
X134002180Y-100374123D01*
X134002180Y-100374123D02*
X134049800Y-100326504D01*
X134049800Y-100326504D02*
X134097419Y-100231266D01*
X134097419Y-100231266D02*
X134097419Y-100040790D01*
X134097419Y-100040790D02*
X134049800Y-99945552D01*
X134097419Y-101278885D02*
X133573609Y-101278885D01*
X133573609Y-101278885D02*
X133478371Y-101231266D01*
X133478371Y-101231266D02*
X133430752Y-101136028D01*
X133430752Y-101136028D02*
X133430752Y-100945552D01*
X133430752Y-100945552D02*
X133478371Y-100850314D01*
X134049800Y-101278885D02*
X134097419Y-101183647D01*
X134097419Y-101183647D02*
X134097419Y-100945552D01*
X134097419Y-100945552D02*
X134049800Y-100850314D01*
X134049800Y-100850314D02*
X133954561Y-100802695D01*
X133954561Y-100802695D02*
X133859323Y-100802695D01*
X133859323Y-100802695D02*
X133764085Y-100850314D01*
X133764085Y-100850314D02*
X133716466Y-100945552D01*
X133716466Y-100945552D02*
X133716466Y-101183647D01*
X133716466Y-101183647D02*
X133668847Y-101278885D01*
X133430752Y-101659838D02*
X134097419Y-101897933D01*
X134097419Y-101897933D02*
X133430752Y-102136028D01*
X134097419Y-102945552D02*
X133573609Y-102945552D01*
X133573609Y-102945552D02*
X133478371Y-102897933D01*
X133478371Y-102897933D02*
X133430752Y-102802695D01*
X133430752Y-102802695D02*
X133430752Y-102612219D01*
X133430752Y-102612219D02*
X133478371Y-102516981D01*
X134049800Y-102945552D02*
X134097419Y-102850314D01*
X134097419Y-102850314D02*
X134097419Y-102612219D01*
X134097419Y-102612219D02*
X134049800Y-102516981D01*
X134049800Y-102516981D02*
X133954561Y-102469362D01*
X133954561Y-102469362D02*
X133859323Y-102469362D01*
X133859323Y-102469362D02*
X133764085Y-102516981D01*
X133764085Y-102516981D02*
X133716466Y-102612219D01*
X133716466Y-102612219D02*
X133716466Y-102850314D01*
X133716466Y-102850314D02*
X133668847Y-102945552D01*
X133430752Y-103278886D02*
X133430752Y-103659838D01*
X133097419Y-103421743D02*
X133954561Y-103421743D01*
X133954561Y-103421743D02*
X134049800Y-103469362D01*
X134049800Y-103469362D02*
X134097419Y-103564600D01*
X134097419Y-103564600D02*
X134097419Y-103659838D01*
X134097419Y-103993172D02*
X133430752Y-103993172D01*
X133097419Y-103993172D02*
X133145038Y-103945553D01*
X133145038Y-103945553D02*
X133192657Y-103993172D01*
X133192657Y-103993172D02*
X133145038Y-104040791D01*
X133145038Y-104040791D02*
X133097419Y-103993172D01*
X133097419Y-103993172D02*
X133192657Y-103993172D01*
X141665752Y-90524285D02*
X142332419Y-90524285D01*
X141284800Y-90286190D02*
X141999085Y-90048095D01*
X141999085Y-90048095D02*
X141999085Y-90667142D01*
X141332419Y-91238571D02*
X141332419Y-91333809D01*
X141332419Y-91333809D02*
X141380038Y-91429047D01*
X141380038Y-91429047D02*
X141427657Y-91476666D01*
X141427657Y-91476666D02*
X141522895Y-91524285D01*
X141522895Y-91524285D02*
X141713371Y-91571904D01*
X141713371Y-91571904D02*
X141951466Y-91571904D01*
X141951466Y-91571904D02*
X142141942Y-91524285D01*
X142141942Y-91524285D02*
X142237180Y-91476666D01*
X142237180Y-91476666D02*
X142284800Y-91429047D01*
X142284800Y-91429047D02*
X142332419Y-91333809D01*
X142332419Y-91333809D02*
X142332419Y-91238571D01*
X142332419Y-91238571D02*
X142284800Y-91143333D01*
X142284800Y-91143333D02*
X142237180Y-91095714D01*
X142237180Y-91095714D02*
X142141942Y-91048095D01*
X142141942Y-91048095D02*
X141951466Y-91000476D01*
X141951466Y-91000476D02*
X141713371Y-91000476D01*
X141713371Y-91000476D02*
X141522895Y-91048095D01*
X141522895Y-91048095D02*
X141427657Y-91095714D01*
X141427657Y-91095714D02*
X141380038Y-91143333D01*
X141380038Y-91143333D02*
X141332419Y-91238571D01*
X142250000Y-70750000D02*
X139763580Y-70750000D01*
X139763580Y-110750000D02*
X142250000Y-110750000D01*
X140350000Y-70750000D02*
X140350000Y-110750000D01*
X140350000Y-70750000D02*
X140936421Y-71876504D01*
X140350000Y-70750000D02*
X139763579Y-71876504D01*
X140350000Y-110750000D02*
X139763579Y-109623496D01*
X140350000Y-110750000D02*
X140936421Y-109623496D01*
M02*
